<svg width="450" height="309" viewBox="0 0 450 309" fill="none" xmlns="http://www.w3.org/2000/svg">
<path d="M326.573 180.051L328.477 169.955C330.044 162.5 337.428 157.742 344.969 159.328C363.972 163.324 376.177 181.794 372.228 200.58L369.341 214.315C368.077 220.333 370.412 226.28 374.897 229.96C378.97 233.303 380.766 238.649 379.693 243.759L378.171 251C376.523 258.84 371.263 265.375 364.047 268.982C359.827 271.091 356.585 275.011 355.547 279.953L353.391 290.205C351.009 301.541 339.783 308.775 328.317 306.364L321.775 304.988C310.31 302.577 302.946 291.433 305.328 280.098C310.219 266.176 307.395 256.954 303.125 251.124C296.847 242.552 294.37 231.832 296.542 221.5L296.846 220.051C299.139 209.146 306.372 200.008 316.338 194.855C320.738 192.58 324.856 188.22 326.573 180.051Z" fill="#50BFA5"/>
<path d="M398.327 84.6909C398.327 84.6909 391.399 99.7768 386.738 106.149C382.076 112.522 377.635 118.616 373.915 136.303C370.196 153.989 370.834 155.767 369.816 160.335C368.798 164.903 362.172 183.412 362.134 186.806C362.096 190.2 348.744 209.521 345.325 218.564C341.905 227.607 335.846 240.524 336.187 247.101L337.709 246.714C337.709 246.714 338.949 231.379 349.504 215.882C360.058 200.385 358.549 197.459 370.534 189.498C382.52 181.536 390.261 159.544 390.261 159.544C390.261 159.544 402.454 135.657 401.886 123.239C401.319 110.821 404.555 99.6217 398.327 84.6909Z" fill="#256653"/>
<path d="M383.549 61.4883C383.549 61.4883 383.146 71.3979 379.95 77.2848C376.754 83.1717 374.001 86.7473 373.421 93.1163C372.841 99.4856 370.834 115.906 361.923 123.923C353.012 131.939 353.938 157.359 347.156 164.625C340.373 171.891 339.214 178.37 340.466 190.832C341.718 203.294 344.183 217.91 334.343 240.453L332.119 234.846C332.119 234.846 339.158 216.3 337.454 205.44C335.75 194.581 329.82 178.173 331.991 170.303C334.161 162.433 326.09 160.896 330.95 148.993C335.81 137.091 333.814 132.955 340.43 122.664C340.43 122.664 341.108 122.182 342.848 113.475C344.587 104.767 358.61 88.8083 365.072 83.3622C371.534 77.9161 380.847 69.1881 383.549 61.4883Z" fill="#256653"/>
<path d="M355.783 110.553C355.783 110.553 348.044 123.806 347.934 132.336C347.824 140.866 348.748 147.804 344.833 159.485C340.918 171.167 348.689 178.55 346.449 185C344.209 191.449 344.036 199.085 344.104 204.875C344.172 210.666 335.24 229.829 333.881 239.532C332.521 249.235 334.258 249.267 334.258 249.267C334.258 249.267 335.739 236.457 337.794 232.221C339.85 227.985 346.099 213.381 347.559 207.73C349.018 202.08 352.976 198.453 356.389 188.884C359.803 179.315 364.656 171.256 364.285 157.677C363.915 144.099 369.377 129.767 355.783 110.553Z" fill="#3C8F7C"/>
<path d="M339.4 240.376C339.4 240.376 343.009 223.556 358.226 221.877C373.443 220.197 382.382 223.207 393.132 210.919C403.882 198.631 410.126 179.13 413.56 175.773C413.56 175.773 408.159 172.994 399.179 181.392C390.199 189.789 383.891 196.159 378.693 201.048C373.494 205.938 369.273 202.75 363.784 205.973C359.184 208.675 353.236 216.482 350.616 220.572C349.766 221.9 348.756 223.119 347.597 224.189C346.543 225.162 345.287 226.355 344.481 227.233C342.871 228.99 338.223 240.436 338.223 240.436L339.4 240.376Z" fill="#3C8F7C"/>
<path d="M334.037 237.408C334.037 237.408 339.4 216.839 335.807 206.773C332.215 196.708 320.97 189.259 321.422 182.936C321.874 176.613 329.093 159.523 323.207 146.799C323.207 146.799 320.97 158.149 318.764 160.674C316.558 163.198 301.414 173.379 304.099 186.825C306.784 200.271 321.505 203.414 325.131 207.373C328.756 211.331 333.651 211.326 333.682 213.958C333.712 216.59 334.667 226.16 333.042 235.604L334.037 237.408Z" fill="#3C8F7C"/>
<path d="M339.9 223.643L347.434 201.934C347.434 201.934 351.86 184.473 354.426 169.912C356.991 155.352 355.783 110.553 355.783 110.553C355.783 110.553 348.045 123.806 347.934 132.336C347.824 140.866 348.748 147.804 344.833 159.485C340.918 171.167 348.689 178.55 346.449 185C344.209 191.449 344.036 199.085 344.104 204.875C344.173 210.666 335.24 229.829 333.881 239.532C333.136 244.847 333.321 247.257 333.64 248.353C332.432 239.866 339.9 223.643 339.9 223.643Z" fill="#327F6B"/>
<path d="M377.011 210.711C370.29 212.054 364.281 211.595 356.302 217.536C348.324 223.476 343.631 229.82 343.631 229.82C343.631 229.82 340.045 236.231 338.562 239.611C338.349 240.128 338.224 240.436 338.224 240.436L339.4 240.376C339.4 240.376 343.009 223.556 358.226 221.877C373.443 220.197 382.382 223.207 393.132 210.919C403.882 198.631 410.126 179.13 413.56 175.773C413.56 175.773 402.126 184.671 395.061 192.546C387.995 200.421 383.732 209.368 377.011 210.711Z" fill="#327F6B"/>
<path d="M318.764 160.674C316.558 163.198 301.414 173.379 304.099 186.825C306.784 200.271 321.505 203.414 325.131 207.373C328.756 211.331 333.651 211.326 333.682 213.958C333.712 216.59 334.667 226.16 333.042 235.603L333.476 236.392C334.271 232.706 335.373 227.094 335.733 222.832C336.319 215.911 335.197 213.046 332.973 207.439C330.749 201.832 316.93 190.413 313.468 184.409C310.005 178.405 320.145 168.369 322.395 163.523C324.646 158.678 323.207 146.799 323.207 146.799C323.207 146.799 320.97 158.149 318.764 160.674Z" fill="#327F6B"/>
<path d="M312.095 308.227C316.935 301.949 343.478 268.317 360.786 262.713C379.889 256.527 361.884 281.097 361.884 281.097C361.884 281.097 395.774 244.029 408.211 247.37C419.611 250.434 408.211 273.41 408.211 273.41C408.211 273.41 421.051 260.687 436.622 260.687C451.776 260.687 426.035 305.811 424.646 308.227H312.095Z" fill="#96D9C9"/>
<path d="M414.228 235.473C400.382 257.105 390.276 281.135 384.498 306.663L383.549 306.409C389.303 281.415 399.341 257.426 413.164 235.818C416.377 230.796 419.846 224.839 425.862 222.88C425.978 222.842 426.022 223.018 425.911 223.06C420.417 225.131 417.234 230.777 414.228 235.473Z" fill="#3C8F7C"/>
<path d="M387.836 307.559C403.31 286.511 422.121 267.058 444.489 250.141C444.712 249.972 445.013 250.361 444.789 250.534C423.574 266.846 404.806 286.107 389.013 307.874L387.836 307.559Z" fill="#3C8F7C"/>
<path d="M415.494 222.058C415.85 222.582 417.215 223.95 417.616 225.746C418.154 227.451 417.729 229.584 417.683 229.51C417.581 229.552 419.262 228.13 419.788 225.868C420.468 223.698 419.992 220.689 419.145 219.692C417.685 217.437 415.132 217.209 414.636 218.302C414.11 219.388 414.777 220.865 415.494 222.058Z" fill="#3C8F7C"/>
<path d="M418.807 241.366C418.289 240.999 416.949 239.608 415.161 239.171C413.469 238.6 411.327 238.982 411.401 239.03C411.357 239.132 412.812 237.478 415.083 236.997C417.265 236.36 420.264 236.895 421.243 237.761C423.468 239.267 423.646 241.824 422.544 242.298C421.448 242.803 419.985 242.107 418.807 241.366Z" fill="#3C8F7C"/>
<path d="M413.808 249.829C413.29 249.462 411.951 248.071 410.163 247.635C408.469 247.062 406.328 247.446 406.402 247.493C406.358 247.594 407.813 245.941 410.084 245.46C412.266 244.823 415.265 245.358 416.245 246.224C418.469 247.73 418.647 250.287 417.544 250.761C416.449 251.266 414.986 250.569 413.808 249.829Z" fill="#3C8F7C"/>
<path d="M431.639 269.459C431.122 269.092 429.782 267.7 427.994 267.264C426.3 266.692 424.159 267.075 424.233 267.122C424.189 267.224 425.644 265.57 427.915 265.089C430.097 264.452 433.096 264.987 434.076 265.853C436.3 267.359 436.478 269.916 435.376 270.391C434.28 270.895 432.817 270.199 431.639 269.459Z" fill="#3C8F7C"/>
<path d="M440.749 261.43C440.232 261.064 438.892 259.672 437.104 259.236C435.411 258.663 433.27 259.046 433.344 259.094C433.299 259.196 434.754 257.542 437.025 257.061C439.207 256.424 442.206 256.959 443.186 257.825C445.41 259.331 445.588 261.888 444.486 262.362C443.39 262.867 441.927 262.171 440.749 261.43Z" fill="#3C8F7C"/>
<path d="M408.499 231.634C408.934 232.095 410.497 233.231 411.176 234.942C411.976 236.54 411.893 238.714 411.836 238.648C411.741 238.706 413.177 237.036 413.34 234.719C413.67 232.47 412.725 229.573 411.733 228.721C409.934 226.726 407.377 226.903 407.06 228.061C406.712 229.215 407.604 230.569 408.499 231.634Z" fill="#3C8F7C"/>
<path d="M401.149 241.231C401.767 241.559 403.928 242.154 405.015 243.772C406.246 245.212 406.402 247.674 406.32 247.624C406.204 247.73 407.861 245.249 407.789 242.593C407.942 239.941 406.368 237.114 404.979 236.59C402.409 235.136 399.121 236.433 398.851 237.861C398.54 239.3 399.859 240.427 401.149 241.231Z" fill="#3C8F7C"/>
<path d="M393.411 255.767C394.076 255.986 396.307 256.209 397.651 257.621C399.105 258.834 399.674 261.235 399.584 261.199C399.488 261.323 400.704 258.598 400.187 255.993C399.892 253.352 397.864 250.83 396.408 250.548C393.629 249.547 390.606 251.379 390.58 252.832C390.516 254.303 392.006 255.192 393.411 255.767Z" fill="#3C8F7C"/>
<path d="M416.306 265.892C416.79 266.195 418.515 266.802 419.307 268.18C420.226 269.421 420.213 271.433 420.149 271.387C420.049 271.467 421.537 269.543 421.63 267.379C421.906 265.23 420.786 262.84 419.686 262.336C417.678 261.007 414.93 261.874 414.629 263.021C414.294 264.174 415.303 265.165 416.306 265.892Z" fill="#3C8F7C"/>
<path d="M428.225 225.461C427.935 225.221 427.203 224.339 426.165 224.003C425.188 223.59 423.905 223.724 423.946 223.754C423.915 223.813 424.848 222.898 426.213 222.713C427.532 222.432 429.282 222.879 429.824 223.434C431.074 224.423 431.067 225.943 430.395 226.176C429.724 226.426 428.889 225.95 428.225 225.461Z" fill="#3C8F7C"/>
<path d="M425.449 219.284C425.462 219.66 425.713 220.778 425.345 221.806C425.076 222.832 424.187 223.767 424.188 223.715C424.123 223.704 425.417 223.523 426.396 222.555C427.424 221.682 428.138 220.022 428.03 219.254C428.01 217.661 426.802 216.737 426.207 217.129C425.6 217.506 425.467 218.459 425.449 219.284Z" fill="#3C8F7C"/>
<path d="M447.309 253.253C447.02 253.013 446.288 252.131 445.249 251.795C444.273 251.382 442.989 251.515 443.031 251.547C443 251.605 443.933 250.69 445.298 250.505C446.616 250.224 448.367 250.672 448.909 251.226C450.158 252.215 450.152 253.735 449.479 253.968C448.809 254.218 447.974 253.742 447.309 253.253Z" fill="#3C8F7C"/>
<path d="M443.96 247.023C444.004 247.396 444.346 248.49 444.064 249.545C443.879 250.589 443.07 251.594 443.066 251.542C443.001 251.537 444.275 251.25 445.172 250.205C446.125 249.251 446.701 247.538 446.53 246.781C446.38 245.195 445.1 244.374 444.54 244.812C443.965 245.239 443.911 246.199 443.96 247.023Z" fill="#3C8F7C"/>
<path d="M441.63 287.283C427.491 288.833 414.322 295.076 401.646 301.164C393.097 305.269 393.528 306.439 391.787 307.05C391.505 307.149 391.223 306.843 391.36 306.571C392.03 305.244 393.786 304.346 395.008 303.583C396.431 302.694 397.917 301.909 399.425 301.177C402.652 299.609 405.962 298.199 409.251 296.77C415.942 293.862 422.742 291.126 429.811 289.275C433.686 288.26 437.629 287.528 441.62 287.168C441.695 287.161 441.703 287.275 441.63 287.283Z" fill="#3C8F7C"/>
<path d="M428.886 282.898C428.979 283.478 429.583 285.163 429.21 286.827C428.989 288.469 427.791 290.089 427.782 290.008C427.679 290.003 429.65 289.475 430.982 287.786C432.408 286.236 433.196 283.526 432.88 282.356C432.545 279.89 430.495 278.691 429.649 279.412C428.78 280.114 428.756 281.616 428.886 282.898Z" fill="#3C8F7C"/>
<path d="M416.43 287.36C416.522 287.94 417.127 289.624 416.754 291.289C416.533 292.93 415.335 294.55 415.326 294.47C415.223 294.465 417.194 293.936 418.526 292.248C419.952 290.697 420.74 287.987 420.424 286.818C420.089 284.352 418.039 283.153 417.192 283.873C416.323 284.575 416.3 286.077 416.43 287.36Z" fill="#3C8F7C"/>
<path d="M403.774 293.003C403.866 293.583 404.47 295.268 404.098 296.932C403.877 298.573 402.679 300.194 402.67 300.113C402.567 300.108 404.538 299.58 405.87 297.891C407.296 296.34 408.084 293.63 407.768 292.461C407.432 289.995 405.383 288.796 404.536 289.516C403.667 290.218 403.644 291.72 403.774 293.003Z" fill="#3C8F7C"/>
<path d="M432.605 294.539C432.349 294.06 431.854 292.481 430.651 291.463C429.572 290.377 427.785 289.852 427.824 289.916C427.751 289.977 429.498 289.267 431.422 289.767C433.338 290.113 435.431 291.671 435.851 292.709C436.979 294.713 436.137 296.741 435.112 296.683C434.079 296.651 433.225 295.557 432.605 294.539Z" fill="#3C8F7C"/>
<path d="M419.649 299.127C419.393 298.648 418.898 297.069 417.695 296.051C416.616 294.964 414.829 294.439 414.868 294.503C414.795 294.565 416.542 293.854 418.466 294.354C420.381 294.701 422.474 296.258 422.894 297.296C424.023 299.301 423.181 301.328 422.155 301.27C421.123 301.238 420.268 300.144 419.649 299.127Z" fill="#3C8F7C"/>
<path d="M442.472 289.817C442.248 289.55 441.729 288.624 440.839 288.144C440.018 287.604 438.827 287.51 438.859 287.546C438.822 287.594 439.825 286.917 441.099 286.977C442.348 286.941 443.868 287.643 444.268 288.239C445.242 289.349 444.981 290.733 444.329 290.832C443.677 290.948 442.996 290.375 442.472 289.817Z" fill="#3C8F7C"/>
<path d="M440.977 283.724C440.926 284.069 440.968 285.13 440.46 286.005C440.043 286.894 439.077 287.598 439.086 287.551C439.029 287.53 440.238 287.581 441.293 286.863C442.375 286.24 443.304 284.847 443.333 284.129C443.583 282.674 442.636 281.631 442.029 281.888C441.412 282.13 441.132 282.975 440.977 283.724Z" fill="#3C8F7C"/>
<path d="M76.8286 200.812C60.2148 185.994 51.672 164.713 47.4312 149.469C42.8273 132.921 42.1569 119.714 42.1506 119.582L41.2476 119.526C41.2537 119.659 41.9274 132.963 46.5592 149.622C50.8394 165.016 59.4721 186.515 76.2917 201.517L76.8286 200.812Z" fill="#3C8F7C"/>
<path d="M44.0424 115.751C44.8612 119.562 44.1757 123.161 42.4297 125.76C39.6922 123.744 37.5393 120.514 36.7207 116.704C35.902 112.894 36.5874 109.294 38.3333 106.695C41.0709 108.711 43.2235 111.941 44.0424 115.751Z" fill="#3C8F7C"/>
<path d="M38.947 126.601C41.8095 129.265 43.4826 132.764 43.8071 136.134C40.6647 136.277 37.2076 135.001 34.3452 132.337C31.4827 129.673 29.8096 126.174 29.4854 122.805C32.6273 122.662 36.0846 123.937 38.947 126.601Z" fill="#3C8F7C"/>
<path d="M37.6037 138.001C41.1609 139.117 44.0782 141.595 45.8048 144.605C43.2233 146.263 39.7647 146.74 36.2074 145.624C32.6502 144.508 29.7329 142.03 28.0063 139.02C30.588 137.361 34.0466 136.884 37.6037 138.001Z" fill="#3C8F7C"/>
<path d="M43.0824 151.714C45.9001 152.603 48.1529 154.877 49.4291 157.749C47.2929 159.544 44.4954 160.224 41.6775 159.336C38.8598 158.447 36.607 156.173 35.3306 153.301C37.467 151.506 40.2646 150.826 43.0824 151.714Z" fill="#3C8F7C"/>
<path d="M47.8937 132.142C50.1113 129.909 53.0482 128.957 55.8912 129.263C56.0486 132.273 55.0112 135.323 52.7934 137.556C50.576 139.789 47.6389 140.741 44.7958 140.436C44.6385 137.426 45.6761 134.375 47.8937 132.142Z" fill="#3C8F7C"/>
<path d="M50.4638 141.97C52.6814 139.737 55.6185 138.785 58.4615 139.09C58.6189 142.1 57.5815 145.151 55.3639 147.384C53.1463 149.617 50.2092 150.569 47.3661 150.263C47.2088 147.253 48.2462 144.203 50.4638 141.97Z" fill="#3C8F7C"/>
<path d="M66.8155 220.909C51.4734 218.672 38.3438 209.58 30.0311 202.346C21.0067 194.494 15.5505 187.074 15.4965 187L14.9502 187.314C15.0046 187.389 20.4998 194.864 29.5828 202.77C37.9763 210.076 51.2418 219.26 66.7741 221.525L66.8155 220.909Z" fill="#50BFA5"/>
<path d="M15.1269 184.047C17.0648 185.947 18.0469 188.302 18.029 190.484C15.6644 190.363 13.1738 189.311 11.2361 187.411C9.29864 185.51 8.3163 183.155 8.33423 180.974C10.6989 181.095 13.1892 182.146 15.1269 184.047Z" fill="#50BFA5"/>
<path d="M16.3267 192.31C19.0126 192.76 21.3274 194.152 22.8084 195.986C21.0367 197.275 18.5377 197.86 15.8519 197.41C13.166 196.96 10.8511 195.569 9.37012 193.735C11.1418 192.446 13.641 191.86 16.3267 192.31Z" fill="#50BFA5"/>
<path d="M19.919 199.452C22.415 198.735 25.0615 199.056 27.2198 200.143C26.3552 202.098 24.5278 203.703 22.0318 204.419C19.5357 205.136 16.8893 204.815 14.731 203.728C15.5956 201.773 17.4228 200.168 19.919 199.452Z" fill="#50BFA5"/>
<path d="M28.3646 205.32C30.3436 204.756 32.5256 205.213 34.369 206.392C33.8157 208.256 32.4507 209.725 30.4717 210.29C28.4928 210.855 26.3109 210.398 24.4673 209.218C25.0206 207.355 26.3858 205.885 28.3646 205.32Z" fill="#50BFA5"/>
<path d="M23.653 192.096C24.0855 189.947 25.4277 188.266 27.1972 187.353C28.4435 189.042 29.0105 191.213 28.578 193.362C28.1456 195.512 26.8034 197.192 25.0336 198.106C23.7876 196.417 23.2206 194.245 23.653 192.096Z" fill="#50BFA5"/>
<path d="M28.9177 196.823C29.3501 194.673 30.6923 192.993 32.4621 192.079C33.7081 193.768 34.2753 195.94 33.8427 198.089C33.4103 200.238 32.068 201.919 30.2983 202.833C29.0523 201.143 28.4853 198.972 28.9177 196.823Z" fill="#50BFA5"/>
<path d="M81.6114 274.315C62.9219 277.325 44.5578 269.915 32.4433 263.169C19.2917 255.846 10.4578 247.701 10.37 247.619L9.83447 248.274C9.92286 248.356 18.8207 256.563 32.0586 263.937C44.2916 270.752 62.8454 278.235 81.7664 275.189L81.6114 274.315Z" fill="#96D9C9"/>
<path d="M8.96217 243.658C11.8569 245.529 13.784 248.414 14.4831 251.455C11.6765 252.23 8.41542 251.761 5.5207 249.89C2.62619 248.019 0.699052 245.134 0 242.093C2.80633 241.318 6.06767 241.787 8.96217 243.658Z" fill="#96D9C9"/>
<path d="M13.0947 254.674C16.3858 254.229 19.5538 255.241 21.8923 257.202C20.2449 259.702 17.5145 261.514 14.2234 261.959C10.9323 262.405 7.76425 261.392 5.42578 259.432C7.073 256.932 9.80361 255.12 13.0947 254.674Z" fill="#96D9C9"/>
<path d="M19.6562 263.177C22.3402 261.184 25.5425 260.575 28.4269 261.226C28.0607 264.29 26.4525 267.252 23.7685 269.244C21.0845 271.236 17.8824 271.846 14.998 271.195C15.3642 268.131 16.9724 265.169 19.6562 263.177Z" fill="#96D9C9"/>
<path d="M30.084 269.018C32.7679 267.026 35.9702 266.416 38.8546 267.067C38.4884 270.131 36.8804 273.093 34.1964 275.085C31.5124 277.078 28.3102 277.688 25.4258 277.036C25.7918 273.972 27.4 271.011 30.084 269.018Z" fill="#96D9C9"/>
<path d="M21.9429 255.412C20.5387 252.517 20.3037 249.329 21.0701 246.638C23.5368 247.454 25.8185 249.455 27.2227 252.35C28.6269 255.246 28.8617 258.434 28.0956 261.125C25.6287 260.309 23.3469 258.308 21.9429 255.412Z" fill="#96D9C9"/>
<path d="M32.7865 261.43C31.3403 258.557 31.0568 255.368 31.7806 252.66C34.2557 253.431 36.5642 255.393 38.0106 258.267C39.4568 261.141 39.7403 264.329 39.0168 267.037C36.5414 266.266 34.2327 264.304 32.7865 261.43Z" fill="#96D9C9"/>
<path d="M44.5474 273.01C45.3283 271.814 46.5327 271.12 47.803 270.993C48.1276 272.314 47.9327 273.764 47.152 274.96C46.3711 276.156 45.1667 276.85 43.8964 276.977C43.5716 275.656 43.7665 274.206 44.5474 273.01Z" fill="#96D9C9"/>
<path d="M123.684 305.882C123.684 305.882 136.586 217.726 129.108 208.763C118.775 196.376 110.251 237.469 109.415 233.979C101.516 201.017 99.4118 158.842 73.931 154.379C59.4462 151.841 77.2767 185.741 76.2039 194.909C75.1313 204.077 49.0282 173.637 33.1662 157.689C17.304 141.742 9.11196 151.839 19.1345 171.892C28.8259 191.283 60.178 212.473 53.7155 214.988C47.2529 217.502 8.01845 192.46 3.2139 203.165C-2.677 216.29 56.1765 234.153 50.6345 237.101C45.0925 240.05 16.9642 230.339 17.7326 240.376C18.5011 250.413 56.3134 250.039 55.6673 254.454C54.621 261.603 30.0711 245.457 28.9719 255.349C27.8476 265.466 61.4143 263.585 60.8249 271.476C60.4864 276.01 51.581 275.038 50.5482 281.326C47.953 297.127 94.5115 307.22 94.5115 307.22L123.684 305.882Z" fill="#3C8F7C"/>
<path d="M136.229 307.475C136.229 307.475 114.77 274.564 104.444 268.35C93.4408 261.728 101.817 281.551 101.817 281.551C101.817 281.551 79.3329 254.788 73.0826 260.226C66.8323 265.664 72.5053 271.961 72.5053 271.961C72.5053 271.961 52.3197 265.978 48.6915 273.389C43.1164 284.778 76.3496 294.221 76.3496 294.221C76.3496 294.221 62.577 293.919 64.7079 301.759C67.1194 310.63 136.229 307.475 136.229 307.475Z" fill="#50BFA5"/>
<path d="M48.6919 273.389C52.32 265.977 72.5057 271.961 72.5057 271.961C72.5057 271.961 66.8327 265.663 73.083 260.226C79.3333 254.788 97.3197 271.065 97.3197 271.065C97.3197 271.065 95.4343 257.643 108.978 269.467C118.653 277.912 136.229 307.475 136.229 307.475L48.6919 273.389Z" fill="#96D9C9"/>
<path d="M140.591 294.268L141.268 293.318C115.741 274.503 99.8981 246.849 91.1025 226.962C81.5578 205.381 78.0199 188.034 77.9853 187.861L76.7456 187.947C76.7802 188.121 80.3398 205.586 89.9384 227.296C98.8056 247.353 114.791 275.252 140.591 294.268Z" fill="#96D9C9"/>
<path d="M79.7914 182.804C81.6607 187.782 81.446 192.544 79.5923 196.035C75.4745 193.498 71.9092 189.339 70.0397 184.362C68.1703 179.384 68.3851 174.622 70.2386 171.131C74.3566 173.668 77.9221 177.827 79.7914 182.804Z" fill="#96D9C9"/>
<path d="M75.0304 197.287C79.4466 200.672 82.4143 205.204 83.5247 209.623C79.2865 209.942 74.339 208.408 69.9225 205.023C65.5063 201.638 62.5386 197.106 61.4282 192.688C65.6664 192.369 70.6142 193.903 75.0304 197.287Z" fill="#96D9C9"/>
<path d="M75.4743 212.337C80.5262 213.657 84.98 216.795 87.923 220.682C84.7476 222.971 80.1468 223.742 75.0946 222.422C70.0426 221.102 65.5888 217.964 62.646 214.076C65.8213 211.788 70.4221 211.017 75.4743 212.337Z" fill="#96D9C9"/>
<path d="M89.3179 233.805C91.4575 234.207 93.4076 235.397 94.7553 236.95C93.5118 238.016 91.6275 238.485 89.4879 238.083C87.3484 237.68 85.3983 236.491 84.0508 234.938C85.2943 233.872 87.1786 233.403 89.3179 233.805Z" fill="#96D9C9"/>
<path d="M93.9288 241.949C96.0683 242.351 98.0185 243.541 99.3659 245.094C98.1224 246.16 96.2381 246.628 94.0988 246.226C91.9592 245.824 90.0091 244.635 88.6616 243.082C89.9051 242.015 91.7894 241.547 93.9288 241.949Z" fill="#96D9C9"/>
<path d="M88.2799 204.203C90.8468 201.173 94.6452 199.799 98.5661 200.082C99.3785 204.034 98.5763 208.09 96.0096 211.119C93.4426 214.148 89.6443 215.523 85.7231 215.24C84.9108 211.288 85.713 207.232 88.2799 204.203Z" fill="#96D9C9"/>
<path d="M93.7246 217.021C96.2915 213.992 100.09 212.618 104.011 212.901C104.823 216.853 104.021 220.908 101.454 223.938C98.8875 226.967 95.0891 228.342 91.168 228.059C90.3557 224.106 91.1576 220.051 93.7246 217.021Z" fill="#96D9C9"/>
<path d="M99.948 235.946C101.619 233.974 104.091 233.08 106.643 233.264C107.172 235.836 106.65 238.476 104.979 240.448C103.308 242.42 100.836 243.314 98.2839 243.13C97.7553 240.557 98.2773 237.918 99.948 235.946Z" fill="#96D9C9"/>
<path d="M174.869 43.7201C162.159 49.5152 157.479 58.4652 162.223 75.1783C165.551 84.557 187.209 108.051 212.164 106.513C190.215 90.4591 185.82 58.2983 200.44 56.7137C195.651 40.0981 174.869 43.7201 174.869 43.7201Z" fill="#EB9949"/>
<path d="M237.964 105.292C235.755 61.8294 227.082 41.1166 204.067 25.2707C195.307 19.1814 183.479 20.9095 168.805 34.2494C151.233 50.2231 154.902 55.9296 162.223 75.1781C159.754 63.4592 162.674 51.4077 173.495 50.4656C184.315 49.5235 198.678 53.3179 216.123 75.8763C227.694 90.839 229.72 109.532 237.964 105.292Z" fill="#F7CC7F"/>
<path d="M297.893 35.013C300.212 55.8821 281.041 69.453 263.21 86.3923C253.858 95.2769 249.201 104.096 249.201 104.096C245.251 100.975 247.195 98.0598 248.171 93.7052C267.064 65.274 269.64 44.8158 262.942 39.9263C265.721 28.3361 292.311 12.2381 297.893 35.013Z" fill="#EB9642"/>
<path d="M237.268 104.096C229.118 56.2057 230.289 33.0069 238.088 17.4897C246.484 0.783562 255.201 -3.24907 271.1 4.65457C296.431 17.2477 298.169 25.5822 297.893 35.0126C293.256 24.2807 282.951 25.0956 276.51 29.9851C270.069 34.8746 256.415 51.0374 252.293 74.6026C251.005 82.6839 248.429 97.8001 249.201 104.096C245.852 104.959 237.641 106.312 237.268 104.096Z" fill="#F7CC7F"/>
<path d="M310.725 69.7749C315.105 80.5726 313.048 101.45 276.591 105.544C294.237 115.615 342.49 108.44 344.474 93.2042C347.308 73.7816 337.261 69.1497 326.698 66.576C316.135 64.0024 310.725 69.7749 310.725 69.7749Z" fill="#EB9642"/>
<path d="M249.409 104.005C267.443 72.6952 298.616 39.0681 319.999 39.3114C331.388 39.3101 350.291 81.865 344.474 93.2044C343.701 77.3133 334.426 72.2877 321.03 72.7631C307.633 73.2385 279.24 98.9155 265.226 104.005C253.274 106.922 249.409 104.005 249.409 104.005Z" fill="#F7CC7F"/>
<path d="M338.682 146.102H119.53V307.632H338.682V146.102Z" fill="#F47458"/>
<path d="M359.131 103.271H99.0815V146.102H359.131V103.271Z" fill="#F47458"/>
<path d="M132.363 103.271H123.389L99.0815 125.778V134.088L132.363 103.271Z" fill="#FCDBD4"/>
<path d="M208.516 103.271H199.542L153.286 146.102H162.26L208.516 103.271Z" fill="#FCDBD4"/>
<path d="M284.67 103.271H275.695L229.439 146.102H238.414L284.67 103.271Z" fill="#FCDBD4"/>
<path d="M359.131 104.838V103.271H351.848L305.592 146.102H314.567L359.131 104.838Z" fill="#FCDBD4"/>
<path d="M254.888 146.102H245.914L119.53 263.127V271.437L254.888 146.102Z" fill="#FCDBD4"/>
<path d="M156.594 307.632L331.041 146.102H322.067L147.62 307.632H156.594Z" fill="#FCDBD4"/>
<path d="M178.735 146.102H169.76L119.53 192.613V200.923L178.735 146.102Z" fill="#FCDBD4"/>
<path d="M338.682 280.056V271.746L299.926 307.632H308.9L338.682 280.056Z" fill="#FCDBD4"/>
<path d="M338.682 209.541V201.231L223.773 307.632H232.748L338.682 209.541Z" fill="#FCDBD4"/>
<path d="M119.53 152.95L338.682 147.973V146.102H119.53V152.95Z" fill="#C7C7C7"/>
<path d="M234.354 103.271C226.786 100.308 209.19 102.374 196.458 103.464C185.84 108.761 170.759 124.686 163.143 143.097C178.212 123.052 197.055 126.85 197.211 154.464C204.262 126.248 232.721 105.436 234.354 103.271Z" fill="#F7CC7F"/>
<path d="M246.824 103.27C271.667 119.038 284.98 142.68 291.194 165.483C298.888 195.198 286.269 213.134 283.86 221.677C324.073 168.416 326.468 221.677 326.468 221.677C340.184 188.989 336.411 155.569 316.388 132.521C296.364 109.472 282.241 104.438 274.615 101.855C266.988 99.272 251.84 100.253 246.824 103.27Z" fill="#F7CC7F"/>
<path d="M149.559 16.5746C151.433 12.0649 153.338 7.5459 158.199 5.26204C162.133 3.41389 166.242 4.10956 169.738 6.73862C179.641 14.1882 171.012 22.3957 182.285 36.5219C185.788 40.9113 190.028 44.4555 192.127 49.5993C195.065 56.799 191.566 60.2566 185.957 63.7046C159.124 80.2031 145.057 46.3281 145.562 38.5789C145.938 32.8142 148.353 19.4775 149.559 16.5746Z" fill="#13375B"/>
<path d="M122.421 104.376C123.552 104.196 126.3 102.228 127.27 102.049C128.021 101.91 129.647 101.664 130.34 101.56C131.188 98.3904 135.499 81.108 135.981 76.0423C136.504 70.5542 140.384 46.811 140.384 46.811L150.43 48.6377C150.43 48.6377 146.258 66.9025 145.104 75.7594C144.114 83.3664 135.77 100.47 134.709 102.275C134.707 102.319 134.707 102.361 134.704 102.407C134.543 105.091 133.25 104.196 133.25 104.196L131.149 104.733C131.149 104.733 123.714 105.449 123.229 105.628C122.744 105.807 121.289 104.555 122.421 104.376Z" fill="#F7A491"/>
<path d="M148.434 32.9316C141.332 35.3404 137.294 54.6541 137.294 54.6541C137.294 54.6541 148.437 57.7657 151.291 56.1338C151.291 56.1338 154.532 41.766 155.693 42.268L148.434 32.9316Z" fill="#6A97CE"/>
<path d="M93.4964 141.243C91.3231 146.976 90.1959 152.498 90.0942 153.166C90.0455 153.487 90.499 155.045 90.4566 155.379C86.0944 161.331 79.8251 162.633 74.4512 163.012C77.19 160.338 81.212 157.803 81.4052 156.956C81.7127 155.608 83.3674 149.604 84.1807 141.284C87.5233 142.83 89.7913 141.605 93.4964 141.243Z" fill="#F7A491"/>
<path d="M155.307 77.1055L164.905 104.146C164.905 104.146 149.481 107.05 143.715 108.107C137.948 109.165 105.73 110.573 104.914 111.145C104.308 111.57 97.6526 133.102 94.6798 144.974C91.3071 145.717 85.5342 144.825 82.4629 143.766C84.1221 126.779 90.1156 99.8654 92.0347 96.9357C95.1606 92.1637 155.307 77.1055 155.307 77.1055Z" fill="#256653"/>
<path d="M117.811 149.598C116.751 155.636 116.678 161.272 116.703 161.947C116.715 162.272 117.453 163.718 117.474 164.053C114.304 170.717 108.39 173.171 103.182 174.551C105.371 171.411 108.847 168.168 108.878 167.3C108.928 165.917 109.428 159.709 108.668 151.384C112.241 152.277 114.24 150.648 117.811 149.598Z" fill="#F7A491"/>
<path d="M167.342 74.3389L169.622 79.8804C169.88 80.5079 170.177 81.1183 170.491 81.7199C175.492 91.3024 171.276 103.623 161.1 107.572C161.043 107.594 160.988 107.615 160.933 107.637C155.467 109.756 124.084 117.178 123.389 117.893C122.873 118.424 120.37 140.822 119.674 153.041C116.5 154.403 110.662 154.609 107.447 154.145C105.894 137.147 106.74 109.587 108.076 106.349C110.252 101.076 167.342 74.3389 167.342 74.3389Z" fill="#327F6B"/>
<path d="M116.222 162.135C117.058 161.212 120.125 166.293 120.892 167.377C121.754 168.596 121.509 169.515 121.405 169.706C121.133 170.209 104.957 179.729 101.011 180.407C100.639 180.471 99.993 180.235 99.8306 180.091C98.2886 178.726 105.386 168.645 108.573 167.321C110.632 166.464 112.463 166.289 116.222 162.135Z" fill="#13375B"/>
<path d="M89.578 153.349C90.5718 152.598 92.6333 158.164 93.1832 159.372C93.8019 160.732 93.3886 161.589 93.2515 161.757C92.89 162.2 75.2163 168.519 71.2141 168.445C70.8361 168.438 70.2459 168.086 70.1132 167.914C68.8543 166.283 77.7142 157.712 81.0926 157.008C83.276 156.553 85.1076 156.723 89.578 153.349Z" fill="#13375B"/>
<path d="M155.17 32.8761H155.17C154.986 32.8774 154.723 32.8128 154.454 32.7282C153.135 32.4921 150.251 32.1467 148.007 33.0939C145.278 34.2455 141.049 45.0069 141.3 56.053C141.402 57.7416 141.504 59.2534 141.591 60.3076C142.28 68.6514 144.673 84.3082 144.802 84.3916C148.058 86.4874 167.91 79.738 169.26 77.9533C170.61 76.1683 171.196 53.1043 171.852 52.0229L173.142 33.1614C170.865 32.4809 158.662 32.8515 155.17 32.8761Z" fill="#9BC1F9"/>
<path d="M163.13 25.9303C163.13 25.9303 161.865 32.4736 162.118 35.0546C162.372 37.6355 161.154 45.954 155.692 45.9814C150.231 46.0088 154.655 35.4055 155.17 32.8762C155.684 30.3469 155.806 22.5176 155.806 22.5176L163.13 25.9303Z" fill="#F7A491"/>
<path d="M155.693 26.4458C155.778 24.3041 155.806 22.5176 155.806 22.5176L163.13 25.9303C163.13 25.9303 162.871 27.268 162.611 28.9729C159.405 29.6175 157.082 28.4306 155.693 26.4458Z" fill="#F47458"/>
<path d="M165.807 7.87133C165.807 7.87133 168.629 9.43758 169.661 12.8319C170.692 16.2263 169.518 24.9853 162.228 27.0989C154.937 29.2123 151.779 22.2767 153.281 16.8542C154.782 11.4315 158.049 4.56475 165.807 7.87133Z" fill="#F7A491"/>
<path d="M152.369 14.7528C152.512 16.2091 153.315 17.3223 154.163 17.2392C155.012 17.1558 155.583 15.9076 155.441 14.4515C155.298 12.9949 154.494 11.8817 153.646 11.9648C152.798 12.0482 152.226 13.2962 152.369 14.7528Z" fill="#F7A491"/>
<path d="M164.952 7.4292C164.952 7.4292 166.274 17.2004 169.432 18.9635C172.59 20.7264 171.269 25.061 171.269 25.061C171.269 25.061 174.133 14.9961 171.636 11.7634C169.139 8.53126 164.952 7.4292 164.952 7.4292Z" fill="#13375B"/>
<path d="M167.562 20.3659C166.705 21.639 166.708 23.1403 167.569 23.7193C168.429 24.2985 169.82 23.7357 170.677 22.4626C171.533 21.1894 171.53 19.6881 170.67 19.1092C169.809 18.5302 168.418 19.0929 167.562 20.3659Z" fill="#F7A491"/>
<path d="M156.94 20.9097L162.078 22.2033C162.078 22.2033 161.46 24.1553 159.184 23.6529C156.408 23.0397 156.94 20.9097 156.94 20.9097Z" fill="white"/>
<path d="M205.102 102.426C205.011 102.192 204.806 102.187 204.596 102.181C202.563 102.118 200.532 102.027 198.516 101.726C198.18 101.675 197.848 101.6 197.539 101.476C196.978 101.252 196.424 101.257 195.858 101.414C195.552 101.499 195.24 101.515 194.924 101.514C193.902 101.509 190.985 100.517 189.487 100.255C189.145 100.195 188.873 99.9361 188.788 99.5991C187.314 93.7683 184.153 80.6865 183.743 76.3847C183.219 70.8835 179.421 46.0811 179.421 46.0811L169.26 48.9156C169.26 48.9156 173.442 67.2237 174.599 76.1011C175.491 82.956 182.34 97.5024 184.487 101.685C185.536 104.798 187.889 104.885 188.436 104.952C188.749 104.99 189.036 105.144 189.241 105.383C189.612 105.815 190.037 106.191 190.523 106.498C190.883 106.726 191.161 107.022 191.398 107.369C191.83 108 192.216 108.658 192.598 109.319C192.851 109.757 193.116 109.896 193.492 109.793C193.896 109.682 194.088 109.384 194.08 108.893C194.069 108.167 193.837 107.51 193.473 106.89C193.131 106.31 193.156 105.973 193.554 105.439C193.782 105.132 194.018 104.835 194.317 104.591C194.622 104.343 194.943 104.154 195.356 104.212C196.087 104.395 196.823 104.543 197.572 104.626L198.187 104.751C198.209 104.754 198.523 104.822 198.523 104.822C198.575 104.836 199.656 104.954 200.026 104.954C200.323 104.955 200.805 104.975 201.215 104.994C201.586 105.012 202.37 104.819 202.397 104.818C202.758 104.81 203.077 104.679 203.346 104.437C203.456 104.339 203.562 104.227 203.506 104.059C203.454 103.905 203.333 103.839 203.176 103.81C202.932 103.767 201.67 103.613 201.684 103.56C202.059 103.56 203.232 103.532 203.607 103.522C204.112 103.508 204.549 103.328 204.897 102.954C205.035 102.807 205.194 102.661 205.102 102.426Z" fill="#F7A491"/>
<path d="M173.265 33.1208C178.281 32.2087 182.418 54.654 182.418 54.654C182.418 54.654 171.276 57.7656 168.42 56.1337C168.42 56.1337 165.18 41.7659 164.019 42.2679L173.265 33.1208Z" fill="#9BC1F9"/>
</svg>
