<svg width="529" height="336" viewBox="0 0 529 336" fill="none" xmlns="http://www.w3.org/2000/svg">
<g opacity="0.3">
<path d="M265.721 336C410.832 336 528.467 319.383 528.467 298.886C528.467 278.388 410.832 261.771 265.721 261.771C120.61 261.771 2.9751 278.388 2.9751 298.886C2.9751 319.383 120.61 336 265.721 336Z" fill="#887EAF"/>
</g>
<path d="M203.245 82.1974C203.245 82.1974 167.671 32.5713 157.165 34.3691C151.912 35.2681 150.035 47.1441 144.478 56.4967C138.92 65.8494 129.682 72.6789 130.227 77.0891C131.317 85.9091 203.245 82.1974 203.245 82.1974Z" fill="#FF6A51"/>
<path d="M198.34 85.9959C198.34 85.9959 227.86 26.1978 239.591 23.7364C252.583 21.0104 248.018 36.8199 256.065 46.0353C264.112 55.2508 280.953 52.1891 278.063 65.5138C275.945 75.2806 198.34 85.9959 198.34 85.9959Z" fill="#FF6A51"/>
<path d="M208.944 81.9877C212.873 78.0592 212.872 71.6898 208.944 67.7613C205.016 63.8328 198.646 63.8328 194.718 67.7613C190.789 71.6898 190.789 78.0592 194.718 81.9877C198.646 85.9162 205.016 85.9162 208.944 81.9877Z" fill="#FF6A51"/>
<path d="M217.451 283.189L180.561 283.431L159.618 283.568L146.738 283.652L144.74 283.665L138.675 283.706L118.22 283.839L103.32 283.938L68.7091 284.163L59.4335 284.223L59.2672 247.368L59.1134 214.202L58.9514 179.445L58.7361 131.766L58.6643 116.126L58.6601 115.024L58.6416 111.022L58.582 97.6832H58.5884L89.2338 97.48L111.01 97.3364L113.389 97.3201L123.383 97.2544L136.669 97.1662L142.734 97.1252L147.101 97.0964H147.112L151.44 97.0678L158.773 97.0226H158.783L166.84 96.9692L184.227 96.8586H184.235L191.139 96.8112L206.156 96.7108L216.614 96.639L216.616 97.3015L216.673 110.095L216.677 110.682L216.692 113.986L216.7 115.8L216.716 119.709L216.747 126.696L217.116 209.949L217.451 283.189Z" fill="#C1B2FF"/>
<path d="M158.869 115.529H158.849L157.158 115.539L111.453 115.812L89.6746 115.941L58.6641 116.126L58.66 115.024L58.6414 111.022L56.6599 111.035L56.5801 95.5129L89.1824 95.3181L110.962 95.1889L151.429 94.9467L158.762 94.9037L158.773 97.0227L158.777 97.6832L158.842 110.434L158.847 111.022L158.849 111.42L158.869 115.529Z" fill="#AB9FF9"/>
<path d="M223.578 110.054L216.673 110.095L211.543 110.124L185.544 110.278L159.288 110.431L158.851 110.434H158.826L151.509 110.477L111.324 110.712L105.724 110.745L99.6582 110.782L89.5434 110.842L58.6415 111.022L56.66 111.035L51.3247 111.065L51.1606 78.4035L99.4304 78.1205L105.498 78.0834L130.574 77.9359L151.341 77.8148L185.56 77.6138H185.781L192.14 77.5747L196.518 77.5501L199.82 77.5296L202.667 77.5132L204.415 77.5029L206.273 77.4927L209.377 77.4744L211.557 77.4619L223.413 77.3921L223.436 82.0156L223.479 90.4278L223.502 95.1334L223.514 97.2565L223.578 110.054Z" fill="#C1B2FF"/>
<path d="M317.637 283.189L280.747 283.433L244.928 283.666L238.861 283.706L159.619 284.223L159.453 247.369L159.138 179.446L158.847 115.024L158.77 97.6834H158.774L213.575 97.3208L223.57 97.2555L236.855 97.1667L242.921 97.1268L247.288 97.0978H247.299L284.414 96.8601H284.422L316.8 96.6406L316.878 113.987L316.903 119.711L317.303 209.951L317.637 283.189Z" fill="#8A80EE"/>
<path d="M316.81 94.6366L158.783 95.4425L158.888 116.068L316.915 115.262L316.81 94.6366Z" fill="#746EE1"/>
<path d="M323.764 110.055L243.035 110.528L236.97 110.563L151.511 111.066L151.341 77.7783L236.738 77.2778L242.806 77.2409L323.596 76.767L323.764 110.055Z" fill="#8A80EE"/>
<path d="M268.372 283.627V283.666L242.113 283.707C239.547 244.954 237.46 206.203 235.844 167.448C235.187 151.711 234.601 135.975 234.104 120.234C234.05 118.327 233.988 116.418 233.926 114.512C233.846 112.013 233.775 109.517 233.704 107.016C233.606 103.733 233.518 100.45 233.429 97.1667V97.1645C233.34 94.0787 233.26 90.9928 233.18 87.9048C233.118 85.4177 233.056 82.9263 233.002 80.4392C232.976 79.3861 232.949 78.3331 232.922 77.2822L259.19 77.241C259.199 77.8971 259.217 78.5556 259.235 79.2118C259.261 80.4806 259.288 81.7493 259.324 83.0203C259.439 87.7237 259.554 92.4247 259.687 97.1257C259.714 98.227 259.75 99.3258 259.776 100.425C259.909 105.11 260.043 109.79 260.185 114.471V114.473C260.247 116.382 260.309 118.286 260.362 120.195C260.94 138.104 261.615 156.011 262.387 173.921C263.959 210.492 265.966 247.058 268.372 283.627Z" fill="#F25242"/>
<path d="M118.222 283.87V283.909L96.4414 283.95C94.3128 245.257 92.5818 206.566 91.2411 167.873C90.6961 152.159 90.2099 136.447 89.7975 120.729C89.7534 118.827 89.7019 116.921 89.6502 115.017C89.6502 114.929 89.6428 114.844 89.6428 114.757C89.5765 112.351 89.525 109.944 89.466 107.533C89.3851 104.254 89.3113 100.978 89.2376 97.6993V97.6971C89.1641 94.6158 89.0977 91.5346 89.0314 88.4511C88.9799 85.9686 88.9284 83.4818 88.8841 80.9971C88.8621 80.0725 88.8472 79.1502 88.8252 78.2255L110.613 78.1842C110.62 78.7142 110.627 79.2418 110.642 79.7719C110.664 81.0383 110.686 82.3048 110.716 83.5736C110.811 88.27 110.907 92.9642 111.018 97.6583C111.04 98.7571 111.069 99.8538 111.091 100.953C111.202 105.544 111.305 110.13 111.423 114.716C111.423 114.803 111.43 114.889 111.43 114.976V114.978C111.482 116.884 111.533 118.786 111.578 120.691C112.056 138.572 112.616 156.452 113.257 174.334C114.561 210.849 116.225 247.359 118.222 283.87Z" fill="#FF6A51"/>
<path d="M264.314 51.2847C258.922 49.0793 252.504 51.2578 247.28 52.9991C241.657 54.873 236.246 57.3896 231.191 60.483C228.35 62.2212 225.631 64.1467 223.032 66.2288C222.774 66.435 223.139 66.7959 223.394 66.5914C229.215 61.9284 235.694 58.0998 242.599 55.2784C245.934 53.9162 249.363 52.7841 252.855 51.9009C256.559 50.9639 260.524 50.2848 264.178 51.7793C264.483 51.9039 264.616 51.4082 264.314 51.2847Z" fill="white"/>
<path d="M207.599 66.5201C209.66 69.3984 210.908 72.7297 211.22 76.2577C211.249 76.5839 211.762 76.5869 211.733 76.2577C211.413 72.6409 210.156 69.2147 208.042 66.2613C207.851 65.9953 207.406 66.251 207.599 66.5201Z" fill="white"/>
<path d="M136.448 65.9306C142.071 61.9787 149.127 60.1935 155.949 61.1768C162.361 62.1009 168.3 65.3899 172.56 70.2532C172.778 70.5019 173.14 70.138 172.923 69.8905C168.534 64.8812 162.376 61.5213 155.764 60.6378C148.91 59.7218 141.836 61.5191 136.189 65.4878C135.921 65.6761 136.177 66.1211 136.448 65.9306Z" fill="white"/>
<path d="M191.169 74.1313C191.169 74.1313 160.099 89.077 151.994 134.279L167.529 127.66L176.293 141.002C176.293 141.002 188.467 88.2895 205.016 77.6562L191.169 74.1313Z" fill="#FF6A51"/>
<path d="M205.62 75.2328C205.62 75.2328 233.547 88.6667 240.833 129.297L226.869 123.347L218.992 135.34C218.992 135.34 208.049 87.9589 193.174 78.4011L205.62 75.2328Z" fill="#FF6A51"/>
<path d="M197.677 85.5833C200.191 81.6353 203.899 78.589 208.266 76.9001C208.57 76.7822 208.438 76.2862 208.129 76.4056C203.632 78.1449 199.824 81.2565 197.234 85.3245C197.056 85.6036 197.5 85.861 197.677 85.5833Z" fill="white"/>
<path d="M184.821 78.5371C188.609 75.9143 193.273 75.2383 197.777 75.0159C199.691 74.9214 201.622 75.019 203.517 75.3011C204.963 75.5163 206.913 75.7729 208.016 76.834C208.254 77.0629 208.617 76.7007 208.379 76.4713C207.321 75.4545 205.615 75.1442 204.229 74.9003C202.198 74.5431 200.113 74.4076 198.053 74.4898C193.385 74.6762 188.485 75.3777 184.562 78.0939C184.293 78.2807 184.549 78.7254 184.821 78.5371Z" fill="white"/>
<path d="M410.741 291.219L385.002 291.416L370.391 292.054L338.578 292.03L321.112 292.015H320.78L306.961 292.005L300.489 292.054L300.372 262.326L300.265 235.571L300.153 207.535L300.003 169.072L299.968 160.176L299.949 155.608V155.567L299.894 141.58H299.898L320.78 141.419L338.133 141.288L338.578 141.284L345.107 141.235L354.377 141.163L358.609 141.13L361.657 141.108H361.663L364.674 141.085L369.794 141.046L387.56 140.915H387.566L410.156 140.739L410.158 141.27V141.272L410.212 154.73L410.214 155.261L410.228 159.347L410.23 159.879L410.507 232.142L410.741 291.219Z" fill="#FF6A51"/>
<path d="M369.866 159.635L338.578 159.877L320.78 160.014L299.968 160.176L299.949 155.608H298.553L298.497 141.576L320.78 141.403L338.578 141.266L364.674 141.065L369.794 141.026V141.046L369.85 155.569L369.866 159.635Z" fill="#F25647"/>
<path d="M364.731 155.608H294.832L294.712 125.574L320.78 125.453L338.578 125.371L364.613 125.25L364.674 141.065V141.085L364.731 155.608Z" fill="#FF6A51"/>
<path d="M480.643 291.22L454.904 291.416L429.912 291.605L425.679 291.637L370.39 292.054L370.274 262.326L370.054 207.535L369.852 155.568L369.797 141.58H369.801L408.036 141.288L415.01 141.235L424.279 141.163L428.511 141.131L431.559 141.108H431.566L457.463 140.916H457.468L480.059 140.739L480.113 154.732L480.13 159.349L480.41 232.142L480.643 291.22Z" fill="#F55748"/>
<path d="M480.059 140.739L480.132 159.348L369.874 160.185L369.801 141.576L480.059 140.739Z" fill="#E13C36"/>
<path d="M484.918 154.693L364.733 155.608L364.613 125.249L484.798 124.334L484.918 154.693Z" fill="#F55748"/>
<path d="M438.596 291.539L420.798 291.674V124.334H438.596V291.539Z" fill="#FFA051"/>
<path d="M338.578 125.371V292.054L320.78 292.015V125.453L338.578 125.371Z" fill="#FFBF61"/>
<path d="M249.729 305.894L221.986 306.05L206.236 306.138L196.55 306.192L195.049 306.2L190.487 306.226L137.871 306.522L130.894 306.559L130.769 282.818L130.654 261.452L130.533 239.06L130.371 208.345L130.334 201.24L130.314 197.562V197.56L130.256 186.389H130.258L171.47 186.155L178.988 186.114L188.977 186.057L193.539 186.03L196.823 186.011H196.831L200.079 185.993L205.594 185.964L218.406 185.894L224.743 185.86H224.749L233.317 185.81L244.668 185.745L249.099 185.718L249.101 186.143V186.145L249.157 196.891L249.159 197.316L249.167 198.754L249.175 200.579L249.177 201.004L249.396 243.483L249.402 244.472L249.476 258.713L249.573 276.928L249.579 277.923L249.729 305.894Z" fill="#FFBF61"/>
<path opacity="0.2" d="M225.731 290.169C241.936 290.169 255.072 277.033 255.072 260.828C255.072 244.624 241.936 231.488 225.731 231.488C209.527 231.488 196.391 244.624 196.391 260.828C196.391 277.033 209.527 290.169 225.731 290.169Z" fill="white"/>
<path opacity="0.2" d="M172.349 234.832C172.349 251.036 159.213 264.172 143.009 264.172C138.595 264.172 134.409 263.198 130.654 261.451L130.533 239.061L130.372 208.345C134.199 206.516 138.484 205.491 143.009 205.491C159.213 205.491 172.349 218.627 172.349 234.832Z" fill="white"/>
<path opacity="0.2" d="M196.551 306.193L195.049 306.201L190.486 306.226L137.872 306.521C137.893 290.334 151.021 277.219 167.212 277.219C183.294 277.219 196.354 290.158 196.551 306.193Z" fill="white"/>
<path d="M205.674 200.809L130.334 201.24L130.314 197.562L128.811 197.57L128.751 186.387L200.079 185.979L205.595 185.948V185.964L205.654 197.137L205.656 197.562L205.674 200.809Z" fill="#FFB146"/>
<path d="M254.336 196.862L249.157 196.891L248.611 196.895L229.198 197.004L213.391 197.094L205.658 197.137H205.654L200.138 197.168L130.314 197.562L128.81 197.57L124.798 197.593L124.671 173.608L201.088 173.179L229.475 173.019L235.715 172.984L236.878 172.976L240.691 172.955H240.697L241.192 172.953L241.368 172.951L246.119 172.925L247.212 172.918L254.209 172.879L254.211 173.302L254.215 174.188L254.246 179.911L254.279 186.112V186.114L254.336 196.862Z" fill="#FFBF61"/>
<path d="M325.071 305.894L297.329 306.05L270.392 306.201L265.829 306.227L206.238 306.56L206.113 282.818L205.876 239.062L205.657 197.561L205.599 186.39H205.602L246.814 186.156L254.33 186.114L264.321 186.057L268.882 186.031L272.167 186.012H272.175L300.086 185.859H300.092L324.441 185.718L324.5 196.892L324.519 200.58L324.82 258.713L325.071 305.894Z" fill="#FFA051"/>
<path opacity="0.3" d="M325.071 305.894L297.33 306.05C291.813 299.126 289.466 289.751 291.781 280.463C295.515 265.485 310.011 256.128 324.821 258.713L325.071 305.894Z" fill="white"/>
<path opacity="0.3" d="M253.45 267.993C249.535 283.699 233.762 293.23 218.232 289.275C213.58 288.09 209.476 285.832 206.113 282.818L205.875 239.061C212.827 232.726 222.661 229.9 232.412 232.384C247.943 236.339 257.367 252.279 253.45 267.993Z" fill="white"/>
<path opacity="0.3" d="M315.292 211.937C315.454 195.736 302.598 182.473 286.578 182.313C270.558 182.153 257.439 195.156 257.277 211.357C257.115 227.557 269.971 240.82 285.991 240.98C302.011 241.14 315.13 228.137 315.292 211.937Z" fill="white"/>
<path d="M324.451 185.734L205.611 186.364L205.69 201.226L324.53 200.596L324.451 185.734Z" fill="#FF9534"/>
<path d="M329.549 172.891L200.008 173.616L200.142 197.602L329.683 196.876L329.549 172.891Z" fill="#FFA051"/>
<path d="M241.736 174.387C241.736 174.387 220.66 144.985 214.435 146.05C211.323 146.583 210.211 153.619 206.918 159.16C203.626 164.702 198.152 168.748 198.475 171.36C199.121 176.586 241.736 174.387 241.736 174.387Z" fill="#FF6A51"/>
<path d="M238.83 176.638C238.83 176.638 256.319 141.209 263.269 139.751C270.967 138.136 268.262 147.502 273.03 152.962C277.797 158.422 287.775 156.608 286.063 164.503C284.808 170.289 238.83 176.638 238.83 176.638Z" fill="#FF6A51"/>
<path d="M246.79 171.003C247.317 167.754 245.111 164.692 241.862 164.165C238.612 163.638 235.551 165.844 235.024 169.093C234.496 172.342 236.703 175.404 239.952 175.931C243.201 176.459 246.263 174.252 246.79 171.003Z" fill="#FF6A51"/>
<path d="M277.917 156.072C275.868 155.262 273.69 155.518 271.595 156.01C269.324 156.542 267.096 157.276 264.938 158.158C260.804 159.849 256.947 162.14 253.458 164.926C253.306 165.048 253.522 165.262 253.673 165.141C257.118 162.39 260.937 160.122 265.019 158.451C266.908 157.678 268.848 157.03 270.823 156.516C273.127 155.915 275.548 155.461 277.836 156.365C278.018 156.437 278.097 156.143 277.917 156.072Z" fill="white"/>
<path d="M202.161 164.749C208.904 160.055 218.117 161.155 223.556 167.311C223.686 167.457 223.9 167.242 223.771 167.096C218.248 160.845 208.856 159.72 202.007 164.487C201.848 164.598 202 164.861 202.161 164.749Z" fill="white"/>
<path d="M234.581 169.608C234.581 169.608 216.173 178.463 211.371 205.244L220.575 201.322L225.767 209.227C225.767 209.227 232.98 177.997 242.784 171.697L234.581 169.608Z" fill="#FF6A51"/>
<path d="M243.142 170.261C243.142 170.261 259.688 178.22 264.005 202.292L255.732 198.767L251.064 205.872C251.064 205.872 244.581 177.801 235.769 172.138L243.142 170.261Z" fill="#FF6A51"/>
<path d="M238.437 176.393C239.947 174.048 242.114 172.268 244.71 171.248C244.89 171.178 244.812 170.884 244.63 170.955C241.955 172.006 239.731 173.824 238.174 176.239C238.068 176.404 238.331 176.557 238.437 176.393Z" fill="white"/>
<path d="M230.82 172.218C233.038 170.708 235.697 170.287 238.326 170.142C239.389 170.083 240.456 170.117 241.513 170.248C242.49 170.37 243.801 170.516 244.562 171.209C244.706 171.341 244.922 171.127 244.777 170.994C244.155 170.428 243.239 170.235 242.437 170.085C241.19 169.852 239.903 169.771 238.636 169.822C235.863 169.934 233.005 170.364 230.666 171.956C230.506 172.065 230.658 172.329 230.82 172.218Z" fill="white"/>
<path d="M95.4873 56.0378C95.4873 56.0378 102.447 52.9452 103.997 46.7448L111.155 50.0433C111.155 50.0433 108.611 57.9565 101.29 60.657L95.4873 56.0378Z" fill="#FF6A51"/>
<path d="M58.8651 23.4248C58.8651 23.4248 62.5689 30.0798 68.8833 31.0676L66.2393 38.4922C66.2393 38.4922 58.1302 36.668 54.7847 29.6185L58.8651 23.4248Z" fill="#FFBF61"/>
<path d="M355.557 98.0246C355.557 98.0246 349.191 102.354 348.767 108.801L341.053 106.809C341.053 106.809 342.158 98.48 348.953 94.4753L355.557 98.0246Z" fill="#FF6A51"/>
<path d="M21.8147 148.964C21.8147 148.964 24.4397 156.202 30.5819 158.204L26.7483 165.187C26.7483 165.187 18.9495 162.061 16.7456 154.488L21.8147 148.964Z" fill="#C1B2FF"/>
<path d="M307.963 51.5227C307.963 51.5227 311.097 44.4906 308.065 38.7861L315.672 36.4197C315.672 36.4197 319.117 44.083 315.447 51.0647L307.963 51.5227Z" fill="#FFBF61"/>
<path d="M467.089 96.3737C467.089 96.3737 473.527 100.596 479.644 98.5188L480.759 106.407C480.759 106.407 472.642 108.577 466.34 103.833L467.089 96.3737Z" fill="#C1B2FF"/>
<path d="M199.448 0C199.448 0 203.952 6.24325 210.408 6.48917L208.631 14.255C208.631 14.255 200.274 13.3816 196.083 6.69995L199.448 0Z" fill="#C1B2FF"/>
<path d="M369.006 34.9281C365.563 37.0532 361.741 39.8735 359.624 43.4167C358.221 45.765 358.154 49.2224 360.929 50.6399C363.535 51.9714 365.983 49.4568 365.643 46.8111C365.258 43.8169 361.891 42.6842 359.275 43.3076C355.782 44.14 352.755 47.7291 350.887 50.6364C349.122 53.384 348.159 56.7374 349.575 59.8488C350.687 62.2915 353.358 64.4627 356.19 63.6215C358.823 62.8392 359.092 59.4361 356.918 57.9216C353.816 55.7605 350.075 58.8064 349.113 61.7604C347.749 65.9521 350.103 69.9341 353.152 72.6859C353.904 73.3643 354.851 72.1061 354.102 71.4304C352.135 69.6544 350.393 67.3061 350.282 64.5576C350.192 62.3555 351.281 59.8579 353.463 59.0536C354.648 58.6168 356.255 58.8339 356.716 60.1645C357.254 61.7177 355.618 62.3928 354.309 62.1434C352.333 61.7672 350.998 59.7844 350.585 57.9358C349.607 53.554 353.585 48.9733 356.723 46.4166C358.478 44.986 361.611 43.6866 363.472 45.7345C364.225 46.5634 364.32 47.8916 363.614 48.7873C362.711 49.9331 361.328 49.3372 360.656 48.272C359.166 45.9068 361.488 43.2768 363.063 41.6525C365.12 39.5322 367.465 37.7185 369.976 36.1691C370.836 35.6384 369.862 34.4001 369.006 34.9281Z" fill="#FF6A51"/>
<path d="M107.335 6.63736C110.291 7.14577 113.699 8.02731 116.135 9.87812C117.749 11.1046 118.751 13.4634 117.236 15.2056C115.812 16.8419 113.433 15.7904 112.936 13.8769C112.372 11.7117 114.373 10.0016 116.344 9.70661C118.976 9.31254 122.051 10.9427 124.139 12.425C126.113 13.8259 127.702 15.8652 127.589 18.3961C127.501 20.3833 126.265 22.6149 124.086 22.82C122.059 23.0105 120.933 20.7451 122.008 19.1025C123.543 16.7585 126.958 17.8177 128.436 19.5827C130.534 22.0873 130.017 25.4766 128.682 28.212C128.353 28.8863 127.353 28.2832 127.681 27.6115C128.543 25.8461 129.09 23.7498 128.406 21.8291C127.859 20.2902 126.419 18.8742 124.696 18.9251C123.76 18.9526 122.716 19.5463 122.767 20.5887C122.827 21.8054 124.139 21.8169 124.97 21.2834C126.224 20.4782 126.594 18.7455 126.366 17.3603C125.826 14.077 121.824 12.0279 118.96 11.138C117.357 10.6401 114.843 10.6135 114.13 12.5363C113.842 13.3144 114.144 14.2542 114.877 14.6747C115.815 15.2126 116.601 14.42 116.768 13.5018C117.139 11.4634 114.815 10.2973 113.282 9.61627C111.281 8.72731 109.167 8.12921 107.012 7.75848C106.274 7.63149 106.601 6.51102 107.335 6.63736Z" fill="#FFBF61"/>
<path d="M35.767 124.475C34.0831 120.796 31.7564 116.654 28.5017 114.117C26.3445 112.435 22.9218 111.942 21.1727 114.52C19.5298 116.942 21.723 119.682 24.3903 119.67C27.4092 119.658 28.9488 116.457 28.6529 113.784C28.258 110.215 25.0702 106.768 22.4156 104.555C19.9069 102.465 16.698 101.095 13.4356 102.117C10.8743 102.919 8.39008 105.3 8.87514 108.215C9.32639 110.924 12.6704 111.611 14.4415 109.641C16.969 106.83 14.4084 102.741 11.5955 101.422C7.60432 99.551 3.362 101.396 0.254997 104.082C-0.510899 104.744 0.620707 105.839 1.38377 105.179C3.38906 103.446 5.93441 102.008 8.6757 102.236C10.8721 102.419 13.2161 103.808 13.7448 106.073C14.032 107.303 13.6182 108.871 12.2409 109.164C10.6332 109.506 10.1654 107.799 10.5743 106.531C11.1916 104.617 13.3241 103.536 15.2094 103.355C19.6784 102.925 23.7331 107.438 25.8828 110.867C27.0858 112.786 27.9885 116.056 25.7266 117.649C24.811 118.294 23.4811 118.225 22.6796 117.414C21.654 116.376 22.4162 115.077 23.5563 114.542C26.0873 113.355 28.4107 115.983 29.8282 117.748C31.6783 120.051 33.1887 122.602 34.4163 125.284C34.8364 126.203 36.1853 125.389 35.767 124.475Z" fill="#FF6A51"/>
<path d="M390.524 162.293C390.698 163.342 390.874 164.364 391.005 165.317C391.082 165.886 390.749 166.433 390.208 166.623C388.837 167.103 387.329 167.112 385.911 167.471C380.733 168.778 376.49 168.639 371.779 169.224C371.294 169.285 370.749 169.331 370.413 168.885C370.201 168.602 370.171 168.224 370.288 167.89C370.527 167.215 371.15 166.858 371.745 166.536C374.635 164.971 377.785 163.364 379.765 160.851C379.827 160.772 379.888 160.691 379.949 160.61C380.363 160.052 380.719 159.45 381.003 158.794C381.223 158.288 381.394 157.751 381.459 157.205C381.482 157.016 381.493 156.827 381.487 156.637C381.487 156.563 381.064 151.027 381.057 150.953L383.126 156.107L383.601 156.018L390.082 152.316C389.963 154.697 389.941 158.431 390.218 160.343C390.312 160.998 390.418 161.65 390.524 162.293Z" fill="#FBC7B1"/>
<path d="M395.272 123.846C395.272 123.846 390.225 142.521 390.049 153.419C389.97 158.266 388.775 158.997 386.344 159.185C380.023 159.675 382.296 156.476 380.451 147.021C378.299 135.989 378.205 118.042 380.182 113.313C383.289 105.879 395.395 118.845 395.272 123.846Z" fill="#FBC7B1"/>
<path d="M369.56 168.868C373.23 169.401 376.923 169.019 380.558 168.415C384.014 167.84 387.455 167.198 390.935 166.772C391.325 166.724 391.327 167.337 390.94 167.384C387.288 167.832 383.684 168.536 380.052 169.113C376.52 169.675 372.96 169.976 369.403 169.459C369.014 169.403 369.174 168.811 369.56 168.868Z" fill="#353659"/>
<path d="M390.331 161.094C390.331 161.094 392.081 164.989 390.697 166.929L384.605 167.826C384.605 167.826 384.933 164.496 390.331 161.094Z" fill="#353659"/>
<path d="M379.625 168.753C379.625 168.753 375.932 164.125 374.088 164.951C373.011 165.435 372.082 166.215 370.172 167.147C368.676 167.877 367.86 169.312 371.724 169.415C375.59 169.519 379.625 168.753 379.625 168.753Z" fill="#353659"/>
<path d="M410.64 158.384C411.21 159.282 411.771 160.153 412.263 160.98C412.556 161.474 412.464 162.108 412.039 162.493C410.965 163.471 409.58 164.069 408.415 164.952C404.158 168.177 400.198 169.706 396.089 172.085C395.666 172.329 395.183 172.585 394.7 172.306C394.394 172.128 394.219 171.792 394.196 171.438C394.152 170.724 394.586 170.152 395.008 169.623C397.058 167.054 399.331 164.344 400.172 161.258C400.199 161.161 400.223 161.062 400.247 160.964C400.41 160.288 400.503 159.595 400.509 158.88C400.513 158.328 400.461 157.767 400.307 157.239C400.255 157.057 400.191 156.879 400.112 156.705C400.082 156.638 397.531 151.706 397.496 151.64L401.414 155.578L401.816 155.311L406.337 149.371C407.158 151.609 408.595 155.056 409.597 156.708C409.939 157.274 410.291 157.834 410.64 158.384Z" fill="#FBC7B1"/>
<path d="M399.886 121.118C399.886 121.118 402.532 140.281 406.626 150.383C408.446 154.876 407.631 156.015 405.467 157.138C399.839 160.057 400.682 156.224 395.292 148.24C389.002 138.925 383.574 127.727 383.547 122.601C383.504 114.545 398.047 116.466 399.886 121.118Z" fill="#FBC7B1"/>
<path d="M394.547 171.994C398.027 171.08 401.18 169.34 404.198 167.423C407.068 165.601 409.898 163.724 412.845 162.025C413.175 161.834 413.409 162.38 413.081 162.57C409.989 164.353 407.036 166.348 404.012 168.239C401.069 170.079 398.004 171.697 394.63 172.583C394.262 172.68 394.181 172.091 394.547 171.994Z" fill="#353659"/>
<path d="M403.774 167.899C403.774 167.899 398.567 165.08 397.192 166.561C396.389 167.427 395.839 168.507 394.444 170.111C393.352 171.368 393.161 173.008 396.759 171.594C400.358 170.179 403.774 167.899 403.774 167.899Z" fill="#353659"/>
<path d="M432.506 98.9848C432.506 98.9848 439.595 111.125 436.93 120.048C433.363 131.995 405.901 127.679 401.388 130.33C401.388 130.33 400.131 123.488 395.22 121.865C390.309 120.241 380.354 122.503 377.989 117.092C377.989 117.092 378.959 110.554 387.019 107.564C393.093 105.31 403.823 103.111 408.548 100.627C409.635 100.056 410.956 100.247 411.84 101.099C412.75 101.978 414.54 98.4895 416.675 98.6058C429.055 99.2802 432.506 98.9848 432.506 98.9848Z" fill="#8A80EE"/>
<path d="M383.024 121.059C382.783 124.835 384.141 128.426 385.78 131.759C387.593 135.446 389.601 139.043 391.525 142.673C391.638 142.886 391.963 142.697 391.849 142.483C389.988 138.972 388.061 135.488 386.285 131.933C384.594 128.55 383.154 124.91 383.399 121.059C383.415 120.818 383.039 120.819 383.024 121.059Z" fill="#FC9171"/>
<path d="M401.856 64.1559C403.936 63.5585 401.985 79.7385 401.985 79.7385C401.985 79.7385 394.484 99.3736 384.602 93.0356C377.905 88.7403 377.242 67.885 377.242 67.885L382.583 64.9076C383.757 71.9988 390.416 80.9951 390.416 80.9951C390.416 80.9951 394.51 66.2664 401.856 64.1559Z" fill="#FBC7B1"/>
<path d="M427.36 69.0657L433.798 97.1322C433.798 97.1322 435.094 99.6437 430.318 101.575C419.443 105.973 408.338 99.9038 405.027 102.103C405.027 102.103 398.052 87.7481 397.88 76.7687C397.708 65.7894 398.51 64.2728 405.267 61.921C412.025 59.5692 427.36 69.0657 427.36 69.0657Z" fill="#403672"/>
<path d="M389.363 79.4305C391.66 81.9512 393.429 85.1224 393.078 88.6385C393.069 88.7326 392.921 88.7334 392.93 88.6385C393.277 85.1593 391.53 82.0291 389.258 79.5353C389.194 79.465 389.298 79.3598 389.363 79.4305Z" fill="#FC9171"/>
<path d="M402.973 71.074C402.973 71.074 405.112 79.5062 399.615 79.9782C394.118 80.4502 392.474 74.4773 392.474 74.4773C395.12 67.8358 400.161 64.3638 400.161 64.3638L402.973 71.074Z" fill="#403672"/>
<path d="M397.875 74.9521C397.892 76.7709 397.945 78.5889 398.033 80.4057C398.038 80.5011 397.89 80.5006 397.885 80.4057C397.797 78.5889 397.744 76.7711 397.727 74.9521C397.726 74.8568 397.874 74.8568 397.875 74.9521Z" fill="white"/>
<path d="M375.001 67.4576C375.001 67.4576 376.107 67.9302 376.708 68.2874C376.852 68.3725 376.968 68.4522 377.029 68.5159C377.065 68.5517 377.1 68.5909 377.133 68.6313C377.221 68.7365 377.444 69.1711 377.687 69.6717C377.858 70.0245 378.041 70.4099 378.193 70.7368C378.442 70.6931 378.738 70.6023 379.072 70.469C379.696 70.2192 382.613 65.0139 382.583 64.9074C382.073 63.1223 381.623 61.2652 381.404 60.973C380.763 60.1185 378.962 59.9706 378.962 59.9706L375.001 67.4576Z" fill="#FBC7B1"/>
<path d="M379.875 63.9366C380.43 63.7372 381.177 64.1352 381.626 62.8436C382.112 61.445 380.715 59.911 380.379 59.391C378.869 57.0534 378.711 55.7972 378.44 55.8181C376.633 55.9582 377.648 59.1466 378.11 60.4334C378.573 61.7201 379.319 64.1361 379.875 63.9366Z" fill="#FBC7B1"/>
<path d="M371.701 65.4712L376.556 67.9696C378.478 68.3517 380.134 65.3176 380.114 64.1168C380.092 62.8215 380.551 61.0264 378.416 60.0091C377.89 59.7586 377.208 59.5552 376.322 59.4182L372.022 59.9009C371.234 59.7442 372.919 60.5891 372.752 61.4298V63.6564C372.585 64.4969 370.913 65.3147 371.701 65.4712Z" fill="#FBC7B1"/>
<path d="M377.215 62.7563C378.052 63.9268 378.945 65.0318 380.242 65.7049C380.332 65.7514 380.388 65.6043 380.299 65.5581C379.029 64.8993 378.155 63.8015 377.339 62.6592C377.28 62.5765 377.156 62.6741 377.215 62.7563Z" fill="#F69582"/>
<path d="M373.001 60.8807C371.298 60.5475 371.276 60.0565 371.389 59.4785C371.502 58.9003 371.707 58.4541 373.411 58.787C375.114 59.1202 377.056 59.6839 376.886 60.5536C376.728 61.359 374.704 61.2139 373.001 60.8807Z" fill="#FBC7B1"/>
<path d="M375.45 61.1016C376.02 61.2067 376.715 61.217 376.885 60.5318C376.989 60.1146 376.743 59.8846 376.405 59.6695C375.543 59.122 374.274 58.7567 373.252 58.6865C373.163 58.6804 373.147 58.8198 373.237 58.8261C373.907 58.8724 374.595 59.0908 375.227 59.3049C375.616 59.4367 376.028 59.582 376.371 59.8126C376.488 59.8914 376.648 59.9885 376.714 60.1175C376.896 60.472 376.303 60.9711 376.008 61.0175C375.834 61.0448 375.633 60.9929 375.465 60.9619C375.376 60.9455 375.361 61.0854 375.45 61.1016Z" fill="#F69582"/>
<path d="M372.183 65.6472C370.819 65.18 370.75 64.9629 370.844 64.4829C370.937 64.0028 371.108 63.6321 372.522 63.9088C373.937 64.1854 375.59 64.4752 375.408 65.3757C375.273 66.0434 373.918 66.2418 372.183 65.6472Z" fill="#FBC7B1"/>
<path d="M372.409 64.0249C370.706 63.6917 370.684 63.2009 370.797 62.6227C370.91 62.0444 371.116 61.5982 372.819 61.9312C374.522 62.2642 376.417 62.8202 376.294 63.6978C376.161 64.6457 374.113 64.3581 372.409 64.0249Z" fill="#FBC7B1"/>
<path d="M372.631 62.4433C370.927 62.1101 370.905 61.6194 371.018 61.0411C371.131 60.4629 371.337 60.0167 373.04 60.3497C374.743 60.6829 376.685 61.2465 376.515 62.1162C376.358 62.9214 374.334 62.7763 372.631 62.4433Z" fill="#FBC7B1"/>
<path d="M373.699 65.9971C374.262 66.1892 375.126 66.0955 375.41 65.4824C375.737 64.7778 374.86 64.4184 374.341 64.293C374.268 64.2753 374.256 64.3916 374.328 64.4088C374.592 64.4725 374.888 64.5402 375.1 64.7215C375.402 64.9801 375.427 65.3942 375.124 65.665C374.75 65.9997 374.2 66.0445 373.741 65.8882C373.671 65.8642 373.628 65.9729 373.699 65.9971Z" fill="#F69582"/>
<path d="M373.159 64.2218C373.813 64.3172 376.487 64.9528 376.427 63.5469C376.407 63.071 375.836 62.8556 375.474 62.7001C374.607 62.3271 373.707 62.0448 372.79 61.8231C372.703 61.8019 372.688 61.9416 372.775 61.9627C373.349 62.1015 373.915 62.2636 374.472 62.4603C374.882 62.6049 375.458 62.7448 375.803 63.0099C376.328 63.414 375.966 64.1906 375.393 64.2836C375.136 64.3252 374.866 64.3076 374.609 64.2849C374.129 64.2425 373.65 64.1513 373.174 64.0819C373.085 64.0691 373.07 64.2087 373.159 64.2218Z" fill="#F69582"/>
<path d="M375.078 62.6642C375.649 62.7694 376.344 62.7796 376.514 62.0944C376.617 61.6772 376.372 61.4472 376.034 61.2321C375.172 60.6846 373.903 60.3194 372.881 60.2491C372.791 60.243 372.776 60.3824 372.866 60.3887C373.536 60.4348 374.224 60.6534 374.856 60.8675C375.245 60.9993 375.657 61.1446 376 61.3752C376.117 61.454 376.277 61.5511 376.343 61.6801C376.525 62.0347 375.932 62.5337 375.637 62.5804C375.463 62.6077 375.262 62.5557 375.094 62.5247C375.005 62.5082 374.99 62.6478 375.078 62.6642Z" fill="#F69582"/>
<path d="M427.299 65.7139C427.299 65.7139 442.155 80.836 442.198 91.8318C442.235 101.297 423 108.932 423 108.932L417.195 104.862C417.195 104.862 430.642 92.4065 430.835 90.9164C431.228 87.8858 419.443 74.295 419.443 74.295L427.299 65.7139Z" fill="#FBC7B1"/>
<path d="M403.869 49.2674C404.224 49.3917 404.283 49.8622 404.285 50.239C404.287 51.0459 404.302 51.854 404.332 52.6609C404.458 56.1157 404.831 59.5635 405.449 62.9664C405.496 63.2294 405.563 63.5198 405.781 63.6749C405.944 63.7923 406.159 63.8052 406.36 63.8135C412.446 64.0457 418.575 63.0742 424.291 60.9782C424.334 60.9627 424.378 60.9474 424.422 60.9308C424.706 60.8265 424.989 60.7176 425.271 60.6074C425.316 60.5897 425.36 60.573 425.404 60.5542C425.724 60.4285 426.041 60.2995 426.358 60.1656C426.5 60.1051 426.646 60.0423 426.755 59.9334C426.892 59.7972 426.957 59.6063 427.01 59.4204C427.932 56.2237 426.583 52.5057 423.825 50.6445C422.402 49.6835 420.7 49.205 419.266 48.263C418.191 47.5545 417.249 46.4229 417.04 45.2038C416.971 44.7986 416.983 44.3837 417.098 43.9716L413.906 45.2369L412.471 45.8056L409.79 46.8684C407.816 47.6677 405.843 48.4674 403.869 49.2674Z" fill="#FF6A51"/>
<path d="M431.711 68.6136C432.639 69.5172 432.822 70.9377 432.156 72.0485C430.453 74.8893 422.98 80.6436 419.596 80.296L415.692 71.1679L410.971 61.228C410.971 61.228 419.145 59.3161 425.009 63.1085C427.637 64.8083 430.171 67.113 431.711 68.6136Z" fill="#403672"/>
<path d="M416.176 45.4791V45.4805C416.181 46.7432 416.394 48.0694 417.177 49.0891C418.116 50.3152 419.784 50.7366 421.063 51.5118C422.694 52.5033 423.872 53.8894 424.503 55.6968C425.05 57.2659 425.211 58.9367 425.283 60.5876C425.33 60.5693 425.375 60.5522 425.42 60.5326C425.283 57.5201 424.779 54.2667 422.324 52.2323C421.683 51.6999 420.966 51.2701 420.229 50.8867C419.455 50.4837 418.605 50.1736 417.912 49.63C416.585 48.5872 416.291 46.825 416.317 45.2252C416.317 45.1763 416.319 45.1287 416.321 45.0811C416.321 45.0591 416.321 45.0371 416.322 45.0152C416.322 45.0067 416.321 44.9982 416.319 44.9908C416.299 44.926 416.186 44.9334 416.183 45.0152C416.181 45.0678 416.18 45.1202 416.18 45.1728C416.178 45.1765 416.178 45.1802 416.18 45.1837C416.177 45.2812 416.176 45.3801 416.176 45.4791Z" fill="#DB4031"/>
<path d="M415.752 49.5982C416.255 50.994 417.368 52.0028 418.528 52.866C419.987 53.9516 421.526 54.9042 422.6 56.4123C423.558 57.7568 424.128 59.3344 424.273 60.9697C424.317 60.9537 424.363 60.9378 424.408 60.9208C424.284 59.5714 423.875 58.2611 423.194 57.0802C422.417 55.7356 421.318 54.7087 420.071 53.8038C418.727 52.8269 417.224 51.9159 416.329 50.4688C415.389 48.9521 415.37 47.0397 416.176 45.4802C416.221 45.3936 416.268 45.3081 416.318 45.2249C416.343 45.1798 416.37 45.1357 416.398 45.0918C416.414 45.0674 416.412 45.0443 416.401 45.0259C416.385 44.9991 416.351 44.9832 416.319 44.9906C416.304 44.9943 416.29 45.0041 416.278 45.0211C416.248 45.0687 416.22 45.1163 416.19 45.1652C416.187 45.1713 416.183 45.1774 416.18 45.1835C415.405 46.5121 415.227 48.1412 415.752 49.5982Z" fill="#DB4031"/>
<path d="M409.206 42.4758L412.472 45.8052L412.601 45.9367C413.107 46.2376 413.742 46.3598 414.404 46.3147C414.867 46.2839 415.344 46.17 415.798 45.9793C415.889 45.9413 415.977 45.9023 416.064 45.8573C416.192 45.7958 416.316 45.727 416.438 45.6511C416.442 45.6487 416.445 45.6463 416.449 45.6439C416.492 45.6179 416.534 45.5907 416.576 45.5621C416.602 45.5442 416.628 45.5276 416.653 45.5088C416.686 45.4864 416.718 45.4626 416.75 45.439C416.85 45.3644 416.946 45.285 417.04 45.2033C418.132 44.2317 418.708 42.7601 418.417 41.5956C418.404 41.5447 418.391 41.495 418.375 41.4463C418.36 41.3966 418.342 41.3468 418.323 41.2982C418.125 40.7686 417.772 40.3195 417.373 39.925C417.371 39.9226 417.37 39.9215 417.367 39.9191C417.277 39.8303 417.185 39.745 417.09 39.6621C417.086 39.6586 417.083 39.6549 417.079 39.6525C417.022 39.6027 416.965 39.554 416.906 39.5056C416.874 39.4807 416.845 39.4559 416.811 39.431L416.81 39.4299C416.737 39.3729 416.661 39.3162 416.583 39.2617C415.969 38.8303 415.259 38.5093 414.457 38.3836C413.289 38.2012 411.91 38.4724 410.814 39.2617C410.025 39.8292 409.425 40.6811 409.232 41.5212C409.21 41.622 409.192 41.7239 409.182 41.8245C409.175 41.8838 409.171 41.9429 409.169 42.0023C409.162 42.1642 409.175 42.3231 409.206 42.4758Z" fill="#FF6A51"/>
<path d="M409.349 42.0176C409.999 42.0824 410.651 42.1981 411.249 42.4612C411.779 42.6947 412.304 42.9945 412.675 43.4396C417.162 48.8221 413.664 53.5257 412.898 54.1474C412.214 54.7033 411.477 55.2569 410.61 55.4162C409.709 55.5816 408.787 55.2984 407.946 54.9355C406.483 54.304 405.129 53.419 403.964 52.3317L398.898 47.8941C398.909 46.7734 399.59 45.7646 400.385 44.9741C402.69 42.6814 406.114 41.6951 409.349 42.0176Z" fill="#FF6A51"/>
<path d="M405.961 61.6308C405.917 61.4885 405.871 61.3465 405.826 61.2042C405.546 60.3369 405.243 59.5044 405.042 58.9703C404.905 58.6048 404.817 58.3789 404.817 58.3789L407.532 55.6217L407.844 55.3044L409.363 53.7639C409.368 53.7744 410.497 56.4609 413.627 61.1761C414.424 62.3738 414.052 64.9473 409.779 66.4328C406.136 67.6989 406.42 65.675 406.51 64.5323C406.522 64.3911 406.53 64.2632 406.527 64.157C406.511 63.5772 406.263 62.609 405.961 61.6308Z" fill="#FBC7B1"/>
<path d="M405.961 61.6309C406.708 60.808 407.86 59.2363 408.406 58.4789C408.598 58.2136 408.715 58.0477 408.715 58.0477C408.725 58.0868 408.734 58.1261 408.744 58.1653C409.469 61.2479 407.433 63.6364 406.51 64.5319C406.521 64.3907 406.529 64.2628 406.527 64.1566C406.511 63.5772 406.263 62.6091 405.961 61.6309Z" fill="#FC9171"/>
<path d="M410.306 54.4259C410.306 54.4259 409.591 61.9179 404.193 63.7971C398.794 65.6763 396.969 56.2641 398.346 52.2007C399.723 48.1375 408.963 41.7382 410.306 54.4259Z" fill="#FBC7B1"/>
<path d="M409.803 57.0992C409.351 58.9262 408.461 60.585 407.19 61.9734C407.126 62.0439 407.021 61.939 407.086 61.8687C408.34 60.4986 409.215 58.8625 409.661 57.0597C409.683 56.9674 409.826 57.0067 409.803 57.0992Z" fill="#FC9171"/>
<path d="M399.841 54.7681C399.756 54.811 399.681 54.6832 399.766 54.6402C400.259 54.3914 400.847 54.5217 401.097 55.0434C401.292 55.4517 401.223 55.964 401.173 56.3943C401.113 56.9128 400.7 58.0184 401.536 58.0763C401.63 58.0828 401.631 58.231 401.536 58.2244C400.914 58.1812 400.819 58.1306 400.883 57.4502C400.922 57.0258 401.012 56.6075 401.049 56.1829C401.066 55.9839 401.084 55.7797 401.068 55.5798C401.015 54.9215 400.493 54.4388 399.841 54.7681Z" fill="#BC613F"/>
<path d="M403.81 53.2839C404.195 53.5431 404.333 54.0103 404.183 54.2333C404.033 54.4561 403.689 54.2942 403.304 54.0352C402.919 53.7761 402.64 53.518 402.79 53.295C402.94 53.072 403.426 53.0249 403.81 53.2839Z" fill="#FF6A51"/>
<path d="M400.319 53.4783C400.47 53.7008 400.191 53.9596 399.807 54.2197C399.424 54.4798 399.08 54.6428 398.929 54.4203C398.778 54.1977 398.915 53.7301 399.299 53.47C399.683 53.2097 400.168 53.2557 400.319 53.4783Z" fill="#DB4031"/>
<path d="M403.61 55.8152C403.635 56.1279 403.478 56.3954 403.259 56.4129C403.041 56.4304 402.843 56.1912 402.818 55.8787C402.793 55.5663 402.95 55.2985 403.169 55.2811C403.387 55.2634 403.585 55.5028 403.61 55.8152Z" fill="#353659"/>
<path d="M400.449 56.0503C400.474 56.363 400.317 56.6305 400.099 56.648C399.88 56.6654 399.683 56.4263 399.657 56.1136C399.632 55.8011 399.789 55.5334 400.008 55.5159C400.226 55.4985 400.424 55.7378 400.449 56.0503Z" fill="#353659"/>
<path d="M392.873 51.9211C392.876 52.0455 392.889 52.1688 392.909 52.2884C393.133 53.6415 394.311 54.7126 395.18 54.9897C396.364 55.3666 397.672 54.9092 398.743 54.2788C399.813 53.6484 400.719 52.78 401.682 51.9945C402.589 51.2552 403.718 50.5467 404.856 50.8262L403.491 47.921L403.451 47.837L402.964 46.8003C401.447 46.3892 399.822 46.6072 398.333 47.1071C394.076 48.5398 392.824 50.3749 392.873 51.9211Z" fill="#FF6A51"/>
<path d="M412.467 54.4874C409.926 57.0376 407.23 54.9498 407.23 54.9498C406.879 51.1904 404.855 50.8264 404.855 50.8264L402.875 47.3341L406.692 45.9854C406.692 45.9854 409.211 47.2285 409.321 47.2642C409.429 47.3005 415.007 51.9373 412.467 54.4874Z" fill="#FF6A51"/>
<path d="M410.235 53.3212C410.921 53.9948 410.789 55.2401 409.941 56.1026C409.093 56.9652 407.85 57.1182 407.165 56.4446C406.48 55.771 406.612 54.5257 407.459 53.6631C408.307 52.8006 409.55 52.6474 410.235 53.3212Z" fill="#FBC7B1"/>
<path d="M414.572 46.5783C415.113 48.7588 415.992 50.9323 414.811 53.0666C413.934 54.6512 412.286 55.8447 410.425 55.745C410.339 55.7404 410.338 55.6052 410.425 55.6097C412.301 55.7103 413.943 54.4657 414.775 52.8464C415.831 50.7922 414.954 48.6822 414.441 46.6143C414.421 46.5298 414.551 46.4938 414.572 46.5783Z" fill="#DB4031"/>
<path d="M410.731 54.1803C410.77 54.8714 410.652 55.5443 410.131 56.039C409.577 56.5653 408.845 56.9432 408.088 57.0392C407.994 57.0512 407.995 56.9028 408.088 56.8911C408.797 56.8014 409.511 56.4309 410.027 55.9342C410.518 55.4612 410.62 54.8343 410.583 54.1801C410.577 54.0852 410.725 54.0854 410.731 54.1803Z" fill="#FC9171"/>
<path d="M410.949 41.8871C410.971 41.932 411.048 41.9534 411.087 41.8978C411.299 41.591 411.555 41.3233 411.84 41.0898C411.841 41.0874 411.843 41.0874 411.844 41.0863C412.577 40.4845 413.505 40.098 414.384 39.7985C414.459 39.7736 414.534 39.7487 414.61 39.7249C414.616 39.7225 414.622 39.7201 414.627 39.7201C415.321 39.5021 416.087 39.3529 416.81 39.4299C416.737 39.373 416.661 39.3162 416.583 39.2617C415.827 39.2309 415.04 39.4146 414.344 39.6527C413.434 39.9632 412.489 40.3601 411.737 40.9798C411.736 40.9798 411.735 40.9809 411.734 40.9822C411.44 41.2251 411.176 41.5024 410.955 41.821C410.939 41.8443 410.939 41.8681 410.949 41.8871Z" fill="#DB4031"/>
<path d="M417.021 39.63C416.963 39.5787 416.904 39.5285 416.843 39.4785C416.682 39.4772 416.516 39.4859 416.355 39.5054C416.353 39.5054 416.353 39.5054 416.352 39.5054C416.125 39.5322 415.902 39.5798 415.693 39.6544C415.691 39.6544 415.691 39.6544 415.69 39.6557C415.472 39.7351 415.268 39.8425 415.098 39.9854C414.64 40.3701 414.324 41.1858 414.71 41.7059C415.151 42.2995 416.025 42.3579 416.691 42.2261C417.296 42.1077 417.848 41.8268 418.357 41.4788C418.342 41.4275 418.323 41.3762 418.304 41.3261C417.486 41.8914 416.521 42.3263 415.56 42.0625C415.368 42.0099 415.184 41.9257 415.031 41.7987C414.748 41.563 414.693 41.3895 414.76 41.033C414.857 40.525 415.036 40.1685 415.526 39.9241C415.797 39.7897 416.095 39.7068 416.4 39.6664C416.61 39.6382 416.823 39.631 417.033 39.6396L417.021 39.63Z" fill="#DB4031"/>
<path d="M392.874 51.9211C392.876 52.0455 392.889 52.1688 392.909 52.2884C392.993 52.4117 393.097 52.5243 393.218 52.6249C393.761 53.0763 394.505 53.0892 395.165 52.953C396.887 52.5976 398.407 51.4649 399.78 50.4317C400.863 49.6165 402.121 48.4554 403.49 47.921C403.95 47.741 404.422 47.6332 404.903 47.6308C406.048 47.626 406.955 48.3203 407.199 49.4447C407.429 50.5028 407.053 51.5655 406.706 52.5524C406.678 52.6342 406.808 52.6698 406.836 52.588C407.317 51.2218 407.872 49.3985 406.713 48.1923C405.829 47.2703 404.547 47.3949 403.45 47.8368C403.147 47.9588 402.856 48.1058 402.593 48.261C401.019 49.1923 399.661 50.4446 398.13 51.4411C397.327 51.9637 396.466 52.4387 395.545 52.7137C394.917 52.902 394.185 53.0183 393.574 52.7019C393.245 52.5315 392.991 52.2493 392.874 51.9211Z" fill="#DB4031"/>
<path d="M403.489 59.0818C403.489 59.0818 401.948 60.1462 400.632 59.5021C400.632 59.5021 401.121 61.0138 402.388 60.9018C403.656 60.7897 403.489 59.0818 403.489 59.0818Z" fill="white"/>
<path d="M410.088 157.392C410.088 157.392 413.067 160.452 412.431 162.748L407.015 165.678C407.015 165.678 406.183 162.437 410.088 157.392Z" fill="#353659"/>
<path d="M438.514 90.4047C435.825 89.5623 433.077 89.8952 430.667 91.355C430.593 91.3997 430.526 91.2841 430.6 91.2394C433.037 89.7623 435.829 89.4233 438.549 90.2756C438.631 90.3013 438.596 90.4307 438.514 90.4047Z" fill="#FC9171"/>
<path d="M415.195 113.157C415.267 113.186 415.346 113.174 415.422 113.156C416.108 112.992 416.619 112.406 416.954 111.785C417.231 111.272 417.424 110.718 417.688 110.199C417.696 110.182 417.703 110.167 417.712 110.15C418.39 109.847 419.134 109.692 419.876 109.711C420.351 109.722 420.825 109.802 421.301 109.783C422.124 109.752 422.922 109.398 423.526 108.84C423.904 108.492 424.208 108.063 424.396 107.584C424.527 107.251 424.602 106.889 424.595 106.533C424.243 104.042 422.687 103.642 420.901 103.614C420.854 103.614 420.806 103.613 420.759 103.613C420.249 103.61 419.721 103.633 419.2 103.644C418.092 103.69 416.986 103.774 415.884 103.895C414.809 104.015 413.72 104.174 412.734 104.62C412.416 104.764 412.117 104.934 411.834 105.127C410.097 106.31 408.995 108.342 408.302 110.367C408.249 110.522 408.213 110.726 408.346 110.821C408.403 110.862 408.478 110.868 408.549 110.867C409.201 110.864 409.781 110.447 410.215 109.959C410.647 109.472 410.98 108.902 411.434 108.434C411.624 108.238 411.833 108.064 412.051 107.902C411.348 109.147 410.898 110.575 410.613 111.978C410.577 112.153 410.567 112.378 410.723 112.461C410.792 112.497 410.874 112.492 410.95 112.483C411.65 112.388 412.215 111.856 412.611 111.272C412.776 111.031 412.92 110.777 413.061 110.522C412.897 111.226 412.785 111.945 412.714 112.653C412.697 112.828 412.709 113.054 412.873 113.121C412.944 113.149 413.025 113.137 413.1 113.119C413.786 112.955 414.296 112.37 414.632 111.749C414.968 111.127 415.18 110.442 415.542 109.836C415.56 109.806 415.58 109.777 415.598 109.747C415.311 110.704 415.134 111.706 415.036 112.689C415.018 112.865 415.031 113.091 415.195 113.157Z" fill="#FBC7B1"/>
<path d="M417.534 110.693C417.79 110.244 417.894 109.748 417.844 109.234C417.833 109.125 417.664 109.142 417.675 109.251C417.722 109.738 417.621 110.197 417.379 110.622C417.325 110.717 417.48 110.787 417.534 110.693Z" fill="#FC9171"/>
<path d="M415.533 109.991C415.699 109.493 415.812 108.984 415.868 108.461C415.879 108.352 415.712 108.323 415.7 108.432C415.646 108.94 415.54 109.436 415.378 109.921C415.344 110.024 415.498 110.095 415.533 109.991Z" fill="#FC9171"/>
<path d="M413.037 110.767C413.364 109.901 413.562 109.008 413.627 108.084C413.635 107.975 413.467 107.946 413.459 108.055C413.395 108.966 413.205 109.842 412.883 110.697C412.844 110.799 412.999 110.87 413.037 110.767Z" fill="#FC9171"/>
<path d="M69.2456 147.054C67.9141 147.479 66.5695 147.96 65.1706 147.88C59.1805 147.536 54.7003 152.792 55.7123 156.45C55.9325 157.246 55.445 158.12 54.8166 158.733C54.3424 159.196 53.7212 159.521 53.2244 159.965C51.9743 161.082 51.702 162.964 52.5957 164.307C52.9726 164.873 53.5536 165.442 53.3996 166.09C53.3213 166.42 53.0611 166.689 52.8364 166.962C51.7543 168.272 51.3877 170.172 52.4078 171.501C53.0365 172.32 54.0762 172.805 55.1129 173.171C58.8641 174.494 63.0636 174.636 67.0611 174.02C71.0588 173.404 74.882 172.061 78.5465 170.489C81.0395 169.419 83.4943 168.228 85.6117 166.636C86.5284 165.948 87.3973 165.161 87.8708 164.18C88.3443 163.201 88.3552 161.991 87.6417 161.147C86.9864 160.371 85.8208 159.988 85.323 159.124C84.8434 158.291 85.1295 157.272 84.9381 156.349C84.7688 155.532 84.201 154.792 83.4111 154.356C82.3526 153.773 80.8743 153.668 80.2256 152.722C79.5718 151.768 80.0944 150.361 79.2629 149.525C78.0296 148.286 75.3118 149.625 73.9924 148.459C73.6607 148.166 73.487 147.758 73.185 147.441C72.2786 146.488 70.577 146.63 69.2456 147.054Z" fill="#262F36"/>
<path d="M53.4813 236.412C53.4813 236.412 44.2011 237.582 43.7802 239.805C43.3538 242.057 45.0001 246.545 55.3039 246.101C66.4788 245.618 76.1573 247.402 88.6968 252.39L81.411 238.342L53.4813 236.412Z" fill="#262F36"/>
<path d="M86.2819 244.018C85.4866 250.893 84.2099 259.527 82.2196 267.709C77.9631 285.207 78.7587 304.179 78.7587 304.179H70.0572C70.0572 304.179 65.6931 275.132 68.3813 263.732C69.9393 257.125 69.3914 249.071 70.4746 240.325C71.2605 233.979 87.1877 236.189 86.2819 244.018Z" fill="#FBC7B1"/>
<path d="M73.8938 233.062C73.8938 233.062 66.3619 263.451 58.2008 268.858L49.8569 256.029C49.8569 256.029 53.0231 234.658 54.3541 232.208C55.6849 229.757 73.836 228.453 73.8938 233.062Z" fill="#FBC7B1"/>
<path d="M89.8709 248.242C89.8648 248.312 89.8565 248.379 89.8485 248.445C89.6741 250.029 89.3049 251.366 88.6977 252.39C88.4003 252.892 86.985 253.793 84.8619 254.371C81.2148 255.364 75.4754 255.405 69.6991 250.853C69.3709 250.595 69.0447 250.322 68.7165 250.035C67.6766 249.118 66.6386 248.045 65.615 246.796C65.4816 246.634 65.3483 246.474 65.213 246.316C61.2583 241.705 56.6697 239.479 52.7599 238.609C48.3395 237.627 44.7848 238.373 43.9888 239.362C43.999 239.346 44.0134 239.325 44.032 239.303C44.5223 238.597 47.0349 234.958 49.0882 231.012C49.1414 230.913 49.1927 230.813 49.2442 230.712C50.1262 228.993 50.9078 227.231 51.3898 225.637C53.8677 217.451 55.8554 214.019 57.6215 210.936C57.6195 210.934 57.6215 210.932 57.6215 210.932C57.6379 210.905 57.6544 210.876 57.6686 210.85C58.7127 209.026 59.6809 207.309 60.6307 204.784C60.6307 204.782 60.6307 204.782 60.6307 204.782C61.0471 203.671 61.4614 202.401 61.8758 200.897C64.0358 193.056 82.0088 190.932 82.6979 202.341C82.7595 203.363 82.86 204.432 82.9953 205.546C82.9953 205.548 82.9953 205.548 82.9953 205.548C83.5799 210.446 84.7922 216.147 86.0456 221.894C86.06 221.96 86.0744 222.027 86.0888 222.093C88.2444 231.98 90.4987 241.977 89.8709 248.242Z" fill="#FF6A51"/>
<path d="M80.821 300.272C83.1916 302.706 86.6977 304.053 89.9245 305.383C90.5891 305.657 91.2869 305.965 91.6138 306.651C91.7749 306.991 91.7858 307.394 91.5924 307.717C91.288 308.225 90.7072 308.236 90.1885 308.227C85.1473 308.133 80.6809 308.752 75.0663 307.948C73.5291 307.728 71.9355 307.886 70.4339 307.531C69.8408 307.391 69.4286 306.85 69.4465 306.241C69.4779 305.219 69.5501 304.12 69.6171 302.993C69.6584 302.302 69.6972 301.601 69.7236 300.899C69.8032 298.848 69.3638 294.907 68.9736 292.405L76.2311 295.595L76.7426 295.636L78.3542 289.961C78.3553 290.04 78.5249 295.935 78.5323 296.013C78.548 296.214 78.5803 296.413 78.6254 296.609C78.7553 297.179 78.9953 297.727 79.2838 298.237C79.6573 298.899 80.1005 299.494 80.5991 300.038C80.6726 300.116 80.7462 300.196 80.821 300.272Z" fill="#FBC7B1"/>
<path d="M91.5743 307.348C91.9645 307.249 92.1923 307.838 91.8002 307.938C88.2105 308.852 84.5294 308.927 80.8489 308.733C77.0655 308.534 73.2958 308.202 69.505 308.138C69.103 308.131 69.0387 307.503 69.4439 307.509C73.056 307.571 76.6511 307.857 80.2554 308.072C84.0461 308.298 87.8716 308.291 91.5743 307.348Z" fill="#353659"/>
<path d="M69.7834 301.631C75.8632 304.623 76.5807 308.103 76.5807 308.103L70.0466 307.834C68.369 305.94 69.7834 301.631 69.7834 301.631Z" fill="#353659"/>
<path d="M86.5111 303.824C87.668 304.203 88.7036 304.902 90.7613 305.651C92.3738 306.238 93.3651 307.62 89.4163 308.143C85.4657 308.667 81.248 308.318 81.248 308.318C81.248 308.318 84.5325 303.177 86.5111 303.824Z" fill="#353659"/>
<path d="M23.1925 236.065C29.5128 238.47 47.4758 245.605 53.9693 251.397C61.9065 258.477 62.231 274.924 52.0397 266.83C49.6018 264.894 47.1467 262.84 44.8059 260.722C37.3114 253.942 28.5342 248.459 22.9213 245.259C22.4234 244.955 21.3302 244.701 19.1315 244.375C15.4435 243.83 11.1317 243.875 8.39023 244.383C7.74806 244.502 12.6112 238.529 17.924 235.993C19.1966 235.385 22.4218 235.131 23.3551 234.086C23.7228 233.673 22.8233 235.842 23.1925 236.065Z" fill="#FBC7B1"/>
<path d="M7.1407 244.334C6.90155 244.61 6.42608 244.289 6.66676 244.012C8.868 241.468 11.572 239.502 14.4156 237.738C17.3387 235.924 20.3206 234.216 23.1791 232.297C23.4822 232.094 23.856 232.529 23.5503 232.734C20.8265 234.562 17.9987 236.214 15.2009 237.923C12.2585 239.72 9.41133 241.71 7.1407 244.334Z" fill="#353659"/>
<path d="M26.3467 237.291C20.2631 238.215 17.9233 235.993 17.9233 235.993L22.9326 232.804C25.1653 233.346 26.3467 237.291 26.3467 237.291Z" fill="#353659"/>
<path d="M12.7423 244.333C11.6838 244.651 10.5493 244.667 8.62737 245.177C7.12133 245.576 5.66526 245.06 8.33673 242.621C11.0095 240.182 14.3336 238.254 14.3336 238.254C14.3336 238.254 14.5529 243.79 12.7423 244.333Z" fill="#353659"/>
<path d="M50.3293 248.73C52.6931 251.682 54.4446 255.054 55.5099 258.682C55.5825 258.929 55.9707 258.824 55.8976 258.575C54.812 254.877 53.0223 251.454 50.6138 248.446C50.4519 248.244 50.1691 248.53 50.3293 248.73Z" fill="#FC9171"/>
<path d="M59.3331 173.987C51.3759 177.987 43.2502 185.206 37.7979 190.284C35.291 192.619 26.8345 205.184 26.8345 205.184L32.3555 211.484C32.3555 211.484 41.234 201.19 46.6733 197.12C51.2329 193.709 57.1037 191.009 63.3989 188.65C70.0155 186.171 71.7596 174.544 71.7596 174.544C71.7596 174.544 62.1115 172.59 59.3331 173.987Z" fill="#FFB041"/>
<path d="M32.3547 211.484C32.2373 211.698 31.951 211.696 31.5587 211.518C31.4461 211.466 31.3239 211.4 31.1936 211.318C30.5809 210.942 29.8059 210.258 29.0243 209.363C28.3585 208.602 27.7971 207.816 27.4015 207.126C27.2359 206.835 27.099 206.561 26.9963 206.314C26.9352 206.166 26.8852 206.026 26.8483 205.899C26.8016 205.73 26.7759 205.58 26.7759 205.455C26.7759 205.395 26.7822 205.341 26.7936 205.292C26.8032 205.252 26.816 205.215 26.8337 205.185C26.9448 204.985 27.202 204.976 27.5542 205.12C27.7955 205.221 28.0849 205.397 28.4017 205.635C28.405 205.636 28.4098 205.64 28.4131 205.643C28.9389 206.042 29.5469 206.616 30.158 207.317C30.4845 207.692 30.7869 208.071 31.057 208.441C31.4398 208.967 31.7599 209.477 31.9899 209.929C32.1555 210.251 32.2761 210.543 32.3453 210.793C32.4302 211.096 32.4383 211.334 32.3547 211.484Z" fill="#262F36"/>
<path d="M76.4219 170.489C76.4219 170.489 87.0667 167.235 92.2229 159.654C94.1494 156.822 97.0836 141.176 97.0836 141.176L105.415 140.307C105.415 140.307 105.478 159.441 100.618 165.701C93.4228 174.966 84.4007 186.44 84.4007 186.44L76.4219 170.489Z" fill="#FFB041"/>
<path d="M104.824 139.906C104.489 139.788 104.035 139.7 103.503 139.649C102.71 139.573 101.745 139.578 100.74 139.681C99.3057 139.828 98.1305 140.147 97.5166 140.507C97.1442 140.724 96.9779 140.957 97.0835 141.177C97.1577 141.33 97.3569 141.462 97.6541 141.568C98.2396 141.778 99.2038 141.889 100.318 141.874C100.777 141.867 101.261 141.84 101.755 141.789C102.68 141.694 103.499 141.53 104.129 141.33C104.512 141.208 104.826 141.072 105.051 140.931C105.374 140.728 105.513 140.512 105.415 140.307C105.399 140.275 105.377 140.242 105.35 140.212C105.35 140.211 105.35 140.211 105.35 140.211C105.247 140.094 105.067 139.992 104.824 139.906Z" fill="#262F36"/>
<path d="M102.598 129.689C102.531 129.691 102.47 129.727 102.416 129.768C101.92 130.135 101.71 130.781 101.653 131.395C101.606 131.903 101.641 132.415 101.606 132.923C101.606 132.939 101.605 132.954 101.604 132.971C101.163 133.447 100.617 133.826 100.013 134.066C99.6275 134.22 99.219 134.318 98.843 134.496C98.1915 134.803 97.6711 135.361 97.3758 136.017C97.1912 136.427 97.0939 136.876 97.1066 137.326C97.1157 137.639 97.1788 137.956 97.3071 138.239C98.4439 140.123 99.8321 139.911 101.278 139.321C101.316 139.306 101.355 139.29 101.393 139.273C101.804 139.101 102.221 138.902 102.636 138.714C103.512 138.298 104.373 137.851 105.218 137.376C106.042 136.911 106.863 136.41 107.503 135.713C107.71 135.489 107.892 135.249 108.053 134.997C109.045 133.45 109.235 131.438 109.099 129.571C109.089 129.428 109.047 129.252 108.907 129.221C108.847 129.208 108.785 129.229 108.729 129.254C108.206 129.48 107.881 130.014 107.7 130.555C107.519 131.094 107.446 131.667 107.242 132.199C107.156 132.422 107.048 132.634 106.928 132.839C107.067 131.597 106.94 130.293 106.688 129.067C106.657 128.915 106.588 128.73 106.433 128.716C106.366 128.711 106.302 128.743 106.244 128.777C105.714 129.093 105.441 129.715 105.322 130.32C105.272 130.57 105.244 130.824 105.217 131.077C105.108 130.455 104.951 129.839 104.766 129.245C104.72 129.097 104.633 128.92 104.478 128.923C104.411 128.924 104.35 128.961 104.296 129.002C103.8 129.369 103.59 130.015 103.532 130.629C103.476 131.245 103.54 131.868 103.457 132.48C103.452 132.51 103.446 132.54 103.441 132.57C103.345 131.702 103.144 130.835 102.885 130.012C102.84 129.864 102.753 129.686 102.598 129.689Z" fill="#FBC7B1"/>
<path d="M97.6541 141.568C98.2396 141.778 99.2038 141.889 100.318 141.873C100.777 141.867 101.261 141.84 101.755 141.788C102.68 141.694 103.499 141.53 104.129 141.33L103.503 139.649L103.076 138.502L97.1064 137.326L97.5169 140.507L97.6541 141.568Z" fill="#FBC7B1"/>
<path d="M100.24 139.093C100.145 139.104 100.18 139.249 100.274 139.237C101.282 139.115 102.274 138.972 103.207 138.553C103.295 138.514 103.222 138.384 103.136 138.423C102.215 138.836 101.233 138.972 100.24 139.093Z" fill="#FC9171"/>
<path d="M101.561 132.473C101.509 132.922 101.595 133.356 101.811 133.752C101.857 133.836 101.987 133.765 101.941 133.681C101.736 133.306 101.66 132.901 101.709 132.477C101.72 132.382 101.571 132.379 101.561 132.473Z" fill="#FC9171"/>
<path d="M103.411 132.351C103.448 132.81 103.532 133.258 103.666 133.698C103.694 133.789 103.838 133.754 103.81 133.663C103.68 133.236 103.595 132.801 103.559 132.355C103.552 132.261 103.403 132.256 103.411 132.351Z" fill="#FC9171"/>
<path d="M105.152 130.872C105.186 131.681 105.333 132.467 105.597 133.233C105.628 133.323 105.773 133.289 105.742 133.198C105.481 132.444 105.334 131.674 105.3 130.876C105.296 130.781 105.148 130.777 105.152 130.872Z" fill="#FC9171"/>
<path d="M31.9897 209.929C31.4252 210.424 31.3528 210.815 31.1937 211.318C31.0859 211.658 30.9397 212.048 30.5747 212.555C29.7688 213.678 26.0572 217.402 25.7467 217.061C25.52 216.814 25.7724 215.87 26.2435 214.971C26.3705 214.7 26.4124 214.515 26.39 214.393C24.5132 215.831 21.697 217.763 21.2999 217.25C20.9397 216.783 22.4819 215.355 24.0661 214.062L23.9921 213.996C21.8965 215.381 18.944 217.092 18.5322 216.484C18.0851 215.821 20.4539 214.017 22.4579 212.628L22.3807 212.558C22.3693 212.566 22.3565 212.575 22.3453 212.583C20.4219 213.884 17.3631 215.69 16.9241 215.042C16.8887 214.99 16.8726 214.93 16.8726 214.865C16.8726 214.101 19.0886 212.428 20.8561 211.198C21.3981 210.64 21.2019 210.545 20.951 210.561C20.8255 210.588 20.7018 210.612 20.5812 210.635C20.5796 210.635 20.5796 210.635 20.5796 210.635C19.3686 210.857 18.3875 210.833 18.1962 210.482C17.7587 209.683 21.0058 208.85 23.2315 207.632C24.4006 206.994 25.4556 206.942 26.9963 206.314C27.4242 206.141 27.8873 205.923 28.402 205.635C28.4053 205.637 28.4101 205.64 28.4134 205.643C28.9392 206.042 29.5471 206.616 30.1583 207.317C30.4848 207.692 30.7872 208.071 31.0573 208.441C31.4396 208.967 31.7597 209.477 31.9897 209.929Z" fill="#FBC7B1"/>
<path d="M55.7036 187.334C55.7036 187.334 61.5759 200.914 60.611 203.52C59.6461 206.127 63.9565 205.972 68.1807 205.46C72.4047 204.947 81.7325 205.958 82.6974 205.774C83.6623 205.59 83.3675 201.516 83.85 199.345C84.3324 197.174 86.7961 190.973 84.9488 187.685C83.1015 184.397 87.7973 181.821 87.7973 181.821L78.5465 170.489L57.8232 175.892L55.7036 187.334Z" fill="#FFB041"/>
<path d="M72.5605 168.937C72.4039 168.213 72.2701 167.5 72.1673 166.92C72.1265 166.692 72.0916 166.485 72.0611 166.306C71.9873 165.87 71.9465 165.599 71.9465 165.599L67.7262 164.44L67.5366 164.389L67.4537 164.366L67.2403 164.308L64.8809 163.66C64.8826 163.673 65.3005 166.943 64.9103 173.331C64.8106 174.956 66.9095 177.316 71.9328 176.347C76.7453 175.418 74.0753 173.183 73.5503 172.223C73.3022 171.769 73.0594 170.995 72.8405 170.135C72.7414 169.747 72.6476 169.34 72.5605 168.937Z" fill="#FBC7B1"/>
<path d="M67.9632 164.644C67.771 164.529 67.6229 164.441 67.5362 164.389C67.4795 164.355 67.4487 164.336 67.4487 164.336C67.45 164.347 67.452 164.357 67.4533 164.366C67.4594 164.402 67.4662 164.436 67.4721 164.471C68.1387 168.164 71.6075 169.701 72.8399 170.135C72.7408 169.747 72.6472 169.34 72.5601 168.937C72.4035 168.213 72.2697 167.5 72.1669 166.92C71.0692 166.467 68.9401 165.225 67.9632 164.644Z" fill="#FC9171"/>
<path d="M63.1008 163.616C63.1008 163.616 68.9649 169.786 75.0807 167.693C81.1967 165.599 76.2544 155.948 72.1938 153.291C68.1333 150.635 55.4438 151.386 63.1008 163.616Z" fill="#FBC7B1"/>
<path d="M66.9727 166.401C66.8913 166.354 66.8045 166.473 66.8865 166.52C68.7197 167.583 70.7865 168.163 72.9055 168.203C72.9997 168.205 73.0161 168.058 72.9214 168.057C70.8293 168.017 68.7836 167.45 66.9727 166.401Z" fill="#FC9171"/>
<path d="M72.7443 161.295C72.6773 161.362 72.7838 161.464 72.8508 161.397C73.0502 161.197 73.4063 161.074 73.2702 160.733C73.1318 160.387 72.6697 160.056 72.4078 159.806C72.0345 159.451 71.6262 159.092 71.3552 158.649C71.1462 158.307 71.1171 157.896 71.2786 157.587C71.2941 157.557 71.2775 157.521 71.2454 157.511C71.1992 157.497 71.1496 157.519 71.1278 157.562C70.9801 157.854 70.9696 158.218 71.1363 158.56C71.3668 159.034 71.7859 159.416 72.1599 159.773C72.3528 159.959 72.5492 160.141 72.736 160.333C72.8143 160.413 72.9599 160.523 73.0072 160.628C73.1888 161.035 72.9282 161.111 72.7443 161.295Z" fill="#FC9171"/>
<path d="M68.2784 158.233C67.8787 158.572 67.7816 159.115 67.9784 159.347C68.1752 159.578 68.5416 159.353 68.9416 159.014C69.3413 158.675 69.623 158.35 69.4264 158.118C69.2294 157.886 68.6782 157.894 68.2784 158.233Z" fill="#262F36"/>
<path d="M72.2109 155.893C71.7618 156.164 71.579 156.684 71.7361 156.944C71.893 157.205 72.291 157.041 72.74 156.771C73.1891 156.5 73.5192 156.224 73.3623 155.964C73.2052 155.703 72.6599 155.622 72.2109 155.893Z" fill="#262F36"/>
<path d="M69.5958 159.732C69.3889 159.869 69.38 160.22 69.5757 160.516C69.7714 160.811 70.0979 160.94 70.3047 160.803C70.5116 160.666 70.5205 160.315 70.3248 160.02C70.1291 159.724 69.8026 159.595 69.5958 159.732Z" fill="#262F36"/>
<path d="M72.6739 157.657C72.467 157.794 72.4581 158.145 72.6538 158.44C72.8495 158.736 73.176 158.865 73.3828 158.728C73.5897 158.591 73.5986 158.24 73.4029 157.944C73.2072 157.649 72.8808 157.52 72.6739 157.657Z" fill="#262F36"/>
<path d="M67.0313 159.037C67.0603 158.762 66.9244 158.5 66.886 158.226C66.7843 157.507 67.3667 156.864 67.996 156.501C68.6253 156.137 69.3506 155.925 69.8963 155.445C70.9854 154.487 70.9079 152.516 69.7471 151.646L66.6872 151.618C64.446 151.497 62.1239 151.946 60.2655 153.204C58.4068 154.463 57.0801 156.597 57.1043 158.841C57.1141 159.747 57.3348 160.638 57.5951 161.506C57.9518 162.695 58.3976 163.881 59.1618 164.859C59.9259 165.837 61.0538 166.59 62.2932 166.656C63.4973 166.719 65.1397 166.457 65.0077 165.258C64.8065 163.432 66.028 162.672 65.4437 161.617C65.3426 161.435 65.222 161.254 65.2012 161.046C65.107 160.093 66.9307 159.989 67.0313 159.037Z" fill="#262F36"/>
<path d="M62.9401 161.837C62.5912 162.824 63.3159 163.98 64.5583 164.419C65.8008 164.858 67.0908 164.414 67.4395 163.427C67.7882 162.44 67.0638 161.284 65.8213 160.845C64.5788 160.406 63.289 160.85 62.9401 161.837Z" fill="#FBC7B1"/>
<path d="M64.3528 164.29C63.6757 164.071 63.2683 163.492 63.0093 162.859C62.9737 162.772 62.8321 162.813 62.8681 162.901C63.1321 163.546 63.5325 164.136 64.2072 164.394C65.003 164.699 66.0041 164.732 66.8058 164.449C66.8948 164.418 66.8538 164.276 66.7639 164.308C66.0079 164.574 65.1139 164.537 64.3528 164.29Z" fill="#FC9171"/>
<path d="M66.0152 162.488C65.9724 162.289 65.7101 162.134 65.5476 162.047C65.464 162.002 65.3922 162.13 65.4755 162.175C65.5849 162.234 65.8159 162.352 65.8526 162.478C65.8864 162.594 65.7926 162.762 65.7771 162.882C65.7487 163.099 65.8151 163.303 65.9466 163.474C66.0038 163.548 66.1304 163.473 66.0723 163.397C65.9453 163.233 65.8847 163.032 65.9366 162.826C65.9652 162.713 66.0416 162.611 66.0152 162.488Z" fill="#FC9171"/>
<path d="M65.5108 160.691C65.4178 160.676 65.3807 160.819 65.4743 160.834C65.6964 160.871 65.8972 160.952 66.0818 161.081C66.1597 161.135 66.2308 161.006 66.1538 160.952C65.9603 160.818 65.7436 160.73 65.5108 160.691Z" fill="#FC9171"/>
<path d="M59.9944 161.165C60.5897 160.217 61.5716 159.647 62.5454 159.154C63.3253 158.76 64.3436 158.419 64.8652 157.669C65.4316 156.854 64.7244 155.9 65.2058 155.07C65.8167 154.018 67.2058 153.975 68.2085 153.542C68.9746 153.211 69.6807 152.503 69.5151 151.606C69.504 151.546 69.4121 151.571 69.4232 151.631C69.6846 153.047 68.0132 153.532 66.9916 153.837C66.2835 154.048 65.5158 154.351 65.1226 155.023C64.609 155.901 65.3915 156.91 64.6902 157.738C64.0532 158.49 62.9447 158.825 62.0994 159.277C60.725 160.013 59.1233 161.341 59.4602 163.108C59.6348 164.024 60.3483 164.684 60.7671 165.484C61.3087 166.519 61.028 167.638 60.3632 168.542C59.1129 170.241 56.6245 171.083 56.2673 173.382C56.2579 173.443 56.35 173.468 56.3594 173.407C56.7061 171.174 59.098 170.319 60.359 168.707C60.853 168.075 61.2188 167.276 61.1594 166.458C61.0928 165.541 60.4513 164.858 59.9885 164.112C59.3915 163.151 59.3906 162.126 59.9944 161.165Z" fill="white"/>
<path d="M59.333 173.987C59.5922 174.132 67.3852 178.481 73.6337 176.47C77.9131 175.094 77.303 172.058 76.4214 170.489C74.1831 170.965 71.8381 171.065 69.4596 171.084C65.6293 171.116 62.2015 172.683 59.333 173.987Z" fill="#FBC7B1"/>
<path d="M72.49 173.803C71.7424 174.386 70.5589 174.324 69.6682 174.229C67.921 174.041 66.271 173.286 64.9764 172.102C64.931 172.06 64.8732 172.136 64.9181 172.177C66.3866 173.521 68.3175 174.315 70.3108 174.367C71.1491 174.389 72.1262 174.344 72.7457 173.7C73.4706 172.947 73.4673 171.84 73.3032 170.876C73.293 170.816 73.1983 170.827 73.2088 170.888C73.3798 171.891 73.375 173.114 72.49 173.803Z" fill="white"/>
<path d="M71.7942 174.194C71.7039 174.237 71.6884 174.393 71.7595 174.544C71.8306 174.695 71.9616 174.782 72.0519 174.739C72.1422 174.696 72.1577 174.54 72.0866 174.389C72.0155 174.239 71.8845 174.151 71.7942 174.194Z" fill="white"/>
<path d="M74.9724 162.155C74.9672 162.44 74.9327 162.799 74.8186 163.055C74.6588 163.413 74.3649 163.75 73.8362 163.931C73.2495 164.131 72.762 164.064 72.3793 163.895C72.1508 163.796 71.911 163.593 71.7216 163.406C71.6492 163.334 71.6289 163.238 71.65 163.153C71.6751 163.054 71.7535 162.971 71.8689 162.953C71.8975 162.949 71.926 162.945 71.9566 162.94C71.9695 162.938 71.9832 162.936 71.997 162.934C72.0404 162.928 72.0856 162.921 72.132 162.912C72.1497 162.908 72.1685 162.905 72.1872 162.902C72.3361 162.875 72.5006 162.84 72.6749 162.796C72.731 162.782 72.7882 162.767 72.8462 162.751C72.8748 162.744 72.9034 162.736 72.9328 162.726C72.9623 162.718 72.992 162.709 73.0225 162.699C73.052 162.691 73.0825 162.681 73.1122 162.671C73.1428 162.662 73.1722 162.652 73.2028 162.641C73.246 162.627 73.2894 162.612 73.3326 162.597C73.3671 162.584 73.4015 162.572 73.4369 162.558C73.5157 162.528 73.5964 162.497 73.676 162.462C73.7046 162.45 73.7341 162.437 73.7627 162.424C73.8689 162.377 73.9752 162.326 74.0815 162.271C74.1266 162.247 74.1729 162.224 74.2181 162.198C74.2554 162.178 74.2929 162.156 74.3302 162.134C74.3459 162.125 74.3608 162.116 74.3754 162.107C74.4099 162.087 74.4432 162.066 74.4766 162.044C74.5209 162.018 74.565 161.988 74.6093 161.958C74.6938 161.9 74.7935 161.907 74.8677 161.955C74.9309 161.996 74.9748 162.067 74.9724 162.155Z" fill="#262F36"/>
<path d="M74.8678 161.955C74.5115 162.428 73.9182 163.038 73.1811 163.149C72.5948 163.239 72.0552 163.21 71.6504 163.153C71.6755 163.054 71.7538 162.971 71.8692 162.954C71.8978 162.949 71.9264 162.945 71.957 162.94C71.9698 162.938 71.9836 162.936 71.9973 162.934C72.0408 162.928 72.0859 162.921 72.1324 162.912C72.1501 162.909 72.1689 162.906 72.1876 162.902C72.3364 162.875 72.501 162.84 72.6753 162.796C72.7314 162.782 72.7885 162.768 72.8466 162.751C72.8752 162.744 72.9038 162.736 72.9332 162.726C72.9627 162.718 72.9932 162.71 73.0229 162.7C73.0524 162.691 73.0829 162.681 73.1126 162.671C73.1431 162.662 73.1726 162.652 73.2031 162.641C73.2463 162.627 73.2898 162.612 73.333 162.597C73.3674 162.584 73.4019 162.572 73.4373 162.558C73.516 162.528 73.5968 162.497 73.6764 162.462C73.705 162.45 73.7345 162.437 73.763 162.424C73.8693 162.377 73.9756 162.326 74.0818 162.271C74.127 162.247 74.1733 162.224 74.2184 162.198C74.2557 162.177 74.2933 162.156 74.3306 162.134C74.3463 162.125 74.3611 162.116 74.3758 162.107C74.4102 162.087 74.4436 162.066 74.477 162.044C74.5213 162.018 74.5654 161.988 74.6097 161.958C74.6939 161.9 74.7936 161.907 74.8678 161.955Z" fill="white"/>
<path d="M74.8187 163.055C74.659 163.413 74.3651 163.75 73.8363 163.931C73.2496 164.131 72.7621 164.064 72.3794 163.895C72.5991 163.693 73.0382 163.362 73.6334 163.274C73.6334 163.274 74.3315 162.678 74.8187 163.055Z" fill="#E55A4D"/>
<path d="M74.8194 231.282C74.284 230.989 73.7363 230.714 73.1825 230.462C73.9968 228.872 75.2624 227.543 76.7045 226.478C79.4471 224.45 82.7289 223.041 86.089 222.093C86.0746 222.027 86.0602 221.96 86.0458 221.894C82.5628 222.872 79.1516 224.345 76.3578 226.489C74.9835 227.543 73.7856 228.845 72.9979 230.378C69.3999 228.757 65.4473 227.951 61.5027 227.949C57.2649 227.947 53.0516 228.881 49.2444 230.712C49.1931 230.813 49.1418 230.913 49.0884 231.012C55.5232 227.845 63.1599 227.283 70.015 229.453C70.9976 229.765 71.9677 230.13 72.9114 230.552C72.7967 230.786 72.69 231.026 72.5955 231.273C72.5032 231.515 72.4192 231.763 72.3474 232.015C72.0519 233.051 71.935 234.179 72.1259 235.246C72.2429 235.904 72.5239 236.267 72.9771 236.509C73.1864 236.62 73.4325 236.706 73.7155 236.784C73.8613 236.823 74.0129 236.862 74.1729 236.897H74.1748C75.1657 237.113 76.3739 237.184 77.1614 236.643H77.1655C77.5203 236.395 77.785 236.029 77.9122 235.5C78.4049 233.446 76.3394 232.115 74.8194 231.282ZM76.6779 236.628C76.6779 236.628 76.6779 236.628 76.6757 236.628H76.6715C76.3084 236.804 75.8819 236.89 75.4243 236.878C75.1782 236.87 74.8951 236.849 74.5997 236.806H74.5977C74.0542 236.728 73.4757 236.574 73.0389 236.293C72.7168 236.088 72.4707 235.816 72.3701 235.454C72.0502 234.298 72.2634 232.917 72.6245 231.799C72.6697 231.656 72.721 231.516 72.7722 231.376C72.8687 231.124 72.9774 230.876 73.0943 230.634C73.8923 230.999 74.6697 231.405 75.4204 231.854C76.4132 232.449 77.4573 233.22 77.7156 234.422C77.9434 235.471 77.4634 236.25 76.6779 236.628Z" fill="white"/>
<path d="M89.8692 248.242C88.7882 248.408 87.582 248.533 86.5215 248.192C86.2732 248.115 86.0334 248.01 85.8056 247.872C85.738 247.833 85.6723 247.793 85.6086 247.747C85.1285 247.415 84.7183 246.937 84.509 246.385C84.8064 246.223 85.0853 246.031 85.2823 245.805C85.3869 245.686 85.4689 245.557 85.5182 245.417C85.6762 244.978 85.4279 244.351 84.8824 244.433C84.784 244.447 84.6978 244.482 84.6218 244.531C84.2321 244.783 84.1376 245.434 84.1767 245.844C84.1911 245.987 84.2116 246.125 84.2424 246.254C84.2158 246.268 84.1911 246.281 84.1706 246.291C82.0189 247.468 79.465 247.885 77.0447 247.507C75.8489 247.323 74.7125 246.935 73.6377 246.385C72.6509 245.883 71.7094 245.284 70.6572 244.919C70.5976 244.898 70.5361 244.878 70.4768 244.859C70.3332 244.812 70.1896 244.771 70.046 244.734C68.2164 244.256 66.28 244.445 64.5344 245.189C64.4175 245.241 64.518 245.413 64.637 245.364C66.1201 244.728 67.7261 244.521 69.3201 244.783C69.5621 244.822 69.7979 244.878 70.0299 244.941C70.1591 244.978 70.2863 245.017 70.4135 245.06C71.4105 245.397 72.3273 245.922 73.2689 246.42C75.3652 247.528 77.6729 248.03 80.04 247.776C81.1498 247.657 82.241 247.38 83.2687 246.947C83.5518 246.828 83.9354 246.681 84.3087 246.492C84.5568 247.259 85.0984 247.762 85.7774 248.08C86.038 248.203 86.319 248.297 86.6123 248.369C87.6769 248.63 88.8954 248.586 89.8491 248.445C89.8572 248.379 89.8655 248.312 89.8716 248.242H89.8692ZM84.4047 246.029C84.3329 245.768 84.3451 245.516 84.4416 245.27C84.5073 244.679 84.7104 244.831 85.0486 245.725C84.9891 245.844 84.6794 246.02 84.4333 246.154C84.4231 246.113 84.4128 246.07 84.4047 246.029Z" fill="white"/>
<path d="M57.6919 211.027C63.3227 211.905 67.2259 216.809 72.7853 217.925C73.9377 218.156 75.1304 218.217 76.2897 217.997C77.1538 217.833 78.5791 217.472 79.0118 216.602C79.237 216.149 79.0543 215.54 78.4866 215.463C77.6445 215.349 77.9795 216.484 78.1654 216.909C79.3585 219.638 82.8055 219.014 85.0661 218.407C85.1909 218.373 85.1379 218.179 85.0126 218.213C83.5814 218.598 81.966 219.061 80.4947 218.605C79.8804 218.414 79.3059 218.079 78.8678 217.604C78.5815 217.294 78.3559 216.932 78.2393 216.524C78.1811 216.345 78.1512 216.16 78.1494 215.969C78.7704 216.381 78.8719 216.699 78.4543 216.921C77.6559 217.801 75.7169 217.954 74.6217 217.934C73.3018 217.91 71.9963 217.591 70.7635 217.133C66.2143 215.443 62.6648 211.601 57.745 210.834C57.6188 210.814 57.5643 211.007 57.6919 211.027Z" fill="white"/>
<path d="M56.6281 191.717C58.1671 190.71 59.8977 190.179 61.7367 190.155C61.8659 190.153 61.8663 189.952 61.7367 189.954C59.8643 189.979 58.0936 190.518 56.5266 191.544C56.4188 191.614 56.5194 191.788 56.6281 191.717Z" fill="white"/>
<path d="M84.6477 181.012C83.9715 182.904 83.9379 184.668 84.5386 186.585C84.5772 186.708 84.7712 186.655 84.7324 186.531C84.1447 184.656 84.1812 182.913 84.8415 181.065C84.8853 180.944 84.6911 180.891 84.6477 181.012Z" fill="white"/>
<path d="M65.9779 193.466C68.2614 195.429 72.1858 194.598 74.6113 193.37C74.7267 193.311 74.6251 193.138 74.5098 193.196C72.1748 194.379 68.3233 195.218 66.1199 193.323C66.0224 193.24 65.8797 193.381 65.9779 193.466Z" fill="white"/>
<path d="M344.71 315.329C344.733 316.291 344.761 317.228 344.757 318.1C344.753 318.619 344.386 319.067 343.877 319.168C342.587 319.425 341.242 319.406 339.919 319.383C335.624 319.309 331.329 319.234 327.033 319.161C326.591 319.153 326.097 319.126 325.853 318.684C325.698 318.403 325.719 318.061 325.867 317.776C326.166 317.201 326.77 316.961 327.344 316.747C330.132 315.712 333.159 314.672 335.252 312.672C335.318 312.609 335.383 312.544 335.448 312.479C335.889 312.031 336.284 311.537 336.623 310.985C336.884 310.559 337.105 310.1 337.233 309.619C337.277 309.453 337.311 309.285 337.33 309.114C337.339 309.048 337.346 308.981 337.349 308.914L338.866 308.847L339.302 308.828L345.164 308.569C344.764 310.052 344.677 311.794 344.683 313.543C344.684 314.141 344.696 314.739 344.71 315.329Z" fill="#2A2C4B"/>
<path d="M351.865 258.874C351.865 258.874 345.939 272.174 345.788 278.811C345.634 285.579 346.798 308.569 346.798 308.569C346.798 308.569 345.756 309.969 341.439 310.35C337.71 310.679 336.195 309.903 336.195 309.903C336.195 309.903 331.891 285.696 331.228 276.691C330.504 266.871 335.009 237.859 335.009 237.859L353.651 235.646L351.865 258.874Z" fill="#353659"/>
<path d="M385.647 310.588C386.033 311.469 386.416 312.325 386.743 313.133C386.937 313.614 386.768 314.169 386.335 314.456C385.24 315.183 383.988 315.676 382.756 316.158C378.755 317.722 374.754 319.286 370.752 320.85C370.34 321.011 369.873 321.174 369.479 320.857C369.229 320.657 369.119 320.332 369.147 320.012C369.206 319.367 369.673 318.915 370.123 318.5C372.308 316.483 374.713 314.37 375.888 311.724C375.925 311.641 375.961 311.556 375.996 311.471C376.234 310.89 376.412 310.282 376.515 309.644C376.595 309.151 376.625 308.642 376.56 308.148C376.538 307.978 376.505 307.81 376.458 307.644C376.441 307.579 376.422 307.516 376.4 307.452L377.777 306.814L378.174 306.63L383.497 304.162C383.691 305.687 384.273 307.331 384.943 308.946C385.171 309.499 385.409 310.047 385.647 310.588Z" fill="#2A2C4B"/>
<path d="M367.026 235.646C367.026 235.646 370.381 270.203 372.764 276.4C375.194 282.719 385.979 304.555 385.979 304.555C385.979 304.555 385.071 306.793 381.547 308.569C378.539 310.085 376.174 309.541 376.174 309.541C376.174 309.541 362.527 288.05 358.491 279.973C354.089 271.164 347.23 242.617 347.23 242.617L354.09 230.52L367.026 235.646Z" fill="#353659"/>
<path d="M314.299 188.329L321.161 201.442C321.161 201.442 328.875 184.746 335.286 182.421C338.951 181.092 348.585 188.278 343.822 196.382C336.305 209.171 323.775 222.79 316.196 217.112C309.519 212.111 305.29 192.131 305.29 192.131C305.289 191.573 313.764 186.585 314.299 188.329Z" fill="#C1B2FF"/>
<path d="M368.357 236.035C368.357 236.035 368.666 237.886 352.098 238.915C340.31 239.646 335.012 237.741 335.012 237.741C334.063 233.323 333.164 225.356 331.366 214.455C330.139 207.018 329.888 198.118 329.679 188.181C329.671 187.805 333.578 187.874 333.66 187.558C334.574 184.04 336.987 183.715 344.291 185.126C355.631 187.314 369.432 192.687 369.432 192.687C369.432 192.687 367.148 206.283 366.974 220.919C366.974 220.92 366.974 220.92 366.974 220.921C366.918 225.72 367.806 231.455 368.357 236.035Z" fill="#C1B2FF"/>
<path d="M337.716 217.547C338.25 221.433 341.834 224.15 345.72 223.615C345.72 223.615 351.051 224.797 357.505 222.316C378 214.437 388.572 208.525 364.927 184.145C358.343 177.357 340.333 178.853 333.66 183.349C330.407 185.541 344.108 190.333 346.949 193.039L361.693 207.08L343.784 209.543C339.898 210.078 337.181 213.661 337.716 217.547Z" fill="#C1B2FF"/>
<path d="M338.956 162.401L336.374 160.213C336.374 160.213 334.565 166.523 335.626 168.235C336.687 169.947 338.956 162.401 338.956 162.401Z" fill="#262F36"/>
<path d="M346.221 175.859C348.203 176.98 350.385 174.631 353.448 166.726C356.164 159.718 349.378 158.304 349.378 158.304C348.48 158.518 343.61 174.383 346.221 175.859Z" fill="#262F36"/>
<path d="M343.21 184.7C348.058 184.767 349.373 182.309 349.008 180.81C347.578 174.915 347.136 171.782 347.135 171.769L345.33 172.781L344.898 172.986L341.154 174.772C341.154 174.772 341.161 175.032 341.166 175.451C341.169 175.765 341.171 176.164 341.167 176.614C341.165 177.011 341.156 177.444 341.141 177.887C341.14 177.92 341.139 177.954 341.138 177.988C341.119 178.549 341.087 179.122 341.036 179.641C340.984 180.193 340.912 180.685 340.814 181.049C340.799 181.109 340.781 181.166 340.764 181.219C340.434 182.202 338.566 184.637 343.21 184.7Z" fill="#E29171"/>
<path d="M340.815 181.05L340.814 181.054C342.392 180.704 345.46 178.215 345.667 174.82C345.67 174.778 345.15 175.057 345.151 175.013C345.151 175.013 344.98 175.148 344.702 175.359C343.886 175.986 342.153 177.291 341.141 177.887C341.14 177.92 341.139 177.954 341.138 177.988C341.119 178.549 341.087 179.122 341.036 179.641C340.985 180.192 340.912 180.685 340.815 181.05Z" fill="#9B5846"/>
<path d="M339.144 178.435C346.348 179.468 347.682 170.894 347.682 170.894C350.141 157.443 338.117 158.339 336.059 164.987C333.807 172.265 332.058 177.42 339.144 178.435Z" fill="#E29171"/>
<path d="M342.958 178.216C344.623 177.202 345.767 175.718 346.731 174.05C346.766 173.989 346.666 173.944 346.631 174.005C345.676 175.658 344.545 177.121 342.895 178.127C342.834 178.163 342.897 178.253 342.958 178.216Z" fill="#9B5846"/>
<path d="M338.391 171.732C338.311 171.934 338.138 172.245 338.26 172.463C338.376 172.67 338.702 172.669 338.889 172.75C338.984 172.791 339.046 172.643 338.951 172.602C338.825 172.547 338.615 172.539 338.51 172.469C338.243 172.29 338.483 171.93 338.57 171.716C338.728 171.325 338.919 170.948 339.086 170.561C339.331 169.994 339.578 169.377 339.397 168.758C339.368 168.659 339.22 168.72 339.249 168.818C339.529 169.782 338.729 170.87 338.391 171.732Z" fill="#9B5846"/>
<path d="M341.989 168.926C342.796 169.198 343.479 169.333 343.615 168.931C343.75 168.53 343.252 167.846 342.445 167.574C341.638 167.301 340.828 167.544 340.692 167.946C340.557 168.347 341.182 168.654 341.989 168.926Z" fill="#9B5846"/>
<path d="M337.501 168.061C338.406 168.185 339.152 168.195 339.209 167.775C339.266 167.355 338.599 166.77 337.694 166.646C336.789 166.523 335.989 166.907 335.931 167.327C335.874 167.747 336.595 167.938 337.501 168.061Z" fill="#9B5846"/>
<path d="M341.167 171.277C341.422 171.331 341.691 171.079 341.767 170.714C341.843 170.35 341.698 170.012 341.443 169.958C341.189 169.905 340.92 170.157 340.844 170.521C340.768 170.885 340.913 171.224 341.167 171.277Z" fill="#262F36"/>
<path d="M337.753 170.325C338.008 170.378 338.277 170.126 338.353 169.762C338.429 169.398 338.284 169.059 338.029 169.006C337.774 168.952 337.506 169.204 337.43 169.569C337.354 169.933 337.499 170.271 337.753 170.325Z" fill="#262F36"/>
<path d="M336.384 162.964C336.692 163.285 337.175 163.317 337.618 163.337C339.86 163.438 342.088 163.669 344.289 164.027C344.759 164.104 345.286 164.228 345.501 164.675C345.601 164.884 345.614 165.132 345.622 165.373C345.672 166.966 345.298 169.278 345.92 169.424L347.076 170.796C347.693 171.085 348.478 170.48 348.703 169.757C348.928 169.035 348.752 168.275 348.543 167.583C348.484 167.388 348.421 167.19 348.417 166.981C348.408 166.621 348.568 166.271 348.718 165.935C349.466 164.265 350.064 162.526 350.5 160.754C350.635 160.205 350.749 159.599 350.516 159.122C350.382 158.847 350.147 158.651 349.907 158.483C349.192 157.983 348.364 157.659 347.498 157.542C346.933 157.466 346.329 157.469 345.851 157.162C345.575 156.984 345.359 156.713 345.064 156.571C344.4 156.252 343.606 156.677 342.877 156.923C342.224 157.143 341.494 157.21 340.929 156.868C340.673 156.713 340.464 156.481 340.202 156.334C339.523 155.951 338.605 156.235 337.987 156.82C337.37 157.405 337 158.23 336.721 159.05C336.475 159.768 336.284 160.504 336.149 161.247C336.039 161.854 335.993 162.556 336.384 162.964Z" fill="#262F36"/>
<path d="M347.732 172.683C348.865 172.053 349.378 170.813 348.877 169.913C348.377 169.013 347.052 168.794 345.92 169.424C344.787 170.054 344.274 171.295 344.775 172.195C345.275 173.095 346.6 173.313 347.732 172.683Z" fill="#E29171"/>
<path d="M345.575 172.937C345.484 172.922 345.465 173.066 345.557 173.081C346.372 173.221 347.291 173.029 348.014 172.632C348.66 172.279 348.965 171.623 349.122 170.933C349.143 170.842 348.999 170.824 348.978 170.914C348.808 171.663 348.46 172.285 347.736 172.605C347.061 172.903 346.309 173.063 345.575 172.937Z" fill="#9B5846"/>
<path d="M346.38 170.537C346.231 170.655 345.996 170.849 345.994 171.06C345.993 171.139 346.033 171.199 346.069 171.266C346.192 171.495 346.212 171.702 346.089 171.937C346.042 172.028 346.19 172.09 346.237 171.999C346.333 171.815 346.367 171.611 346.31 171.408C346.292 171.342 346.251 171.286 346.23 171.222C346.142 170.96 346.287 170.815 346.477 170.665C346.558 170.601 346.461 170.473 346.38 170.537Z" fill="#9B5846"/>
<path d="M345.703 169.675C345.857 169.523 346.039 169.413 346.244 169.342C346.311 169.319 346.273 169.216 346.206 169.239C345.982 169.316 345.787 169.439 345.618 169.605C345.568 169.654 345.653 169.724 345.703 169.675Z" fill="#9B5846"/>
<path d="M340.845 173.698C340.762 173.963 340.631 174.289 340.454 174.497C340.206 174.788 339.838 175.022 339.295 175.045C338.691 175.071 338.254 174.874 337.943 174.611C337.757 174.455 337.589 174.2 337.463 173.972C337.415 173.886 337.423 173.79 337.466 173.716C337.517 173.631 337.613 173.575 337.725 173.59C337.753 173.594 337.781 173.598 337.811 173.602C337.824 173.603 337.837 173.605 337.851 173.607C337.893 173.614 337.937 173.619 337.983 173.624C338.001 173.626 338.019 173.628 338.037 173.63C338.184 173.645 338.347 173.658 338.522 173.665C338.579 173.667 338.636 173.669 338.695 173.67C338.723 173.671 338.752 173.671 338.783 173.67C338.813 173.671 338.843 173.67 338.874 173.67C338.904 173.67 338.935 173.67 338.965 173.669C338.996 173.669 339.026 173.668 339.058 173.666C339.102 173.665 339.147 173.662 339.192 173.66C339.227 173.658 339.263 173.656 339.3 173.652C339.382 173.646 339.466 173.639 339.55 173.628C339.58 173.625 339.611 173.621 339.641 173.617C339.753 173.602 339.867 173.584 339.981 173.562C340.03 173.552 340.08 173.542 340.129 173.531C340.169 173.522 340.21 173.512 340.251 173.502C340.269 173.498 340.285 173.494 340.301 173.489C340.339 173.48 340.376 173.47 340.413 173.458C340.462 173.446 340.511 173.43 340.561 173.414C340.656 173.383 340.747 173.418 340.803 173.483C340.85 173.539 340.872 173.617 340.845 173.698Z" fill="#262F36"/>
<path d="M340.802 173.483C340.339 173.826 339.617 174.233 338.897 174.134C338.324 174.057 337.828 173.881 337.466 173.716C337.516 173.631 337.613 173.575 337.725 173.59C337.753 173.594 337.781 173.598 337.811 173.602C337.823 173.604 337.837 173.606 337.851 173.608C337.893 173.614 337.937 173.62 337.983 173.624C338 173.626 338.019 173.628 338.037 173.63C338.184 173.646 338.347 173.659 338.522 173.665C338.578 173.667 338.636 173.67 338.695 173.67C338.723 173.671 338.752 173.672 338.783 173.67C338.813 173.671 338.843 173.672 338.874 173.671C338.904 173.67 338.935 173.67 338.965 173.669C338.996 173.669 339.026 173.668 339.058 173.666C339.102 173.665 339.147 173.663 339.192 173.66C339.227 173.658 339.263 173.656 339.3 173.653C339.382 173.646 339.466 173.639 339.55 173.629C339.58 173.625 339.611 173.621 339.641 173.617C339.753 173.602 339.866 173.584 339.981 173.562C340.03 173.552 340.08 173.542 340.129 173.531C340.17 173.522 340.21 173.512 340.251 173.502C340.268 173.498 340.285 173.494 340.301 173.489C340.339 173.48 340.376 173.47 340.413 173.459C340.462 173.446 340.511 173.43 340.561 173.414C340.655 173.383 340.746 173.418 340.802 173.483Z" fill="white"/>
<path d="M340.454 174.497C340.206 174.788 339.838 175.022 339.295 175.045C338.691 175.071 338.254 174.874 337.943 174.611C338.204 174.482 338.705 174.294 339.286 174.375C339.286 174.375 340.102 174.011 340.454 174.497Z" fill="#E55A4D"/>
<path d="M355.448 221.876C355.821 222.013 356.155 222.052 356.435 221.978C356.436 221.977 356.436 221.977 356.437 221.977C356.511 221.957 356.582 221.929 356.648 221.893C357.059 221.669 357.251 221.156 357.241 220.452C357.223 219.159 356.527 217.225 355.281 215.266C354.869 214.617 354.43 214.019 353.986 213.483C352.354 211.524 350.627 210.425 349.709 210.925C348.54 211.563 349.126 214.546 351.049 217.571C352.454 219.779 354.168 221.407 355.448 221.876Z" fill="#262F36"/>
<path d="M350.468 210.638C352.431 210.064 354.35 209.389 356.241 208.646C359.58 207.334 362.831 205.81 366.079 204.258C366.172 204.214 366.114 204.063 366.02 204.108C360.932 206.538 355.836 208.902 350.409 210.488C350.309 210.517 350.369 210.667 350.468 210.638Z" fill="white"/>
<path d="M364.602 204.748C364.665 204.831 364.795 204.736 364.732 204.653C363.816 203.445 362.9 202.236 361.984 201.028C361.921 200.945 361.791 201.04 361.854 201.123C362.77 202.332 363.686 203.54 364.602 204.748Z" fill="white"/>
<path d="M353.933 215.607C354.243 215.01 352.247 212.601 350.864 211.884C349.48 211.168 346.705 209.649 346.441 209.934C345.04 211.452 348.359 213.33 349.743 214.047C351.127 214.764 353.624 216.204 353.933 215.607Z" fill="#E29171"/>
<path d="M314.299 188.329C314.31 188.527 314.179 188.774 313.935 189.05C313.735 189.276 313.459 189.522 313.121 189.776C312.648 190.134 312.054 190.505 311.384 190.864C310.911 191.115 310.4 191.359 309.866 191.585C308.867 192.009 307.936 192.302 307.18 192.453C307.011 192.487 306.85 192.513 306.699 192.531C306.438 192.564 306.208 192.575 306.012 192.564C305.568 192.538 305.305 192.397 305.289 192.131C305.287 192.089 305.291 192.044 305.302 191.997C305.341 191.819 305.468 191.614 305.668 191.389C305.803 191.237 305.973 191.076 306.172 190.909C306.377 190.737 306.612 190.561 306.874 190.382C307.642 189.858 308.631 189.319 309.718 188.859C310.665 188.456 311.549 188.175 312.283 188.022C312.75 187.925 313.155 187.879 313.479 187.887C313.982 187.9 314.284 188.045 314.299 188.329Z" fill="#262F36"/>
<path d="M343.167 218.175C345.959 217.746 346.701 217.081 346.599 216.416C346.497 215.751 345.589 215.339 342.797 215.767C340.006 216.196 335.758 216.958 335.926 218.054C336.071 218.995 340.375 218.603 343.167 218.175Z" fill="#E29171"/>
<path d="M344.819 220.501C347.863 220.034 348.679 219.357 348.577 218.692C348.475 218.028 347.493 217.627 344.45 218.094C341.406 218.561 336.774 219.382 336.942 220.477C337.087 221.419 341.776 220.968 344.819 220.501Z" fill="#E29171"/>
<path d="M346.922 222.219C349.736 221.602 350.468 220.966 350.346 220.406C350.223 219.846 349.292 219.574 346.478 220.191C343.664 220.807 339.385 221.839 339.587 222.762C339.761 223.555 344.108 222.835 346.922 222.219Z" fill="#E29171"/>
<path d="M346.862 215.624C349.943 215.444 350.821 214.846 350.782 214.175C350.743 213.503 349.801 213.013 346.72 213.192C343.64 213.372 338.941 213.756 339.006 214.863C339.061 215.813 343.782 215.804 346.862 215.624Z" fill="#E29171"/>
<path d="M344.7 222.7L351.809 221.842C354.021 221.538 355.46 220.038 355.136 217.677L355.003 216.709C354.752 214.886 352.857 212.766 351.084 212.01L343.793 214.874C342.885 214.998 342.252 215.892 342.385 216.86L344.373 220.896C344.506 221.864 343.793 222.825 344.7 222.7Z" fill="#E29171"/>
<path d="M342.888 218.35C343.354 218.331 343.82 218.312 344.285 218.293C344.397 218.288 344.386 218.115 344.274 218.12C343.808 218.139 343.343 218.158 342.877 218.177C342.766 218.182 342.777 218.355 342.888 218.35Z" fill="#9B5846"/>
<path d="M343.784 220.824C344.062 220.77 344.341 220.729 344.623 220.702C344.733 220.692 344.723 220.519 344.611 220.529C344.33 220.556 344.051 220.597 343.773 220.651C343.665 220.672 343.674 220.845 343.784 220.824Z" fill="#9B5846"/>
<path d="M342.528 215.824C342.774 215.846 343.019 215.851 343.265 215.833C343.376 215.825 343.365 215.652 343.254 215.66C343.023 215.676 342.792 215.675 342.562 215.654C342.452 215.643 342.417 215.813 342.528 215.824Z" fill="#9B5846"/>
<path d="M321.085 201.486C321.792 202.835 322.542 204.193 322.986 205.656C323.429 207.12 323.548 208.665 323.688 210.18C323.698 210.29 323.872 210.291 323.862 210.18C323.72 208.651 323.6 207.087 323.153 205.61C322.705 204.132 321.948 202.76 321.235 201.399C321.183 201.3 321.034 201.387 321.085 201.486Z" fill="white"/>
<path d="M328.478 200.965C330.082 205.646 330.995 210.38 331.374 215.311C331.383 215.422 331.556 215.423 331.547 215.311C331.168 210.367 330.254 205.614 328.645 200.919C328.609 200.814 328.442 200.859 328.478 200.965Z" fill="white"/>
<path d="M356.671 221.977C358.792 221.347 360.882 220.63 362.958 219.867C364.313 219.368 365.66 218.823 367.049 218.428C367.157 218.397 367.111 218.23 367.003 218.261C365.614 218.655 364.267 219.201 362.912 219.7C360.836 220.463 358.746 221.18 356.625 221.81C356.518 221.841 356.563 222.009 356.671 221.977Z" fill="white"/>
<path d="M309.748 188.685C310.381 188.796 310.872 189.575 311.993 188.597C313.206 187.537 312.714 185.334 312.677 184.662C312.511 181.639 313.039 180.366 312.772 180.24C310.989 179.397 310.228 182.958 309.971 184.423C309.714 185.888 309.116 188.573 309.748 188.685Z" fill="#E29171"/>
<path d="M307.512 182.434C308.839 185.609 309.834 186.34 310.578 186.084C311.323 185.829 311.534 184.684 310.207 181.509C308.88 178.334 306.732 173.526 305.506 173.947C304.452 174.309 306.185 179.259 307.512 182.434Z" fill="#E29171"/>
<path d="M301.829 185.804L304.245 189.656C305.155 191.584 308.88 191.069 309.918 190.274C311.037 189.417 312.903 188.656 312.412 186.131C312.291 185.509 312.027 184.78 311.573 183.917L308.368 180.469C307.995 179.679 307 179.358 306.157 179.756L303.049 182.72C302.206 183.118 301.456 185.014 301.829 185.804Z" fill="#E29171"/>
<path d="M300.534 183.385C299.625 181.474 300.09 181.096 300.739 180.788C301.387 180.48 301.974 180.357 302.882 182.268C303.791 184.178 304.646 186.49 303.671 186.954C302.768 187.383 301.442 185.295 300.534 183.385Z" fill="#E29171"/>
<path d="M302.452 181.884C301.543 179.974 302.008 179.596 302.656 179.288C303.305 178.98 303.891 178.857 304.8 180.768C305.708 182.678 306.564 184.99 305.589 185.454C304.685 185.883 303.36 183.795 302.452 181.884Z" fill="#E29171"/>
<path d="M304.162 180.954C303.253 179.044 303.718 178.666 304.367 178.358C305.015 178.049 305.602 177.927 306.51 179.837C307.419 181.748 308.274 184.059 307.299 184.523C306.396 184.953 305.071 182.865 304.162 180.954Z" fill="#E29171"/>
<path d="M301.591 185.559C301.856 186.391 302.721 187.328 303.692 187.128C304.809 186.898 304.468 185.551 304.162 184.829C304.12 184.727 303.972 184.815 304.015 184.915C304.17 185.282 304.348 185.69 304.319 186.098C304.278 186.68 303.811 187.072 303.227 186.951C302.505 186.801 301.972 186.191 301.756 185.514C301.723 185.409 301.557 185.454 301.591 185.559Z" fill="#9B5846"/>
<path d="M302.802 182.762C303.183 183.472 304.499 186.553 305.833 185.474C306.285 185.109 306.081 184.394 305.971 183.926C305.708 182.807 305.332 181.72 304.885 180.661C304.842 180.56 304.695 180.647 304.737 180.748C305.017 181.411 305.269 182.083 305.48 182.771C305.635 183.278 305.916 183.943 305.906 184.473C305.892 185.281 304.868 185.489 304.361 184.995C304.133 184.773 303.956 184.497 303.791 184.228C303.485 183.728 303.227 183.192 302.95 182.675C302.898 182.578 302.75 182.664 302.802 182.762Z" fill="#9B5846"/>
<path d="M305.72 183.513C306.031 184.149 306.525 184.837 307.319 184.506C307.803 184.305 307.851 183.899 307.816 183.411C307.728 182.17 307.165 180.661 306.494 179.609C306.434 179.517 306.286 179.602 306.346 179.695C306.786 180.385 307.071 181.218 307.319 181.992C307.472 182.469 307.629 182.978 307.651 183.481C307.659 183.653 307.68 183.88 307.602 184.039C307.386 184.474 306.467 184.255 306.207 183.999C306.055 183.849 305.96 183.614 305.868 183.427C305.82 183.328 305.672 183.415 305.72 183.513Z" fill="#9B5846"/>
<path d="M313.121 189.776C312.648 190.134 312.054 190.506 311.384 190.864C310.911 191.115 310.4 191.359 309.866 191.585C308.867 192.01 307.937 192.302 307.18 192.454C307.011 192.487 306.85 192.513 306.699 192.531C306.416 191.664 306.172 190.91 306.172 190.91L312.283 188.023L313.121 189.776Z" fill="#E29171"/>
<path d="M312.393 187.901C312.092 188.488 311.478 188.711 310.888 188.909C310.784 188.944 310.829 189.109 310.934 189.074C311.564 188.863 312.219 188.614 312.541 187.988C312.591 187.89 312.443 187.803 312.393 187.901Z" fill="#9B5846"/>
<path d="M309.503 184.226C309.02 185.715 308.632 187.211 308.883 188.782C308.9 188.89 309.065 188.844 309.048 188.737C308.802 187.199 309.197 185.725 309.668 184.272C309.702 184.167 309.536 184.122 309.503 184.226Z" fill="#9B5846"/>
<path d="M347.396 248.14C348.256 250.017 349.163 251.882 349.893 253.815C350.602 255.695 351.099 257.642 351.555 259.596C351.583 259.717 351.769 259.666 351.741 259.545C351.271 257.527 350.754 255.519 350.01 253.583C349.285 251.699 348.403 249.877 347.563 248.043C347.511 247.93 347.345 248.028 347.396 248.14Z" fill="white"/>
<path d="M356.919 242.541C358.619 244.934 361.311 246.411 364.244 246.554C364.368 246.561 364.367 246.368 364.244 246.362C361.382 246.222 358.745 244.78 357.085 242.443C357.014 242.343 356.846 242.439 356.919 242.541Z" fill="white"/>
<path d="M363.928 246.55C364.721 250.798 365.513 255.046 366.306 259.294C367.066 263.368 367.765 267.461 368.706 271.498C370.504 279.213 373.607 286.502 377.229 293.526C379.31 297.562 381.546 301.515 383.784 305.465C383.845 305.573 384.011 305.476 383.95 305.368C380.008 298.408 376.054 291.422 372.981 284.024C371.47 280.385 370.185 276.653 369.226 272.829C368.208 268.767 367.497 264.632 366.729 260.518C365.858 255.845 364.986 251.172 364.114 246.499C364.091 246.377 363.905 246.429 363.928 246.55Z" fill="white"/>
<path d="M375.789 308.685C377.863 308.245 379.902 307.632 381.858 306.809C383.346 306.181 384.768 305.376 385.665 303.99C385.733 303.885 385.566 303.789 385.498 303.893C384.495 305.444 382.803 306.24 381.138 306.893C379.385 307.58 377.578 308.109 375.737 308.499C375.616 308.525 375.667 308.71 375.789 308.685Z" fill="white"/>
</svg>
