<svg width="162" height="136" viewBox="0 0 162 136" fill="none" xmlns="http://www.w3.org/2000/svg">
<path d="M156.501 63.6837C150.039 67.5022 142.402 71.9081 134.178 76.6078L80.4258 44.2975V17.8618L156.501 63.6837Z" fill="#E6E7E8" stroke="#230819" stroke-width="2" stroke-miterlimit="10"/>
<path d="M80.4258 17.8618V44.2975C68.9704 51.0533 47.822 63.3899 27.5548 75.1391L5.23145 61.6275C29.6109 47.5285 64.5645 27.2612 80.4258 17.8618Z" fill="#BCBEC0" stroke="#230819" stroke-width="2" stroke-miterlimit="10"/>
<path d="M156.501 63.6836V90.1193C135.353 102.456 101.28 122.43 81.3066 133.885V107.449C95.1119 99.2249 115.673 87.182 134.178 76.6077C142.402 71.908 150.039 67.5021 156.501 63.6836Z" fill="#BCBEC0" stroke="#230819" stroke-width="2" stroke-miterlimit="10"/>
<path d="M134.178 76.6072C115.674 87.1814 95.1126 99.5181 81.3074 107.449L27.5552 75.1385C47.8224 63.3893 68.9708 50.7589 80.4262 44.2969L134.178 76.6072Z" fill="#6D6E71" stroke="#230819" stroke-width="2" stroke-miterlimit="10"/>
<path d="M81.307 107.449V134.178L5.23145 88.3566V61.9209L27.5548 75.1387L81.307 107.449Z" fill="#E6E7E8" stroke="#230819" stroke-width="2" stroke-miterlimit="10"/>
<path d="M2.29395 47.8219L4.64378 46.3532C29.0232 31.9605 63.9768 11.693 79.8381 2.58741L80.7193 2L160.026 49.8779L81.6005 95.6998L2.29395 47.8219Z" fill="#E6E7E8" stroke="#230819" stroke-width="2" stroke-miterlimit="10"/>
<path d="M81.6001 95.4063L160.025 49.5845V69.5582L81.6001 115.38V95.4063Z" fill="#BCBEC0" stroke="#230819" stroke-width="2" stroke-miterlimit="10"/>
<path d="M2 67.5016V47.8218L81.6003 95.406V115.38L2 67.5016Z" fill="#E6E7E8" stroke="#230819" stroke-width="2" stroke-miterlimit="10"/>
<path d="M29.0238 63.6831H28.729H29.0238Z" fill="#BCBEC0" stroke="#230819" stroke-width="2" stroke-miterlimit="10"/>
<path d="M120.959 26.0858L93.349 42.5347L78.6626 34.0166L106.273 17.2739L120.959 26.0858Z" fill="#BCBEC0" stroke="#230819" stroke-width="2" stroke-miterlimit="10"/>
<path d="M132.121 66.034V65.7393V66.034Z" fill="#BCBEC0" stroke="#230819" stroke-width="2" stroke-miterlimit="10"/>
<path d="M45.4717 112.736L31.079 103.925L29.9041 84.2447L29.0229 63.6836L37.8348 69.2644L43.1219 72.4955L44.5905 93.0566L45.4717 112.736Z" fill="#BCBEC0" stroke="#230819" stroke-width="2" stroke-miterlimit="10"/>
<path d="M132.121 65.7392L124.19 70.7326L117.728 74.5511L117.435 74.8448L78.6627 51.6402L63.9763 42.8283L37.8345 27.2606C42.8278 24.3233 47.8212 21.386 52.8146 18.4487L78.6627 34.0164L93.3491 42.8283L132.121 65.7392Z" fill="#BCBEC0" stroke="#230819" stroke-width="2" stroke-miterlimit="10"/>
<path d="M78.6628 51.3466L43.1217 72.4951L37.8346 69.2641L29.0227 63.6833H28.729L63.9764 42.5347L78.6628 51.3466Z" fill="#BCBEC0" stroke="#230819" stroke-width="2" stroke-miterlimit="10"/>
<path d="M132.121 66.0332L130.946 86.5943L129.772 105.98C125.072 108.918 120.079 111.561 115.379 114.499L116.554 95.1124L117.729 74.5513L124.191 70.7329L132.121 66.0332Z" fill="#939598" stroke="#230819" stroke-width="2" stroke-miterlimit="10"/>
<path d="M80.1319 33.4291C77.7821 34.3103 75.4323 35.4852 73.3762 36.3664C73.0824 36.3664 72.495 36.3665 72.2013 36.0727C63.9769 30.7856 54.8713 27.5546 44.8845 27.2609C44.8845 27.2609 44.8845 27.2609 44.5908 27.2609C45.472 23.4424 47.2344 19.9176 48.9967 16.3928C51.3466 12.2806 54.5776 8.75582 58.6898 5.81852C59.5709 5.23106 60.1584 5.23106 60.7459 5.81852C66.033 9.34328 70.4389 14.043 73.3762 19.6239C75.726 23.7361 77.4884 28.142 79.5445 32.548C80.1319 32.8417 80.1319 33.1354 80.1319 33.4291Z" fill="#939598" stroke="#230819" stroke-width="2" stroke-miterlimit="10"/>
<path d="M68.3829 36.3662C60.1586 36.0725 52.5216 33.7226 45.4722 29.0229C53.9903 29.0229 61.6272 31.0791 68.3829 36.3662Z" fill="#939598" stroke="#230819" stroke-width="2" stroke-miterlimit="10"/>
<path d="M77.4883 46.0594C65.1517 48.4093 53.9901 53.6964 43.1221 60.7459C42.2409 58.6898 41.6535 56.6337 41.066 54.5776C38.7162 47.5281 37.2476 40.1849 37.2476 32.8416C37.2476 31.373 37.5413 30.7855 39.0099 30.1981C50.4653 26.3796 61.627 27.2607 72.7886 32.5479C73.6698 33.1353 74.2573 33.7228 74.551 34.604C75.4322 38.1288 76.6071 41.3598 77.4883 44.5908C77.1946 45.1783 77.4883 45.472 77.4883 46.0594Z" fill="#939598" stroke="#230819" stroke-width="2" stroke-miterlimit="10"/>
<path d="M112.442 24.9109C107.448 26.3796 102.455 27.8482 98.3429 30.7855C95.6993 32.5479 93.0558 34.8977 90.4122 36.9538C89.531 37.5413 89.2373 37.8351 88.3561 37.5413C87.1812 36.9539 85.7126 36.6602 84.5376 36.0727C84.2439 36.0727 83.9502 35.1914 83.9502 34.8977C85.7126 25.7921 89.2373 17.2739 95.993 10.2244L96.2868 9.93066C102.455 12.868 110.386 19.0363 112.442 24.9109Z" fill="#939598" stroke="#230819" stroke-width="2" stroke-miterlimit="10"/>
<path d="M75.4321 33.1354C80.1318 31.6668 84.244 31.373 88.6499 33.4291C88.0624 36.9538 87.475 40.1848 86.5938 43.7096C84.5377 44.0033 82.1879 44.5909 79.838 44.8846C79.5443 44.8846 78.6631 44.5908 78.6631 44.2971C77.7819 40.7723 76.607 36.9539 75.4321 33.1354Z" fill="#939598" stroke="#230819" stroke-width="2" stroke-miterlimit="10"/>
<path d="M73.3759 48.7031C64.8578 55.1652 55.4585 59.5711 44.8843 61.6272C53.4024 55.1652 62.8017 50.7592 73.3759 48.7031Z" fill="#939598" stroke="#230819" stroke-width="2" stroke-miterlimit="10"/>
<path d="M94.8184 35.1917C99.8117 31.0795 105.393 28.1422 111.561 26.9673C106.567 31.0795 100.987 33.723 94.8184 35.1917Z" fill="#939598" stroke="#230819" stroke-width="2" stroke-miterlimit="10"/>
<path d="M122.429 54.5777C112.148 47.2344 100.693 44.0034 87.769 44.0034C88.6502 40.4786 89.2377 37.2476 90.1189 34.0166C90.1189 33.7228 90.7063 33.1354 91.2938 32.8417C98.3433 29.3169 105.98 26.0859 113.911 25.2047C116.848 24.9109 119.785 25.2047 122.723 25.4984C123.016 25.4984 123.898 26.0859 123.898 26.6733C125.954 36.0727 125.66 45.1783 122.723 54.2839C122.723 54.2839 122.723 54.2839 122.429 54.5777Z" fill="#939598" stroke="#230819" stroke-width="2" stroke-miterlimit="10"/>
<path d="M91 46.0597C100.399 45.766 114.205 49.8782 120.667 55.1654C115.379 56.9278 96.8746 51.3469 91 46.0597Z" fill="#939598" stroke="#230819" stroke-width="2" stroke-miterlimit="10"/>
<path d="M84.5379 45.1784C77.4884 54.8715 74.5511 66.0333 74.8449 78.3699C70.7327 75.7264 68.6766 72.2016 67.2079 67.7957C63.0957 68.9706 58.9836 70.1455 54.8714 71.6141L54.5776 71.3204C56.6337 68.0894 58.3961 64.5646 60.7459 61.6273C64.8581 55.7527 69.8515 50.7594 75.726 46.3534C76.901 45.4722 78.0759 45.1784 79.2508 45.1784C81.0131 45.1784 82.7755 44.8848 84.2442 44.8848C84.2442 44.8848 84.2442 45.1784 84.5379 45.1784Z" fill="#939598" stroke="#230819" stroke-width="2" stroke-miterlimit="10"/>
<path d="M117.729 63.3898C113.617 63.3898 109.504 63.3898 105.392 63.3898C103.924 63.3898 103.336 63.6835 103.336 65.1522C102.749 68.9707 101.574 72.4954 98.9303 75.139C98.6366 75.4327 98.3428 75.7264 98.0491 76.0201C97.1679 73.964 96.2867 71.908 95.4056 69.8519C92.4683 63.0961 88.3561 56.634 83.6564 50.7594C83.069 50.172 82.7752 49.5845 83.3627 48.7033C84.5376 46.6472 85.4188 44.591 86.5937 42.2412C98.3428 47.2346 108.623 54.2842 117.729 63.3898Z" fill="#939598" stroke="#230819" stroke-width="2" stroke-miterlimit="10"/>
</svg>
