<svg width="19" height="10" viewBox="0 0 19 10" fill="none" xmlns="http://www.w3.org/2000/svg">
<path d="M0.791016 1.59082H17.2178C17.6572 1.59082 18.0176 1.23047 18.0176 0.791016C18.0176 0.351562 17.6572 0 17.2178 0H0.791016C0.351562 0 0 0.351562 0 0.791016C0 1.22168 0.351562 1.59082 0.791016 1.59082ZM0.791016 5.5459H17.2178C17.6572 5.5459 18.0176 5.18555 18.0176 4.75488C18.0176 4.30664 17.6572 3.94629 17.2178 3.94629H0.791016C0.351562 3.94629 0 4.30664 0 4.75488C0 5.18555 0.351562 5.5459 0.791016 5.5459ZM0.791016 9.50977H17.2178C17.6572 9.50977 18.0176 9.14941 18.0176 8.70117C18.0176 8.26172 17.6572 7.91016 17.2178 7.91016H0.791016C0.351562 7.91016 0 8.27051 0 8.70117C0 9.14062 0.351562 9.50977 0.791016 9.50977Z" fill="#230819"/>
</svg>
