<svg width="208" height="66" viewBox="0 0 208 66" fill="none" xmlns="http://www.w3.org/2000/svg">
<path d="M15.6482 23.6554L16.0988 23.3554L15.7641 22.93C15.245 22.2703 14.7963 21.641 14.4563 21.0856C14.1107 20.5211 13.8982 20.0663 13.8211 19.7488L13.8162 19.7284L13.8095 19.7084C13.7811 19.6233 13.7643 19.522 13.7418 19.3857C13.7389 19.3677 13.7358 19.3492 13.7326 19.33L13.7131 19.2131L13.6432 19.1174L12.8049 17.9694L12.8041 17.9683C12.0924 16.9991 11.9779 16.1232 12.0591 15.4543L12.1616 14.6099L11.374 14.9311L2.76684 18.4407L2.75617 18.4442C2.73689 18.4509 2.71091 18.4602 2.67919 18.4725C2.61582 18.497 2.52896 18.5335 2.4263 18.5841C2.22188 18.6849 1.94935 18.8443 1.67398 19.081C1.11519 19.5613 0.551761 20.357 0.523984 21.5775C0.499853 22.6377 0.499911 25.0309 0.505892 27.1512C0.508888 28.213 0.51338 29.209 0.517124 29.9395C0.518996 30.3048 0.520681 30.6037 0.521898 30.8113L0.523337 31.0511L0.523728 31.1139L0.52378 31.1221C0.523404 31.1321 0.523082 31.1444 0.522978 31.1589C0.522757 31.1898 0.523517 31.231 0.526933 31.2801C0.533695 31.3772 0.551247 31.5109 0.59534 31.6598C0.684192 31.9598 0.89002 32.3445 1.34433 32.5804L1.34431 32.5805L1.35141 32.584C1.39214 32.6043 1.60044 32.7159 1.95576 32.9062C2.36853 33.1273 2.97969 33.4546 3.75705 33.8686C5.12625 34.6113 6.99577 35.6038 9.1279 36.7357C10.0206 37.2096 10.9594 37.708 11.9267 38.2227L12.6616 38.6137V37.7813V37.7728V37.7642V37.7555V37.7467V37.7377V37.7286V37.7194V37.71V37.7006V37.691V37.6813V37.6714V37.6615V37.6514V37.6412V37.6309V37.6205V37.6099V37.5993V37.5885V37.5776V37.5666V37.5554V37.5442V37.5328V37.5213V37.5097V37.498V37.4862V37.4743V37.4622V37.4501V37.4378V37.4254V37.4129V37.4003V37.3876V37.3748V37.3619V37.3489V37.3357V37.3225V37.3091V37.2957V37.2821V37.2684V37.2546V37.2408V37.2268V37.2127V37.1985V37.1842V37.1698V37.1553V37.1407V37.126V37.1112V37.0963V37.0813V37.0662V37.051V37.0357V37.0204V37.0049V36.9893V36.9736V36.9578V36.942V36.926V36.91V36.8938V36.8776V36.8612V36.8448V36.8283V36.8117V36.795V36.7782V36.7613V36.7444V36.7273V36.7102V36.693V36.6756V36.6582V36.6407V36.6232V36.6055V36.5878V36.5699V36.552V36.534V36.5159V36.4978V36.4795V36.4612V36.4428V36.4243V36.4058V36.3871V36.3684V36.3496V36.3307V36.3117V36.2927V36.2736V36.2544V36.2351V36.2158V36.1964V36.1769V36.1573V36.1377V36.118V36.0982V36.0783V36.0584V36.0384V36.0183V35.9982V35.978V35.9577V35.9374V35.9169V35.8965V35.8759V35.8553V35.8346V35.8139V35.7931V35.7722V35.7512V35.7302V35.7092V35.688V35.6668V35.6456V35.6243V35.6029V35.5814V35.5599V35.5384V35.5168V35.4951V35.4733V35.4515V35.4297V35.4078V35.3858V35.3638V35.3417V35.3196V35.2974V35.2752V35.2529V35.2305V35.2081V35.1857V35.1632V35.1406V35.118V35.0954V35.0727V35.0499V35.0271V35.0042V34.9813V34.9584V34.9354V34.9124V34.8893V34.8662V34.843V34.8198V34.7965V34.7732V34.7498V34.7264V34.703V34.6795V34.656V34.6325V34.6089V34.5852V34.5615V34.5378V34.5141V34.4903V34.4664V34.4426V34.4187V34.3947V34.3708V34.3467V34.3227V34.2986V34.2745V34.2504V34.2262V34.202V34.1777V34.1534V34.1291V34.1048V34.0804V34.056V34.0316V34.0072V33.9827V33.9582V33.9337V33.9091V33.8845V33.8599V33.8353V33.8106V33.7859V33.7612V33.7365V33.7117V33.6869V33.6621V33.6373V33.6125V33.5876V33.5627V33.5378V33.5129V33.488V33.463V33.438V33.413V33.388V33.363V33.338V33.3129V33.2878V33.2628V33.2377V33.2126V33.1874V33.1623V33.1371V33.112V33.0868V33.0616V33.0364V33.0112V32.986V32.9608V32.9356V32.9104V32.8851V32.8599V32.8346V32.8094V32.7841V32.7588V32.7336V32.7083V32.683V32.6577V32.6324V32.6072V32.5819V32.5566V32.5313V32.506V32.4807V32.4554V32.4301V32.4048V32.3796V32.3543V32.329V32.3037V32.2785V32.2532V32.2279V32.2027V32.1774V32.1522V32.127V32.1017V32.0765V32.0513V32.0261V32.0009V31.9758V31.9506V31.9254V31.9003V31.8751V31.85V31.8249V31.7998V31.7747V31.7497V31.7246V31.6996V31.6745V31.6495V31.6245V31.5996V31.5746V31.5497V31.5248V31.4999V31.475V31.4501V31.4253V31.4005V31.3757V31.3509V31.3261V31.3014V31.2767V31.252V31.2273V31.2027V31.1781V31.1535V31.1289V31.1044V31.0799V31.0554V31.031V31.0066V30.9822V30.9578V30.9335V30.9092V30.8849V30.8606V30.8364V30.8123V30.7881V30.764V30.7399V30.7159V30.6919V30.6679V30.644V30.6201V30.5962V30.5724V30.5486V30.5248V30.5011V30.4774V30.4538V30.4302V30.4066V30.3831V30.3596V30.3362V30.3128V30.2895V30.2662V30.2429V30.2197V30.1965V30.1734V30.1503V30.1272V30.1043V30.0813V30.0584V30.0356V30.0128V29.99V29.9673V29.9447V29.9221V29.8995V29.877V29.8546V29.8322V29.8098V29.7875V29.7653V29.7431V29.721V29.6989V29.6769V29.6549V29.633V29.6112V29.5894V29.5676V29.546V29.5243V29.5028V29.4813V29.4599V29.4385V29.4172V29.3959V29.3747V29.3536V29.3325V29.3115V29.2906V29.2697V29.2489V29.2281V29.2075V29.1868V29.1663V29.1458V29.1254V29.1051V29.0848V29.0646V29.0444V29.0244V29.0044V28.9845V28.9646V28.9448V28.9251V28.9055V28.8859V28.8664V28.847V28.8277V28.8084V28.7892V28.7701V28.7511V28.7321V28.7133V28.6945V28.6757V28.6571V28.6385V28.62V28.6016V28.5833V28.5651V28.5469V28.5288V28.5108V28.4929V28.4751V28.4574V28.4397V28.4221V28.4047V28.3873V28.3699V28.3527V28.3356V28.3185V28.3016V28.2847V28.2679V28.2512V28.2346V28.2181V28.2017V28.1854V28.1691V28.153V28.1369V28.121V28.1051V28.0893V28.0737V28.0581V28.0426V28.0272V28.0119V27.9968V27.9817V27.9667V27.9518V27.937V27.9223V27.9077V27.8932V27.8788V27.8645V27.8503V27.8363V27.8223V27.8084V27.7946V27.781V27.7674V27.7539V27.7406V27.7273V27.7142V27.7012V27.6883V27.6754V27.6627V27.6501V27.6377V27.6253V27.613V27.6009V27.5888V27.5769V27.5651V27.5534V27.5418V27.5303V27.519V27.5077V27.4966C12.6616 25.4098 14.387 24.1543 15.4715 23.7564L15.5271 23.736L15.5764 23.7032L15.6482 23.6554Z" fill="#FF86B4" fill-opacity="0.5" stroke="#230819"/>
<path d="M20.2575 31.8975H20.7575V31.8801L20.7564 31.8645L20.7564 31.864L20.7563 31.8638L20.7559 31.8554C20.7555 31.8468 20.755 31.8323 20.7546 31.8124C20.7539 31.7726 20.7539 31.7116 20.7574 31.6341C20.7642 31.4782 20.7847 31.2591 20.8388 31.0116C20.948 30.5116 21.1855 29.9327 21.6856 29.5018L22.201 29.0578L21.6234 28.6985C20.2297 27.8315 18.282 25.9421 16.6641 24.0177L16.4316 23.741L16.096 23.8751L15.6214 24.0647L15.6171 24.0663L15.5916 24.0762C15.5706 24.0846 15.5415 24.0966 15.5056 24.1122C15.4337 24.1433 15.3339 24.1894 15.2155 24.2512C14.9796 24.3743 14.6636 24.5634 14.3452 24.8278C13.7104 25.3549 13.0269 26.2184 13.0269 27.4727V27.4851V27.4976V27.5103V27.5232V27.5361V27.5492V27.5625V27.5759V27.5894V27.6031V27.6169V27.6309V27.645V27.6592V27.6736V27.688V27.7027V27.7174V27.7323V27.7474V27.7625V27.7778V27.7932V27.8088V27.8244V27.8402V27.8562V27.8722V27.8884V27.9047V27.9212V27.9377V27.9544V27.9712V27.9881V28.0052V28.0224V28.0396V28.057V28.0746V28.0922V28.11V28.1279V28.1459V28.164V28.1822V28.2005V28.219V28.2376V28.2562V28.275V28.2939V28.3129V28.3321V28.3513V28.3706V28.3901V28.4096V28.4293V28.4491V28.4689V28.4889V28.509V28.5292V28.5495V28.5698V28.5903V28.6109V28.6316V28.6524V28.6733V28.6943V28.7153V28.7365V28.7578V28.7792V28.8006V28.8222V28.8438V28.8656V28.8874V28.9093V28.9313V28.9534V28.9756V28.9979V29.0203V29.0427V29.0653V29.0879V29.1106V29.1334V29.1563V29.1793V29.2023V29.2255V29.2487V29.272V29.2953V29.3188V29.3423V29.3659V29.3896V29.4134V29.4372V29.4611V29.4851V29.5092V29.5333V29.5575V29.5818V29.6062V29.6306V29.6551V29.6796V29.7043V29.729V29.7537V29.7786V29.8035V29.8285V29.8535V29.8786V29.9037V29.929V29.9542V29.9796V30.005V30.0305V30.056V30.0816V30.1072V30.1329V30.1587V30.1845V30.2104V30.2363V30.2623V30.2883V30.3144V30.3405V30.3667V30.3929V30.4192V30.4456V30.472V30.4984V30.5249V30.5514V30.578V30.6046V30.6313V30.658V30.6848V30.7116V30.7384V30.7653V30.7922V30.8192V30.8462V30.8732V30.9003V30.9274V30.9546V30.9818V31.009V31.0363V31.0636V31.0909V31.1183V31.1457V31.1731V31.2006V31.2281V31.2556V31.2832V31.3107V31.3384V31.366V31.3937V31.4213V31.4491V31.4768V31.5046V31.5324V31.5602V31.588V31.6158V31.6437V31.6716V31.6995V31.7275V31.7554V31.7834V31.8114V31.8394V31.8674V31.8954V31.9235V31.9515V31.9796V32.0077V32.0358V32.0639V32.092V32.1201V32.1482V32.1764V32.2045V32.2327V32.2609V32.289V32.3172V32.3454V32.3736V32.4017V32.4299V32.4581V32.4863V32.5145V32.5427V32.5709V32.5991V32.6272V32.6554V32.6836V32.7118V32.7399V32.7681V32.7963V32.8244V32.8525V32.8807V32.9088V32.9369V32.965V32.9931V33.0212V33.0493V33.0773V33.1054V33.1334V33.1614V33.1894V33.2174V33.2453V33.2733V33.3012V33.3291V33.357V33.3849V33.4127V33.4406V33.4684V33.4962V33.5239V33.5517V33.5794V33.6071V33.6347V33.6624V33.69V33.7175V33.7451V33.7726V33.8001V33.8276V33.855V33.8824V33.9097V33.9371V33.9644V33.9916V34.0189V34.046V34.0732V34.1003V34.1274V34.1544V34.1814V34.2084V34.2353V34.2622V34.289V34.3158V34.3426V34.3693V34.396V34.4226V34.4491V34.4757V34.5021V34.5286V34.555V34.5813V34.6076V34.6338V34.66V34.6861V34.7122V34.7382V34.7642V34.7901V34.816V34.8418V34.8675V34.8932V34.9189V34.9444V34.9699V34.9954V35.0208V35.0461V35.0714V35.0966V35.1218V35.1469V35.1719V35.1968V35.2217V35.2466V35.2713V35.296V35.3206V35.3452V35.3697V35.3941V35.4184V35.4427V35.4669V35.491V35.5151V35.539V35.563V35.5868V35.6105V35.6342V35.6578V35.6813V35.7048V35.7281V35.7514V35.7746V35.7977V35.8208V35.8437V35.8666V35.8894V35.9121V35.9347V35.9572V35.9797V36.002V36.0243V36.0465V36.0686V36.0906V36.1125V36.1343V36.156V36.1777V36.1992V36.2207V36.242V36.2633V36.2844V36.3055V36.3265V36.3473V36.3681V36.3888V36.4094V36.4298V36.4502V36.4705V36.4906V36.5107V36.5307V36.5505V36.5703V36.5899V36.6095V36.6289V36.6482V36.6674V36.6865V36.7055V36.7244V36.7432V36.7619V36.7804V36.7988V36.8172V36.8354V36.8535V36.8715V36.8893V36.9071V36.9247V36.9422V36.9596V36.9769V36.994V37.0111V37.028V37.0448V37.0614V37.078V37.0944V37.1107V37.1268V37.1429V37.1588V37.1746V37.1902V37.2058V37.2212V37.2364V37.2516V37.2666V37.2814V37.2962V37.3108V37.3253V37.3396V37.3538V37.3679V37.3818V37.3956V37.4093V37.4228V37.4362V37.4494V37.4625V37.4755V37.4883V37.5009V37.5135V37.5258V37.5381V37.5502V37.5621V37.5739V37.5856V37.5971V37.6085V37.6197V37.6307V37.6416V37.6524V37.663V37.6734V37.6837V37.6939V37.7039V37.7137V37.7234V37.7329V37.7423V37.7515V37.7605V37.7694V37.7782V37.7867V37.7952V37.8034V37.8115V37.8194V37.8272V37.8348V37.8422V37.8495V37.8566V37.8635V37.8702V37.8768V37.8833V37.8895V37.8956V37.9015V37.9073V37.9128V37.9182V37.9235V37.9285V37.9334V37.9381V37.9426V37.947V37.9511V37.9551V37.9561C13.0262 37.9615 13.0254 37.9672 13.0247 37.9732C13.0195 38.0152 13.015 38.0709 13.015 38.1371C13.015 38.2658 13.0322 38.4402 13.1002 38.6326C13.2149 39.0009 13.5001 39.3928 14.0271 39.6423L14.094 39.6757L14.1659 39.7116L14.1845 39.7209L14.2037 39.7286C14.4155 39.8131 14.8233 40.0157 15.3797 40.3056L15.3797 40.3058L15.391 40.3113L20.2293 42.6792L20.7388 41.9654L20.8376 41.9159C20.8666 41.9526 20.8825 41.9849 20.8899 42.0013C20.8954 42.0133 20.8987 42.0222 20.8998 42.0253C20.9002 42.0263 20.9005 42.0272 20.9006 42.0275C20.9008 42.028 20.9005 42.0273 20.8994 42.0239L20.8992 42.0232C20.8978 42.0191 20.8945 42.0092 20.8907 41.9986C20.8864 41.9867 20.8797 41.9692 20.8705 41.9489C20.8626 41.9316 20.8513 41.9087 20.8353 41.8829C20.7914 41.7826 20.7575 41.6322 20.7575 41.3929V40.6276V40.6137V40.5996V40.5855V40.5713V40.5571V40.5427V40.5282V40.5137V40.4991V40.4843V40.4695V40.4546V40.4396V40.4246V40.4094V40.3942V40.3789V40.3635V40.348V40.3324V40.3168V40.301V40.2852V40.2693V40.2533V40.2373V40.2212V40.2049V40.1887V40.1723V40.1558V40.1393V40.1227V40.106V40.0893V40.0725V40.0556V40.0386V40.0215V40.0044V39.9872V39.9699V39.9526V39.9352V39.9177V39.9001V39.8825V39.8648V39.8471V39.8292V39.8113V39.7934V39.7753V39.7572V39.739V39.7208V39.7025V39.6841V39.6657V39.6472V39.6287V39.61V39.5914V39.5726V39.5538V39.5349V39.516V39.497V39.478V39.4589V39.4397V39.4205V39.4012V39.3818V39.3624V39.343V39.3235V39.3039V39.2843V39.2646V39.2448V39.2251V39.2052V39.1853V39.1654V39.1454V39.1253V39.1052V39.0851V39.0649V39.0446V39.0243V39.004V38.9836V38.9631V38.9426V38.9221V38.9015V38.8809V38.8602V38.8395V38.8187V38.7979V38.777V38.7561V38.7352V38.7142V38.6932V38.6721V38.651V38.6298V38.6087V38.5874V38.5662V38.5448V38.5235V38.5021V38.4807V38.4592V38.4377V38.4162V38.3947V38.3731V38.3514V38.3298V38.3081V38.2863V38.2645V38.2427V38.2209V38.1991V38.1772V38.1552V38.1333V38.1113V38.0893V38.0672V38.0452V38.0231V38.001V37.9788V37.9566V37.9344V37.9122V37.89V37.8677V37.8454V37.8231V37.8007V37.7783V37.756V37.7335V37.7111V37.6887V37.6662V37.6437V37.6212V37.5986V37.5761V37.5535V37.5309V37.5083V37.4857V37.4631V37.4404V37.4178V37.3951V37.3724V37.3497V37.327V37.3042V37.2815V37.2587V37.236V37.2132V37.1904V37.1676V37.1448V37.122V37.0992V37.0763V37.0535V37.0306V37.0078V36.9849V36.9621V36.9392V36.9163V36.8934V36.8705V36.8476V36.8247V36.8019V36.779V36.7561V36.7332V36.7103V36.6874V36.6645V36.6416V36.6187V36.5958V36.5729V36.55V36.5271V36.5042V36.4813V36.4584V36.4356V36.4127V36.3898V36.367V36.3441V36.3213V36.2985V36.2756V36.2528V36.23V36.2072V36.1844V36.1616V36.1389V36.1161V36.0934V36.0706V36.0479V36.0252V36.0025V35.9799V35.9572V35.9345V35.9119V35.8893V35.8667V35.8441V35.8215V35.799V35.7765V35.754V35.7315V35.709V35.6865V35.6641V35.6417V35.6193V35.5969V35.5746V35.5523V35.53V35.5077V35.4854V35.4632V35.441V35.4189V35.3967V35.3746V35.3525V35.3304V35.3084V35.2864V35.2644V35.2424V35.2205V35.1986V35.1768V35.1549V35.1331V35.1114V35.0896V35.0679V35.0463V35.0246V35.003V34.9815V34.96V34.9385V34.917V34.8956V34.8742V34.8529V34.8316V34.8103V34.7891V34.7679V34.7467V34.7256V34.7046V34.6835V34.6626V34.6416V34.6207V34.5999V34.5791V34.5583V34.5376V34.5169V34.4963V34.4757V34.4551V34.4346V34.4142V34.3938V34.3735V34.3532V34.3329V34.3127V34.2926V34.2725V34.2524V34.2324V34.2125V34.1926V34.1727V34.153V34.1332V34.1136V34.0939V34.0744V34.0549V34.0354V34.016V33.9967V33.9774V33.9582V33.939V33.9199V33.9008V33.8819V33.8629V33.8441V33.8253V33.8065V33.7878V33.7692V33.7507V33.7322V33.7138V33.6954V33.6771V33.6589V33.6407V33.6226V33.6046V33.5866V33.5687V33.5509V33.5331V33.5154V33.4978V33.4803V33.4628V33.4454V33.428V33.4108V33.3936V33.3765V33.3594V33.3424V33.3255V33.3087V33.292V33.2753V33.2587V33.2422V33.2257V33.2094V33.1931V33.1769V33.1607V33.1447V33.1287V33.1128V33.097V33.0813V33.0657V33.0501V33.0346V33.0192V33.0039V32.9887V32.9735V32.9585V32.9435V32.9286V32.9138V32.8991V32.8844V32.8699V32.8554V32.8411V32.8268V32.8126V32.7985V32.7845V32.7706V32.7568V32.7431V32.7294V32.7159V32.7024V32.6891V32.6758V32.6626V32.6496V32.6366V32.6237V32.6109V32.5982V32.5856V32.5731V32.5607V32.5484V32.5362V32.5241V32.5121V32.5002V32.4885V32.4768V32.4652V32.4537V32.4423V32.431V32.4198V32.4088V32.3978V32.3869V32.3762V32.3655V32.355V32.3445V32.3342V32.324V32.3139V32.3039V32.294V32.2842V32.2745V32.2649V32.2555V32.2461V32.2369V32.2278V32.2188V32.2099V32.2011V32.1925V32.1839V32.1755V32.1672V32.159V32.1509V32.143V32.1351V32.1274V32.1198V32.1123V32.1049V32.0977V32.0905V32.0835V32.0766V32.0699V32.0632V32.0567V32.0503V32.0441V32.0379V32.0319V32.026V32.0202V32.0146V32.0091V32.0037V31.9984V31.9933V31.9883V31.9834V31.9786V31.974V31.9695V31.9652V31.9609V31.9569V31.9529V31.9491V31.9454V31.9418V31.9384V31.9351V31.9319V31.9289V31.926V31.9233V31.9206V31.9182V31.9158V31.9136V31.9116V31.9096V31.9079V31.9062V31.9047V31.9033V31.9021V31.901V31.9001V31.8993V31.8987V31.8982V31.8978V31.8976L20.2575 31.8975Z" fill="#FF86B4" stroke="#230819"/>
<path d="M22.653 58.6168L22.6844 58.5732C22.7603 58.6111 22.8174 58.6491 22.8467 58.6686C22.8475 58.6691 22.8482 58.6696 22.8489 58.6701L22.861 58.6781M22.653 58.6168C22.6562 58.617 22.6593 58.6171 22.6624 58.6174C22.6879 58.6191 22.7102 58.6228 22.7287 58.6267C22.7549 58.6323 22.7763 58.6393 22.792 58.6451C22.8218 58.6561 22.8426 58.6675 22.8499 58.6716C22.8557 58.6748 22.8598 58.6773 22.861 58.6781M22.653 58.6168L22.653 58.6168C22.6562 58.617 22.6593 58.6172 22.6623 58.6174C22.6815 58.6188 22.6966 58.6212 22.7065 58.623C22.7232 58.626 22.7366 58.6295 22.746 58.6324C22.7649 58.638 22.7781 58.6438 22.7862 58.6479C22.803 58.6563 22.8112 58.6636 22.8144 58.6667L22.6287 58.8526V59.1162V59.6162C22.5036 59.6162 22.3977 59.5717 22.3395 59.5426C22.2629 59.5043 22.1828 59.4492 22.1078 59.3743L22.6287 58.6505V58.6162C22.6371 58.6162 22.6452 58.6164 22.653 58.6168ZM22.861 58.6781L22.8611 58.6781C22.8613 58.6783 22.8615 58.6784 22.8615 58.6784C22.8615 58.6784 22.8613 58.6783 22.861 58.6781Z" fill="#230819" stroke="#230819"/>
<path d="M47.1766 45.2198V44.3879L46.442 44.7783L37.8911 49.3227L37.8911 49.3227L37.885 49.326C37.0038 49.81 36.0092 50.0535 35.012 50.0535C34.5055 50.0535 34.0162 49.9877 33.5178 49.8746C33.0501 49.7684 32.5907 49.5746 32.1292 49.3446C30.8529 48.6513 28.6154 47.4635 25.9201 46.0326C25.1649 45.6317 24.3739 45.2118 23.5579 44.7783L22.8233 44.388V45.2198V59.0444V59.339L23.081 59.4818C25.0321 60.563 26.8931 61.5969 28.5018 62.4906C30.4854 63.5926 32.0856 64.4816 32.9986 64.9837L33.0004 64.9846C33.5948 65.3084 34.2752 65.5 34.988 65.5C35.6895 65.5 36.3737 65.3377 37.0051 64.9816C37.7034 64.5919 38.8166 63.9755 40.2057 63.2064C42.0617 62.1786 44.4103 60.878 46.9198 59.4813L47.1766 59.3384V59.0444V45.2198Z" fill="#FF86B4" fill-opacity="0.5" stroke="#230819"/>
<path d="M22.2157 59.4561L22.7381 58.6043C22.7132 58.5877 22.5954 58.4941 22.5463 58.2159L22.5398 58.1796L22.5282 58.1446C22.5036 58.071 22.482 57.9385 22.482 57.7528V44.4544V44.1415L22.2006 44.0048L15.8533 40.9193L15.1347 40.57V41.369V41.3929V54.3514C15.1288 54.3838 15.1228 54.4244 15.1186 54.4716C15.1095 54.5762 15.1092 54.7197 15.1438 54.8824C15.2238 55.3368 15.5299 55.8284 16.226 56.1306L16.226 56.1307L16.2331 56.1336C16.6286 56.2982 17.8692 56.9829 19.17 57.7187C19.9199 58.1428 20.6875 58.5825 21.2844 58.9245C21.6972 59.1609 22.0284 59.3506 22.2157 59.4561Z" fill="#FF86B4" stroke="#230819"/>
<path d="M22.6589 58.6171L22.6844 58.5732C22.7603 58.6111 22.8174 58.6491 22.8467 58.6686C22.8475 58.6691 22.8482 58.6696 22.8489 58.6701L22.861 58.6781M22.6589 58.6171L22.6589 58.6171M22.6589 58.6171C22.6601 58.6172 22.6612 58.6173 22.6624 58.6174M22.6589 58.6171L22.6359 58.6162C22.6439 58.6164 22.6516 58.6167 22.6589 58.6171M22.861 58.6781C22.8598 58.6773 22.8557 58.6748 22.8499 58.6716C22.8446 58.6686 22.8322 58.6618 22.8144 58.654C22.8164 58.6553 22.8182 58.6564 22.8198 58.6574C22.8234 58.6595 22.825 58.6604 22.825 58.6604C22.825 58.6604 22.8209 58.6581 22.8137 58.6548C22.8078 58.652 22.7921 58.6449 22.7694 58.6376C22.7585 58.6342 22.743 58.6297 22.7239 58.6258M22.861 58.6781L22.8611 58.6781C22.8613 58.6783 22.8615 58.6784 22.8615 58.6784C22.8615 58.6784 22.8613 58.6783 22.861 58.6781ZM22.7239 58.6258L22.7239 58.6257C22.7064 58.6222 22.6857 58.619 22.6624 58.6174M22.7239 58.6258L22.6287 58.7687V58.6847V58.6693L22.6589 58.6171M22.7239 58.6258C22.7223 58.6255 22.7208 58.6252 22.7192 58.6248C22.705 58.6221 22.6857 58.619 22.6624 58.6174M22.6624 58.6174C22.6612 58.6173 22.6601 58.6172 22.6589 58.6171" fill="#230819" stroke="#230819"/>
<path d="M69.4767 31.141C69.4765 31.134 69.4763 31.1277 69.4761 31.1221L69.4762 31.1139L69.4766 31.0512L69.478 30.8115L69.4831 29.9402C69.4873 29.2101 69.4925 28.2151 69.497 27.1549C69.506 25.0367 69.512 22.6523 69.5 21.607H69.5L69.4999 21.6015C69.4722 20.3704 68.9098 19.5737 68.3485 19.0947C68.0722 18.859 67.7988 18.7017 67.5937 18.6028C67.4907 18.5531 67.4035 18.5175 67.3398 18.4936C67.3079 18.4816 67.2818 18.4726 67.2624 18.4661L67.2543 18.4635L58.6255 14.9548L57.8569 14.6423L57.9396 15.4678C58.0836 16.9055 57.691 18.4551 57.0952 19.8869C56.502 21.3127 55.7252 22.5797 55.1479 23.4386L54.8541 23.8757L55.3059 24.1465C56.2947 24.7389 57.3383 25.8684 57.3383 27.4966V27.5077V27.519V27.5303V27.5418V27.5534V27.5651V27.5769V27.5888V27.6009V27.613V27.6253V27.6377V27.6501V27.6627V27.6754V27.6883V27.7012V27.7142V27.7274V27.7406V27.7539V27.7674V27.781V27.7946V27.8084V27.8223V27.8363V27.8503V27.8645V27.8788V27.8932V27.9077V27.9223V27.937V27.9518V27.9667V27.9817V27.9968V28.012V28.0272V28.0426V28.0581V28.0737V28.0893V28.1051V28.121V28.1369V28.153V28.1691V28.1854V28.2017V28.2181V28.2346V28.2512V28.2679V28.2847V28.3016V28.3185V28.3356V28.3527V28.3699V28.3873V28.4047V28.4221V28.4397V28.4574V28.4751V28.4929V28.5109V28.5288V28.5469V28.5651V28.5833V28.6016V28.6201V28.6385V28.6571V28.6757V28.6945V28.7133V28.7321V28.7511V28.7701V28.7892V28.8084V28.8277V28.847V28.8664V28.8859V28.9055V28.9251V28.9448V28.9646V28.9845V29.0044V29.0244V29.0445V29.0646V29.0848V29.1051V29.1254V29.1458V29.1663V29.1869V29.2075V29.2281V29.2489V29.2697V29.2906V29.3115V29.3325V29.3536V29.3747V29.3959V29.4172V29.4385V29.4599V29.4813V29.5028V29.5244V29.546V29.5676V29.5894V29.6112V29.633V29.6549V29.6769V29.6989V29.721V29.7431V29.7653V29.7875V29.8098V29.8322V29.8546V29.877V29.8995V29.9221V29.9447V29.9673V29.99V30.0128V30.0356V30.0584V30.0813V30.1043V30.1273V30.1503V30.1734V30.1965V30.2197V30.2429V30.2662V30.2895V30.3128V30.3362V30.3596V30.3831V30.4066V30.4302V30.4538V30.4774V30.5011V30.5248V30.5486V30.5724V30.5962V30.6201V30.644V30.6679V30.6919V30.7159V30.7399V30.764V30.7881V30.8123V30.8364V30.8607V30.8849V30.9092V30.9335V30.9578V30.9822V31.0066V31.031V31.0554V31.0799V31.1044V31.129V31.1535V31.1781V31.2027V31.2273V31.252V31.2767V31.3014V31.3261V31.3509V31.3757V31.4005V31.4253V31.4501V31.475V31.4999V31.5248V31.5497V31.5746V31.5996V31.6246V31.6495V31.6746V31.6996V31.7246V31.7497V31.7747V31.7998V31.8249V31.85V31.8752V31.9003V31.9254V31.9506V31.9758V32.0009V32.0261V32.0513V32.0765V32.1018V32.127V32.1522V32.1775V32.2027V32.228V32.2532V32.2785V32.3037V32.329V32.3543V32.3796V32.4049V32.4301V32.4554V32.4807V32.506V32.5313V32.5566V32.5819V32.6072V32.6324V32.6577V32.683V32.7083V32.7336V32.7588V32.7841V32.8094V32.8346V32.8599V32.8851V32.9104V32.9356V32.9608V32.986V33.0113V33.0365V33.0616V33.0868V33.112V33.1372V33.1623V33.1874V33.2126V33.2377V33.2628V33.2879V33.3129V33.338V33.363V33.388V33.413V33.438V33.463V33.488V33.5129V33.5378V33.5627V33.5876V33.6125V33.6373V33.6621V33.6869V33.7117V33.7365V33.7612V33.7859V33.8106V33.8353V33.8599V33.8845V33.9091V33.9337V33.9582V33.9827V34.0072V34.0316V34.0561V34.0805V34.1048V34.1292V34.1535V34.1777V34.202V34.2262V34.2504V34.2745V34.2986V34.3227V34.3467V34.3708V34.3947V34.4187V34.4426V34.4664V34.4903V34.5141V34.5378V34.5615V34.5852V34.6089V34.6325V34.656V34.6795V34.703V34.7265V34.7498V34.7732V34.7965V34.8198V34.843V34.8662V34.8893V34.9124V34.9354V34.9584V34.9814V35.0043V35.0271V35.0499V35.0727V35.0954V35.118V35.1406V35.1632V35.1857V35.2081V35.2305V35.2529V35.2752V35.2974V35.3196V35.3417V35.3638V35.3858V35.4078V35.4297V35.4516V35.4733V35.4951V35.5168V35.5384V35.5599V35.5814V35.6029V35.6243V35.6456V35.6668V35.688V35.7092V35.7302V35.7512V35.7722V35.7931V35.8139V35.8346V35.8553V35.8759V35.8965V35.917V35.9374V35.9577V35.978V35.9982V36.0183V36.0384V36.0584V36.0783V36.0982V36.118V36.1377V36.1573V36.1769V36.1964V36.2158V36.2351V36.2544V36.2736V36.2927V36.3117V36.3307V36.3496V36.3684V36.3871V36.4058V36.4243V36.4428V36.4612V36.4795V36.4978V36.516V36.534V36.552V36.5699V36.5878V36.6055V36.6232V36.6408V36.6582V36.6756V36.693V36.7102V36.7273V36.7444V36.7614V36.7782V36.795V36.8117V36.8283V36.8448V36.8613V36.8776V36.8938V36.91V36.926V36.942V36.9579V36.9736V36.9893V37.0049V37.0204V37.0358V37.051V37.0662V37.0813V37.0963V37.1112V37.126V37.1407V37.1553V37.1698V37.1842V37.1985V37.2127V37.2268V37.2408V37.2546V37.2684V37.2821V37.2957V37.3091V37.3225V37.3357V37.3489V37.3619V37.3748V37.3876V37.4004V37.413V37.4254V37.4378V37.4501V37.4622V37.4743V37.4862V37.498V37.5098V37.5213V37.5328V37.5442V37.5554V37.5666V37.5776V37.5885V37.5993V37.6099V37.6205V37.6309V37.6412V37.6514V37.6615V37.6715V37.6813V37.691V37.7006V37.7101V37.7194V37.7286V37.7377V37.7467V37.7555V37.7643V37.7729V37.7813V38.6191L58.0757 38.2214C60.8675 36.7156 63.4162 35.3657 65.31 34.3628C65.6408 34.1876 65.9516 34.023 66.2402 33.87L66.241 33.8696C67.0194 33.455 67.6312 33.1273 68.0443 32.9061C68.3995 32.7159 68.6078 32.6044 68.6485 32.584L68.6485 32.5841L68.6556 32.5804C69.1099 32.3445 69.3157 31.9598 69.4046 31.6598C69.4486 31.5109 69.4662 31.3772 69.473 31.2801C69.4764 31.231 69.4771 31.1898 69.4769 31.1589C69.4769 31.1525 69.4768 31.1465 69.4767 31.141Z" fill="#FF86B4" fill-opacity="0.5" stroke="#230819"/>
<path d="M14.004 54.4594L14.747 54.8694L14.7455 54.0207L14.7215 40.7232L14.7215 40.7223L14.7215 40.4362V40.1368L14.4576 39.9955L8.20725 36.6475C8.20708 36.6474 8.20691 36.6474 8.20675 36.6473C7.47862 36.2549 6.78955 35.8877 6.14768 35.5457C5.45001 35.1739 4.80812 34.8319 4.23249 34.5195L3.494 34.1187V34.959V46.7266C3.494 46.7594 3.49057 46.8014 3.48408 46.8727L3.48333 46.8808C3.47862 46.9324 3.4722 47.0027 3.47048 47.0741C3.40151 47.6702 3.67538 48.7592 5.42971 49.724L5.42968 49.724L5.43561 49.7272C5.84019 49.9426 7.14245 50.6638 8.98456 51.6838C10.3948 52.4647 12.1215 53.4208 14.004 54.4594Z" fill="#FF86B4" fill-opacity="0.5" stroke="#230819"/>
<path d="M64.5706 49.7238L64.573 49.7225C66.3396 48.7367 66.5845 47.6229 66.5009 47.0385L66.499 47.0248L66.4962 47.0111C66.4839 46.9495 66.482 46.8586 66.482 46.7266V34.959V34.1187L65.7435 34.5195C65.1679 34.8319 64.526 35.1739 63.8283 35.5457C63.1865 35.8877 62.4974 36.2549 61.7693 36.6472C61.7691 36.6473 61.769 36.6474 61.7688 36.6475L55.5184 39.9955L55.2545 40.1368V40.4362V40.7232V54.0216V54.8663L55.995 54.46C59.3119 52.6401 62.1473 51.0674 63.6172 50.252C64.0788 49.996 64.4057 49.8147 64.5706 49.7238L64.5706 49.7238Z" fill="#FF86B4" fill-opacity="0.5" stroke="#230819"/>
<path d="M47.3287 59.2651L46.8605 58.3818C46.6995 58.4622 46.5659 58.5422 46.4483 58.6127L46.4436 58.6155L46.9455 59.4804L47.3287 59.2651Z" stroke="#230819"/>
<path d="M33.7186 49.0467L33.6042 49.5335C33.1459 49.4258 32.7005 49.2408 32.2976 49.0396L32.2911 49.0364L32.2846 49.0329C30.9925 48.34 25.5096 45.4231 22.8504 44.0117C21.7725 43.4448 21.1227 42.3394 21.1227 41.1299V31.8258V31.7779C21.1227 31.785 21.0948 31.3484 21.242 30.85C21.3903 30.3479 21.7331 29.7263 22.4944 29.4087C22.6152 29.3496 22.7984 29.2731 23.0217 29.1987L23.0833 29.1782L23.1481 29.1741C23.9986 29.1204 25.2339 28.7054 26.5638 28.1158C27.877 27.5337 29.2244 26.8081 30.2774 26.1819L31.0329 25.7326V26.6116V27.1139C31.0329 28.2487 31.8676 28.973 32.7237 29.1014H32.7844H32.8802C32.8863 29.1014 32.9428 29.1017 33.0423 29.1023C33.3619 29.1042 34.1245 29.1088 35.0832 29.1133C36.3434 29.1193 37.9473 29.1253 39.3473 29.1253C41.0343 29.1253 42.0687 29.1251 42.5067 29.1021L42.5134 29.1017L42.5134 29.1018C43.6439 29.0575 44.2066 28.7304 44.479 28.4583L44.7177 28.22L45.028 28.352C46.3198 28.9014 47.1996 29.2574 47.5026 29.3738L47.5126 29.3777L47.5225 29.3819C48.2492 29.6975 48.5935 30.2978 48.7494 30.7939C48.8274 31.0419 48.8622 31.274 48.8761 31.4534C48.8861 31.5826 48.8873 31.712 48.8772 31.8095V31.8258V40.3406C48.8772 41.8611 48.0606 43.2486 46.7276 43.9828C46.3467 44.1959 45.9231 44.4331 45.4725 44.6854C42.643 46.2696 38.7499 48.4493 37.6894 49.01L33.7186 49.0467ZM33.7186 49.0467L33.6042 49.5335C34.051 49.6384 34.5206 49.6902 34.988 49.6902C35.9346 49.6902 36.8529 49.4537 37.6888 49.0104L33.7186 49.0467Z" fill="#FF86B4" fill-opacity="0.5" stroke="#230819"/>
<path d="M56.9731 37.98L56.9731 37.9255L56.9731 37.6548L56.9734 36.6727C56.9738 35.851 56.9745 34.7337 56.976 33.5514C56.979 31.1854 56.985 28.5635 56.997 27.5262L56.997 27.5262V27.5205C56.997 25.8117 55.7427 24.8196 55.0203 24.4074L54.6493 24.1957L54.3822 24.5291C54.3072 24.6227 53.9899 25.0059 53.4102 25.3715C52.8167 25.7218 51.9961 26.0638 50.9401 26.0638C49.7268 26.0638 48.433 25.6096 47.0495 24.6886L47.0496 24.6885L47.0438 24.6848C46.6478 24.4289 46.2501 24.1487 45.8746 23.8674L45.0748 23.2685V24.2676V24.2685V24.2693V24.2702V24.271V24.2718V24.2727V24.2735V24.2744V24.2752V24.276V24.2769V24.2777V24.2786V24.2794V24.2803V24.2811V24.2819V24.2828V24.2836V24.2845V24.2853V24.2861V24.287V24.2878V24.2887V24.2895V24.2903V24.2912V24.292V24.2929V24.2937V24.2945V24.2954V24.2962V24.2971V24.2979V24.2987V24.2996V24.3004V24.3013V24.3021V24.3029V24.3038V24.3046V24.3055V24.3063V24.3071V24.308V24.3088V24.3097V24.3105V24.3113V24.3122V24.313V24.3139V24.3147V24.3155V24.3164V24.3172V24.3181V24.3189V24.3197V24.3206V24.3214V24.3222V24.3231V24.3239V24.3248V24.3256V24.3264V24.3273V24.3281V24.329V24.3298V24.3306V24.3315V24.3323V24.3331V24.334V24.3348V24.3357V24.3365V24.3373V24.3382V24.339V24.3398V24.3407V24.3415V24.3424V24.3432V24.344V24.3449V24.3457V24.3465V24.3474V24.3482V24.349V24.3499V24.3507V24.3515V24.3524V24.3532V24.3541V24.3549V24.3557V24.3566V24.3574V24.3582V24.3591V24.3599V24.3607V24.3616V24.3624V24.3632V24.3641V24.3649V24.3657V24.3666V24.3674V24.3682V24.3691V24.3699V24.3707V24.3716V24.3724V24.3732V24.3741V24.3749V24.3757V24.3766V24.3774V24.3782V24.3791V24.3799V24.3807V24.3815V24.3824V24.3832V24.384V24.3849V24.3857V24.3865V24.3874V24.3882V24.389V24.3899V24.3907V24.3915V24.3923V24.3932V24.394V24.3948V24.3957V24.3965V24.3973V24.3981V24.399V24.3998V24.4006V24.4014V24.4023V24.4031V24.4039V24.4048V24.4056V24.4064V24.4072V24.4081V24.4089V24.4097V24.4105V24.4114V24.4122V24.413V24.4138V24.4147V24.4155V24.4163V24.4171V24.418V24.4188V24.4196V24.4204V24.4212V24.4221V24.4229V24.4237V24.4245V24.4254V24.4262V24.427V24.4278V24.4286V24.4295V24.4303V24.4311V24.4319V24.4327V24.4336V24.4344V24.4352V24.436V24.4368V24.4377V24.4385V24.4393V24.4401V24.4409V24.4418V24.4426V24.4434V24.4442V24.445V24.4458V24.4467V24.4475V24.4483V24.4491V24.4499V24.4507V24.4515V24.4524V24.4532V24.454V24.4548V24.4556V24.4564V24.4572V24.4581V24.4589V24.4597V24.4605V24.4613V24.4621V24.4629V24.4637V24.4646V24.4654V24.4662V24.467V24.4678V24.4686V24.4694V24.4702V24.471V24.4718V24.4726V24.4735V24.4743V24.4751V24.4759V24.4767V24.4775V24.4783V24.4791V24.4799V24.4807V24.4815V24.4823V24.4831V24.4839V24.4847V24.4855V24.4863V24.4872V24.488V24.4888V24.4896V24.4904V24.4912V24.492V24.4928V24.4936V24.4944V24.4952V24.496V24.4968V24.4976V24.4984V24.4992V24.5V24.5008V24.5016V24.5024V24.5032V24.504V24.5048V24.5056V24.5063V24.5071V24.5079V24.5087V24.5095V24.5103V24.5111V24.5119V24.5127V24.5135V24.5143V24.5151V24.5159V24.5167V24.5175V24.5183V24.519V24.5198V24.5206V24.5214V24.5222V24.523V24.5238V24.5246V24.5254V24.5262V24.5269V24.5277V24.5285V24.5293V24.5301V24.5309V24.5317V24.5324V24.5332V24.534V24.5348V24.5356V24.5364V24.5372V24.5379V24.5387V24.5395V24.5403V24.5411V24.5418V24.5426V24.5434V24.5442V24.545V24.5458V24.5465V24.5473V24.5481V24.5489V24.5496V24.5504V24.5512V24.552V24.5528V24.5535V24.5543V24.5551V24.5559V24.5566V24.5574V24.5582V24.5589V24.5597V24.5605V24.5613V24.562V24.5628V24.5636V24.5644V24.5651V24.5659V24.5667V24.5674V24.5682V24.569V24.5697V24.5705V24.5713V24.572V24.5728V24.5736V24.5743V24.5751V24.5759V24.5766V24.5774V24.5782V24.5789V24.5797V24.5804V24.5812V24.582V24.5827V24.5835V24.5842V24.585V24.5858V24.5865V24.5873V24.588V24.5888V24.5896V24.5903V24.5911V24.5918V24.5926V24.5933V24.5941V24.5948V24.5956V24.5964V24.5971V24.5979V24.5986V24.5994V24.6001V24.6009V24.6016V24.6024V24.6031V24.6039V24.6046V24.6054V24.6061V24.6069V24.6076V24.6083V24.6091V24.6098V24.6106V24.6113V24.6121V24.6128V24.6136V24.6143V24.615V24.6158V24.6165V24.6173V24.618V24.6187V24.6195V24.6202V24.621V24.6217V24.6224V24.6232V24.6239V24.6247V24.6254V24.6261V24.6269V24.6276V24.6283V24.6291V24.6298V24.6305V24.6313V24.632V24.6327V24.6334V24.6342V24.6349V24.6356V24.6364V24.6371V24.6378V24.6385V24.6393V24.64V24.6407V24.6415V24.6422V24.6429V24.6436V24.6443V24.6451V24.6458V24.6465V24.6472V24.648V24.6487V24.6494V24.6501V24.6508V24.6515V24.6523V24.653V24.6537V24.6544V24.6551V24.6558V24.6566V24.6573V24.658V24.6587V24.6594V24.6601V24.6608V24.6615V24.6623V24.663V24.6637V24.6644V24.6651V24.6658V24.6665V24.6672V24.6679V24.6686V24.6693V24.67V24.6707V24.6714V24.6721V24.6728V24.6735V24.6742C45.0748 25.9866 45.0264 26.9053 44.915 27.5281L44.8442 27.924L45.2157 28.0781C46.4841 28.6038 47.3459 28.9624 47.6338 29.0821L47.6343 29.0824L47.6342 29.0824L47.6436 29.0861C48.5264 29.4328 48.929 30.1025 49.1177 30.7193C49.2128 31.0302 49.2505 31.3211 49.2641 31.5349C49.2708 31.6411 49.2715 31.7263 49.2706 31.7831C49.2702 31.8115 49.2693 31.8326 49.2687 31.8455L49.268 31.8585C49.2679 31.8593 49.2679 31.8598 49.2679 31.86L49.2679 31.8601L49.2679 31.8601L49.2665 31.8779V31.8975H49.7665L49.2665 31.8976V31.8978V31.8981V31.8986V31.8993V31.9001V31.901V31.9021V31.9033V31.9047V31.9062V31.9078V31.9096V31.9115V31.9135V31.9157V31.9181V31.9205V31.9231V31.9259V31.9288V31.9318V31.9349V31.9382V31.9416V31.9452V31.9489V31.9527V31.9566V31.9607V31.9649V31.9692V31.9737V31.9783V31.9831V31.9879V31.9929V31.998V32.0033V32.0086V32.0141V32.0198V32.0255V32.0314V32.0374V32.0435V32.0498V32.0561V32.0626V32.0692V32.076V32.0828V32.0898V32.0969V32.1042V32.1115V32.119V32.1265V32.1342V32.1421V32.15V32.158V32.1662V32.1745V32.1829V32.1914V32.2V32.2088V32.2177V32.2266V32.2357V32.2449V32.2542V32.2636V32.2732V32.2828V32.2926V32.3024V32.3124V32.3225V32.3327V32.343V32.3534V32.3639V32.3745V32.3852V32.396V32.407V32.418V32.4292V32.4404V32.4518V32.4632V32.4748V32.4864V32.4982V32.51V32.522V32.5341V32.5462V32.5585V32.5708V32.5833V32.5958V32.6085V32.6212V32.6341V32.647V32.66V32.6732V32.6864V32.6997V32.7131V32.7266V32.7402V32.7539V32.7677V32.7816V32.7955V32.8096V32.8237V32.838V32.8523V32.8667V32.8812V32.8958V32.9104V32.9252V32.9401V32.955V32.97V32.9851V33.0003V33.0156V33.0309V33.0463V33.0619V33.0775V33.0932V33.1089V33.1248V33.1407V33.1567V33.1728V33.1889V33.2052V33.2215V33.2379V33.2544V33.2709V33.2875V33.3042V33.321V33.3379V33.3548V33.3718V33.3889V33.406V33.4232V33.4405V33.4579V33.4753V33.4928V33.5104V33.528V33.5458V33.5635V33.5814V33.5993V33.6173V33.6353V33.6535V33.6716V33.6899V33.7082V33.7266V33.745V33.7635V33.7821V33.8007V33.8194V33.8382V33.857V33.8759V33.8948V33.9138V33.9329V33.952V33.9712V33.9904V34.0097V34.0291V34.0485V34.068V34.0875V34.107V34.1267V34.1464V34.1661V34.1859V34.2057V34.2256V34.2456V34.2656V34.2856V34.3057V34.3259V34.3461V34.3664V34.3867V34.407V34.4274V34.4479V34.4684V34.4889V34.5095V34.5301V34.5508V34.5715V34.5923V34.6131V34.6339V34.6548V34.6758V34.6968V34.7178V34.7389V34.76V34.7811V34.8023V34.8235V34.8448V34.8661V34.8874V34.9088V34.9302V34.9517V34.9732V34.9947V35.0162V35.0378V35.0595V35.0811V35.1028V35.1245V35.1463V35.1681V35.1899V35.2118V35.2337V35.2556V35.2775V35.2995V35.3215V35.3435V35.3656V35.3877V35.4098V35.4319V35.4541V35.4763V35.4985V35.5207V35.543V35.5653V35.5876V35.6099V35.6323V35.6547V35.6771V35.6995V35.7219V35.7444V35.7669V35.7894V35.8119V35.8344V35.857V35.8796V35.9022V35.9248V35.9474V35.97V35.9927V36.0153V36.038V36.0607V36.0834V36.1061V36.1289V36.1516V36.1744V36.1971V36.2199V36.2427V36.2655V36.2883V36.3111V36.3339V36.3568V36.3796V36.4024V36.4253V36.4481V36.471V36.4939V36.5167V36.5396V36.5625V36.5854V36.6082V36.6311V36.654V36.6769V36.6998V36.7227V36.7456V36.7684V36.7913V36.8142V36.8371V36.86V36.8829V36.9057V36.9286V36.9515V36.9743V36.9972V37.02V37.0429V37.0657V37.0885V37.1114V37.1342V37.157V37.1798V37.2026V37.2253V37.2481V37.2709V37.2936V37.3163V37.3391V37.3618V37.3845V37.4071V37.4298V37.4525V37.4751V37.4977V37.5203V37.5429V37.5655V37.588V37.6106V37.6331V37.6556V37.6781V37.7005V37.723V37.7454V37.7678V37.7902V37.8126V37.8349V37.8572V37.8795V37.9018V37.924V37.9462V37.9684V37.9906V38.0127V38.0348V38.0569V38.079V38.101V38.123V38.145V38.1669V38.1889V38.2108V38.2326V38.2544V38.2762V38.298V38.3197V38.3414V38.3631V38.3847V38.4063V38.4279V38.4494V38.4709V38.4923V38.5138V38.5351V38.5565V38.5778V38.5991V38.6203V38.6415V38.6626V38.6837V38.7048V38.7258V38.7468V38.7678V38.7887V38.8095V38.8303V38.8511V38.8718V38.8925V38.9131V38.9337V38.9543V38.9748V38.9952V39.0156V39.036V39.0563V39.0765V39.0967V39.1169V39.137V39.1571V39.1771V39.197V39.2169V39.2368V39.2566V39.2763V39.296V39.3156V39.3352V39.3547V39.3742V39.3936V39.413V39.4323V39.4515V39.4707V39.4898V39.5089V39.5279V39.5468V39.5657V39.5845V39.6033V39.622V39.6406V39.6592V39.6777V39.6962V39.7146V39.7329V39.7511V39.7693V39.7874V39.8055V39.8235V39.8414V39.8593V39.8771V39.8948V39.9124V39.93V39.9475V39.965V39.9823V39.9996V40.0168V40.034V40.0511V40.0681V40.085V40.1019V40.1186V40.1354V40.152V40.1685V40.185V40.2014V40.2177V40.234V40.2502V40.2662V40.2823V40.2982V40.314V40.3298V40.3455V40.3611V40.3766V40.3921V40.4074V40.4227V40.4379V40.453V40.468V40.483V40.4978V40.5126V40.5273V40.5419V40.5564V40.5708V40.5851V40.5993V40.6135V40.6276V41.3929C49.2665 41.6126 49.219 41.784 49.1616 41.9398C49.1547 41.9551 49.149 41.9686 49.1444 41.9802L49.1364 42.0007C49.1349 42.0046 49.1345 42.0056 49.1345 42.0056L49.1347 42.0053L49.1347 42.0051C49.1357 42.0027 49.1432 41.9837 49.1573 41.9596L49.326 42.023L49.7937 42.6796L54.6081 40.3356L54.6082 40.3358L54.6202 40.3295C55.1635 40.0465 55.6091 39.8359 55.8136 39.7452L55.824 39.7406L55.8341 39.7355L55.906 39.6996L55.9778 39.6637L55.9779 39.6638L55.9882 39.6584C56.4857 39.3954 56.78 39.0406 56.8998 38.6566C56.9678 38.4642 56.985 38.2897 56.985 38.161C56.985 38.0948 56.9805 38.0391 56.9753 37.9971C56.9746 37.9911 56.9738 37.9854 56.9731 37.98ZM49.2849 41.9652L49.1866 41.916C49.1866 41.916 49.1867 41.9159 49.1867 41.9159C49.1979 41.9014 49.2096 41.8882 49.2215 41.8763L49.2849 41.9652Z" fill="#FF86B4" stroke="#230819"/>
<path d="M47.2488 58.6331L47.3713 58.7966V59.1162V59.6162C47.5198 59.6162 47.6342 59.5527 47.6705 59.5326L47.6707 59.5325C47.7264 59.5016 47.783 59.4624 47.8386 59.4207L47.3713 58.6634V58.6162C47.3613 58.6162 47.3518 58.6165 47.3426 58.617M47.2488 58.6331C47.27 58.627 47.3003 58.6201 47.3377 58.6174C47.3393 58.6173 47.341 58.6172 47.3427 58.6171L47.3426 58.617M47.2488 58.6331L47.2482 58.6323C47.2554 58.6304 47.2631 58.6285 47.2713 58.6267C47.2898 58.6228 47.3121 58.6191 47.3376 58.6174C47.3393 58.6172 47.341 58.6171 47.3426 58.617M47.2488 58.6331C47.2387 58.636 47.2306 58.6388 47.2249 58.6408C47.2013 58.6493 47.1872 58.6571 47.1856 58.658L47.1856 58.658C47.1853 58.6582 47.1854 58.6581 47.1857 58.6579C47.1869 58.6572 47.1919 58.6541 47.2015 58.6475C47.1751 58.6578 47.1568 58.6678 47.15 58.6716C47.1442 58.6748 47.1402 58.6773 47.1389 58.6781M47.3426 58.617L47.3156 58.5732C47.2397 58.6111 47.1826 58.6491 47.1533 58.6686C47.1525 58.6691 47.1518 58.6696 47.1511 58.6701L47.1389 58.6781M47.1389 58.6781C47.1384 58.6784 47.1383 58.6785 47.1389 58.6781L47.1389 58.6781Z" fill="#230819" stroke="#230819"/>
<path d="M46.6766 59.2119V59.0444" stroke="#230819"/>
<path d="M47.2488 58.6331L47.3713 58.7966V59.1162V59.6162C47.5198 59.6162 47.6342 59.5527 47.6705 59.5326L47.6707 59.5325C47.7264 59.5016 47.783 59.4624 47.8386 59.4207L47.3713 58.6634V58.6162C47.3613 58.6162 47.3518 58.6165 47.3426 58.617M47.2488 58.6331C47.27 58.627 47.3003 58.6201 47.3377 58.6174C47.3393 58.6173 47.341 58.6172 47.3427 58.6171L47.3426 58.617M47.2488 58.6331L47.2482 58.6323C47.2554 58.6304 47.2631 58.6285 47.2713 58.6267C47.2898 58.6228 47.3121 58.6191 47.3376 58.6174C47.3393 58.6172 47.341 58.6171 47.3426 58.617M47.2488 58.6331C47.2387 58.636 47.2306 58.6388 47.2249 58.6408C47.2013 58.6493 47.1872 58.6571 47.1856 58.658L47.1856 58.658C47.1853 58.6582 47.1854 58.6581 47.1857 58.6579C47.1869 58.6572 47.1919 58.6541 47.2015 58.6475C47.1751 58.6578 47.1568 58.6678 47.15 58.6716C47.1442 58.6748 47.1402 58.6773 47.1389 58.6781M47.3426 58.617L47.3156 58.5732C47.2397 58.6111 47.1826 58.6491 47.1533 58.6686C47.1525 58.6691 47.1518 58.6696 47.1511 58.6701L47.1389 58.6781M47.1389 58.6781C47.1384 58.6784 47.1383 58.6785 47.1389 58.6781L47.1389 58.6781Z" fill="#230819" stroke="#230819"/>
<path d="M54.3653 54.787C54.407 54.5996 54.3942 54.4484 54.3902 54.4283H54.8892C54.8892 54.4334 54.8893 54.4556 54.886 54.4842C54.8847 54.495 54.8802 54.5332 54.8651 54.5799C54.858 54.602 54.8403 54.6523 54.8024 54.7079C54.7819 54.7378 54.7402 54.7916 54.6725 54.8383L54.3653 54.787ZM54.3653 54.787C54.3579 54.8309 54.3473 54.8765 54.3324 54.923C54.3816 54.9287 54.4358 54.9274 54.4941 54.9149C54.5571 54.9014 54.6098 54.878 54.653 54.8511L54.3653 54.787ZM54.8892 54.389V41.4169V41.3929V40.594L54.1706 40.9433L47.8233 44.0287L47.5419 44.1655V44.4784V57.7768C47.5419 57.9624 47.5204 58.0949 47.4958 58.1686L47.4897 58.1868L47.485 58.2055C47.452 58.3373 47.4059 58.4244 47.3635 58.4846C47.3205 58.5458 47.2726 58.5916 47.2191 58.6362L47.7843 59.4561C47.9611 59.3566 48.2551 59.1891 48.6205 58.981C48.7406 58.9126 48.8684 58.8398 49.0022 58.7637C49.5443 58.4551 50.188 58.0893 50.8292 57.7281C52.1246 56.9984 53.3709 56.3099 53.776 56.1297C54.4705 55.8275 54.7761 55.3366 54.8561 54.8828C54.8873 54.7377 54.8952 54.6096 54.8952 54.5179C54.8952 54.4708 54.8931 54.4295 54.8899 54.3965C54.8898 54.3945 54.8895 54.392 54.8892 54.389Z" fill="#FF86B4" stroke="#230819"/>
<path d="M19.3711 7.58719L20.1298 6.29715L18.748 6.87207C18.1034 7.1403 17.4494 7.57492 16.9082 8.32956C16.0346 9.49322 14.9739 11.1007 14.1358 12.4098C13.7151 13.0669 13.3486 13.6519 13.0872 14.0726C12.9565 14.283 12.8521 14.4524 12.7802 14.5694L12.6977 14.704L12.6762 14.7391L12.6707 14.7481L12.6695 14.7501L12.6693 14.7505L12.6692 14.7506L12.6689 14.7511L12.6688 14.7512L12.665 14.7575L12.6541 14.7763C12.6458 14.7909 12.6355 14.8098 12.6238 14.8329C12.6005 14.879 12.5717 14.9419 12.5425 15.0203C12.4843 15.1772 12.4241 15.3978 12.4054 15.6708C12.3672 16.2274 12.5044 16.9599 13.1 17.7709L13.584 18.4299L13.9501 17.6988C13.9792 17.6407 14.0071 17.578 14.0296 17.5274L14.0316 17.5228C14.0541 17.4724 14.0718 17.4327 14.0881 17.3993C14.183 17.2335 14.2677 17.0865 14.35 16.9633L14.5093 16.7246L14.3836 16.4667C14.076 15.8352 14.2985 15.3059 14.644 14.729C14.6887 14.6622 14.7115 14.6308 14.7425 14.5998L14.8 14.5425L14.8026 14.5371C14.8108 14.5301 14.8205 14.5214 14.8311 14.5112C15.1437 14.2174 15.7451 14.0046 16.8802 14.0046H17.4467L17.3764 13.4424C17.2726 12.6133 17.5274 11.5439 17.954 10.448C18.3745 9.36768 18.9348 8.32898 19.3711 7.58719Z" fill="#FF86B4" stroke="#230819"/>
<path d="M44.5659 19.9177V19.9385C44.5659 20.354 44.5894 20.7667 44.6737 21.1454L44.6831 21.1876L44.6851 21.2308C44.7451 22.5259 44.7875 23.8577 44.7784 25.0071C44.7696 26.1247 44.7126 27.1235 44.5555 27.7436C44.5527 27.7585 44.549 27.7748 44.5444 27.7923C44.5321 27.8391 44.5127 27.8942 44.4826 27.9544C44.4213 28.0769 44.3208 28.2091 44.1639 28.3296C43.8547 28.567 43.3598 28.7359 42.5732 28.7617C41.8314 28.786 39.4182 28.7858 37.2052 28.7799C36.0955 28.7769 35.0315 28.7724 34.245 28.7687C33.8517 28.7668 33.5278 28.7651 33.3022 28.7639L33.0411 28.7625L32.9726 28.7621L32.9551 28.762L32.9506 28.7619L32.9495 28.7619L32.9492 28.7619L32.9521 28.2619M44.5659 19.9177L44.0339 15.529M44.5659 19.9177L44.5641 19.8969C44.5531 19.7648 44.5475 19.637 44.5414 19.4982L44.5413 19.4942C44.5356 19.3652 44.5296 19.2263 44.5179 19.0804M44.5659 19.9177L44.5179 19.0804M32.9521 28.2619C32.8916 28.7583 32.8914 28.7582 32.8911 28.7582L32.8906 28.7581L32.8894 28.758L32.8869 28.7577L32.8806 28.7568L32.8637 28.7543C32.8505 28.7523 32.8336 28.7494 32.8134 28.7454C32.7733 28.7375 32.7195 28.7252 32.6566 28.7066C32.5323 28.6698 32.3629 28.6054 32.1899 28.4937C31.8246 28.2579 31.47 27.8235 31.47 27.1139V18.1377L31.4683 18.1169C31.4661 18.0891 31.4633 18.0504 31.4614 18.0024C31.4579 17.9104 31.4579 17.7873 31.4705 17.6394C31.4716 17.6053 31.4746 17.5752 31.4775 17.5512C31.4805 17.5268 31.4844 17.5019 31.4868 17.4861C31.4872 17.4837 31.4876 17.4815 31.4879 17.4795C31.4934 17.4434 31.494 17.4339 31.494 17.4271V17.4032C31.494 17.2519 31.5281 17.0635 31.5516 16.9462L31.5578 16.9157L31.5664 16.8897C31.5669 16.8873 31.5687 16.878 31.5727 16.8545C31.573 16.8526 31.5733 16.8507 31.5737 16.8486C31.5787 16.8178 31.5889 16.7561 31.6098 16.6886L31.6856 16.4048V16.3986V16.2804L31.7346 16.1827C31.7348 16.182 31.735 16.1813 31.7353 16.1805C31.7355 16.1799 31.7357 16.1792 31.736 16.1785C31.7423 16.1595 31.7543 16.1234 31.7754 16.0781C31.7757 16.0773 31.776 16.0765 31.7763 16.0757C31.8181 15.971 31.885 15.8032 31.9924 15.656C32.181 15.3771 32.4114 15.1769 32.6808 15.0424L32.7863 14.9897H32.9042H43.2011C43.2134 14.988 43.2263 14.9865 43.2397 14.9854C43.3251 14.9784 43.4267 14.9875 43.534 15.0284C43.7531 15.1117 43.916 15.2936 44.0339 15.529M32.9521 28.2619L32.9491 28.7619L32.9203 28.7618L32.8916 28.7583L32.9521 28.2619ZM44.0339 15.529C44.133 15.7268 44.2155 15.9887 44.2913 16.3415L44.294 16.3542L44.2938 16.3542C44.3703 16.7616 44.4442 17.3328 44.493 18.1134L44.494 18.129V18.1446V18.1451V18.1455V18.1459V18.1463V18.1467V18.1471V18.1476V18.148V18.1484V18.1488V18.1492V18.1496V18.1501V18.1505V18.1509V18.1513V18.1517V18.1521V18.1525V18.1529V18.1533V18.1538V18.1542V18.1546V18.155V18.1554V18.1558V18.1562V18.1566V18.157V18.1574V18.1578V18.1582V18.1586V18.159V18.1594V18.1598V18.1602V18.1606V18.161V18.1614V18.1618V18.1622V18.1626V18.163V18.1634V18.1638V18.1642V18.1646V18.165V18.1654V18.1658V18.1662V18.1666V18.167V18.1674V18.1678V18.1682V18.1686V18.1689V18.1693V18.1697V18.1701V18.1705V18.1709V18.1713V18.1717V18.1721V18.1725V18.1728V18.1732V18.1736V18.174V18.1744V18.1748V18.1752V18.1755V18.1759V18.1763V18.1767V18.1771V18.1775V18.1778V18.1782V18.1786V18.179V18.1794V18.1798V18.1801V18.1805V18.1809V18.1813V18.1817V18.182V18.1824V18.1828V18.1832V18.1835V18.1839V18.1843V18.1847V18.185V18.1854V18.1858V18.1862V18.1865V18.1869V18.1873V18.1877V18.188V18.1884V18.1888V18.1892V18.1895V18.1899V18.1903V18.1906V18.191V18.1914V18.1918V18.1921V18.1925V18.1929V18.1932V18.1936V18.194V18.1943V18.1947V18.1951V18.1954V18.1958V18.1962V18.1965V18.1969V18.1973V18.1976V18.198V18.1984V18.1987V18.1991V18.1995V18.1998V18.2002V18.2006V18.2009V18.2013V18.2017V18.202V18.2024V18.2027V18.2031V18.2035V18.2038V18.2042V18.2046V18.2049V18.2053V18.2056V18.206V18.2064V18.2067V18.2071V18.2074V18.2078V18.2082V18.2085V18.2089V18.2092V18.2096V18.2099V18.2103V18.2107V18.211V18.2114V18.2117V18.2121V18.2124V18.2128V18.2132V18.2135V18.2139V18.2142V18.2146V18.2149V18.2153V18.2157V18.216V18.2164V18.2167V18.2171V18.2174V18.2178V18.2181V18.2185V18.2189V18.2192V18.2196V18.2199V18.2203V18.2206V18.221V18.2213V18.2217V18.222V18.2224V18.2227V18.2231V18.2234V18.2238V18.2242V18.2245V18.2249V18.2252V18.2256V18.2259V18.2263V18.2266V18.227V18.2273V18.2277V18.228V18.2284V18.2287V18.2291V18.2294V18.2298V18.2301V18.2305V18.2308V18.2312V18.2315V18.2319V18.2322V18.2326V18.2329V18.2333V18.2336V18.234V18.2343V18.2347V18.235V18.2354V18.2357V18.2361V18.2364V18.2368V18.2372V18.2375V18.2379V18.2382V18.2386V18.2389V18.2393V18.2396V18.24V18.2403V18.2407V18.241V18.2414V18.2417V18.2421V18.2424V18.2428V18.2431V18.2435V18.2438V18.2442V18.2445V18.2449V18.2452V18.2456V18.2459V18.2463V18.2466V18.247V18.2473V18.2477V18.248V18.2484V18.2487V18.2491V18.2494V18.2498V18.2501V18.2505V18.2508V18.2512V18.2515V18.2519V18.2522V18.2526V18.2529V18.2533V18.2536V18.254V18.2543V18.2547V18.255V18.2554V18.2558V18.2561V18.2565V18.2568V18.2572V18.2575V18.2579V18.2582V18.2586V18.2589V18.2593V18.2596V18.26V18.2603V18.2607V18.261V18.2614V18.2618V18.2621V18.2625V18.2628V18.2632V18.2635V18.2639V18.2642V18.2646V18.265V18.2653V18.2657V18.266V18.2664V18.2667V18.2671V18.2674V18.2678V18.2682V18.2685V18.2689V18.2692V18.2696V18.2699V18.2703V18.2707V18.271V18.2714V18.2717V18.2721V18.2725V18.2728V18.2732V18.2735V18.2739V18.2743V18.2746V18.275V18.2753V18.2757V18.2761V18.2764V18.2768V18.2771V18.2775V18.2779V18.2782V18.2786V18.279V18.2793V18.2797V18.28V18.2804V18.2808V18.2811V18.2815V18.2819V18.2822V18.2826V18.283V18.2833V18.2837V18.2841V18.2844V18.2848V18.2852V18.2855V18.2859V18.2863V18.2866V18.287V18.2874V18.2877V18.2881V18.2885V18.2888V18.2892V18.2896V18.29V18.2903V18.2907V18.2911V18.2914V18.2918V18.2922V18.2926V18.2929V18.2933V18.2937V18.2941V18.2944V18.2948V18.2952V18.2956V18.2959V18.2963V18.2967V18.2971V18.2974V18.2978V18.2982V18.2986V18.299V18.2993V18.2997V18.3001V18.3005V18.3009V18.3012V18.3016V18.302V18.3024V18.3028V18.3031V18.3035V18.3039V18.3043V18.3047V18.3051V18.3054V18.3058V18.3062V18.3066V18.307V18.3074V18.3078V18.3082V18.3085V18.3089V18.3093V18.3097V18.3101V18.3105V18.3109V18.3113V18.3117V18.3121V18.3124V18.3128V18.3132V18.3136V18.314V18.3144V18.3148V18.3152V18.3156V18.316V18.3164V18.3168V18.3172V18.3176V18.318V18.3184V18.3188V18.3192V18.3196V18.32V18.3204V18.3208V18.3212V18.3216V18.322V18.3224V18.3228V18.3232V18.3236V18.324V18.3244V18.3248V18.3252V18.3256V18.326V18.3264V18.3269V18.3273V18.3277V18.3281V18.3285V18.3289V18.3293V18.3297V18.3301V18.3306V18.331V18.3314V18.3318V18.3322V18.3326V18.333V18.3335V18.3339V18.3343V18.3347V18.3351V18.3356V18.336C44.494 18.441 44.4992 18.5534 44.5053 18.6839L44.5054 18.6864C44.5111 18.8075 44.5173 18.9427 44.5179 19.0804M44.0339 15.529L44.5179 19.0804M31.4711 18.1513C31.4711 18.1512 31.471 18.15 31.4709 18.1479L31.4711 18.1513Z" fill="#FF86B4" stroke="#230819"/>
<path d="M32.7967 14.5984L32.997 14.4484V14.1982C32.997 14.1433 32.99 14.0935 32.9794 14.0496C32.972 14.0188 32.9633 13.9928 32.9563 13.974C32.9445 13.9253 32.9338 13.8681 32.9208 13.7986C32.9139 13.7615 32.9063 13.7208 32.8975 13.6761C32.8929 13.633 32.8846 13.5964 32.8772 13.5697V13.5429L32.8545 13.4749C32.853 13.4667 32.8514 13.4561 32.8482 13.4338L32.8478 13.4309C32.8451 13.4117 32.8408 13.3819 32.8352 13.3514C32.8322 13.3352 32.8283 13.3161 32.8232 13.2951C32.8214 13.2814 32.8193 13.2693 32.8175 13.2591C32.813 13.2342 32.8065 13.2063 32.8054 13.2016C32.8054 13.2016 32.8054 13.2015 32.8054 13.2014V13.1474L32.7861 13.08C32.7689 13.02 32.7546 12.9505 32.7364 12.8563C32.7348 12.8481 32.7331 12.8397 32.7315 12.8311C32.716 12.7511 32.6975 12.6551 32.6736 12.5579C32.6267 12.3259 32.5605 12.0586 32.494 11.8116V11.7909L32.4782 11.7295C32.2586 10.8769 31.9639 9.92468 31.5889 9.04255C31.217 8.16799 30.7519 7.32777 30.177 6.72635C29.982 6.51967 29.7906 6.31219 29.6013 6.10712C28.8796 5.3251 28.1904 4.57828 27.467 4.04592C26.5126 3.34348 25.4481 2.97041 24.083 3.25666L24.081 3.25709C23.4312 3.39613 22.7644 3.89074 22.1515 4.49665C21.5223 5.11862 20.8851 5.9239 20.2985 6.79031L20.2974 6.79204C19.4775 8.01398 18.7463 9.38645 18.2758 10.6105C18.0408 11.2219 17.8656 11.8096 17.7805 12.3313C17.6976 12.839 17.6889 13.3477 17.8525 13.7606L17.8532 13.7622C17.961 14.0315 18.1206 14.3495 18.3326 14.6672L18.4162 14.7923C18.4302 14.8167 18.4436 14.8371 18.4542 14.8525C18.4684 14.8731 18.4829 14.8924 18.491 14.9032L18.4924 14.9051C18.4964 14.9104 18.4993 14.9142 18.5013 14.917L18.687 15.2878L19.098 15.151C19.2118 15.1131 19.3787 15.0703 19.6282 15.025L20.3777 14.8889L19.9548 14.2554L19.9068 14.1837L19.8794 14.1425L19.8443 14.1075L19.7756 14.0389C19.7744 14.0375 19.7719 14.0348 19.7686 14.031C19.7618 14.0231 19.7533 14.0124 19.7448 14.0004C19.6814 13.8936 19.6058 13.7481 19.5756 13.6049C19.5535 13.4703 19.5429 13.3481 19.5548 13.2644L19.555 13.2645L19.5564 13.2521C19.5894 12.9721 19.7198 12.602 20.1872 12.1759L20.1887 12.1745C20.8127 11.6008 21.8631 11.309 22.9762 11.3287C24.0903 11.3484 25.1257 11.6778 25.7 12.1821L25.7009 12.1829C25.8889 12.3471 26.1256 12.5598 26.3885 12.7985L26.3884 12.7985L26.394 12.8034L26.7984 13.1597C27.0594 13.3967 27.368 13.6812 27.6785 13.9674C27.6787 13.9675 27.6789 13.9677 27.6791 13.9679L28.007 14.2719C28.0643 14.3287 28.1201 14.3774 28.1642 14.4159L28.168 14.4192C28.2174 14.4624 28.2531 14.4938 28.2874 14.5281L28.6407 14.1743L28.2874 14.5281L28.3832 14.6237L28.3923 14.6328L28.4018 14.6414L29.3754 15.5187C29.424 15.5663 29.4705 15.605 29.5025 15.6316L29.5065 15.6349C29.5443 15.6663 29.5633 15.6825 29.5808 15.7L29.5901 15.7093L29.5999 15.7181C29.6552 15.7678 29.7135 15.8205 29.7755 15.8764C29.9781 16.0595 30.2191 16.2772 30.5153 16.536L31.0808 17.0301L31.3186 16.3178C31.325 16.2985 31.331 16.2836 31.337 16.2701C31.3437 16.255 31.3508 16.2408 31.3632 16.2159L31.3726 16.1973L31.3803 16.178C31.4635 15.9702 31.5691 15.7574 31.6783 15.5597C31.9165 15.2086 32.2086 14.9584 32.5391 14.7837L32.5737 14.7654L32.6051 14.7419L32.7967 14.5984ZM32.943 13.9404C32.9428 13.9399 32.9429 13.94 32.9431 13.9406L32.943 13.9404Z" fill="#FF86B4" stroke="#230819"/>
<path d="M30.2642 16.7406L30.2642 16.7405L30.2593 16.7363C29.7561 16.3057 29.403 15.9999 29.1226 15.7433C28.9728 15.6052 28.8178 15.4674 28.664 15.3306L28.6347 15.3045C28.4702 15.1581 28.3063 15.012 28.1432 14.8608C28.1429 14.8605 28.1426 14.8603 28.1424 14.86L27.7609 14.5029L27.761 14.5028L27.7523 14.495C27.5737 14.3354 27.3969 14.1744 27.2257 14.0184C26.9762 13.7911 26.7386 13.5746 26.5248 13.3896L26.3839 13.2676H26.1976C25.6421 13.2676 25.089 13.3179 24.6107 13.3933L24.6107 13.3932L24.6002 13.3951C23.7534 13.5473 22.8792 13.6249 22.005 13.7025C21.6686 13.7324 21.3321 13.7623 20.9972 13.7964L20.1199 13.8858L20.6471 14.5927L21.0215 15.0948L19.6959 15.3839L19.6885 15.3855L19.6813 15.3873C19.6485 15.3955 19.6106 15.4042 19.5696 15.4135C19.4484 15.4413 19.3007 15.4751 19.1816 15.52L18.5677 15.7144L18.2046 15.1857C18.1888 15.1619 18.1765 15.1416 18.1591 15.1126L18.158 15.1107C18.1402 15.0811 18.1171 15.0427 18.0865 14.9968L17.8173 14.5936L17.4059 14.8503C16.8288 15.2105 16.1778 15.6342 15.6196 16.1156L15.6057 16.1276L15.5928 16.1405C15.5803 16.1529 15.5712 16.1621 15.5625 16.1704C15.5588 16.1741 15.5556 16.1771 15.5529 16.1796L15.5065 16.2028L15.4491 16.2601C15.3467 16.3623 15.2771 16.4305 15.2152 16.4768L15.1868 16.4981L15.1617 16.5232C15.1595 16.5253 15.1568 16.528 15.1536 16.5311C15.1222 16.5619 15.0442 16.6384 14.9827 16.7357L14.8613 16.8873L14.7176 17.0666C14.5939 17.221 14.504 17.3726 14.4212 17.5381C14.2836 17.8129 14.1692 18.1237 14.1116 18.4689L14.1116 18.4689L14.1106 18.4751C14.0507 18.8637 14.0824 19.2459 14.1943 19.6397C14.3548 20.251 14.8739 21.0956 15.5176 21.975C16.1797 22.8796 17.0255 23.8891 17.9049 24.8428C18.784 25.7962 19.7048 26.7026 20.5191 27.3987C20.9258 27.7464 21.3127 28.0473 21.6593 28.2764C21.9943 28.4979 22.334 28.6812 22.6387 28.7497L22.6387 28.7498L22.6432 28.7507C23.079 28.8446 23.6556 28.7447 24.2384 28.5811C24.8468 28.4104 25.5541 28.1421 26.2964 27.8171C27.7821 27.1664 29.4506 26.2696 30.8226 25.4087L31.0569 25.2617V24.9852V23.7893V22.8474L30.2767 23.3751C28.8024 24.3725 27.0939 25.4146 25.9879 26.0021C24.9064 26.5703 24.0071 26.7406 23.3934 26.6764C22.7855 26.6128 22.5506 26.3474 22.4977 26.0903C22.4604 25.864 22.4986 25.4851 22.6864 25.0108C22.8719 24.5424 23.1905 24.0154 23.6644 23.5091L23.6645 23.5092L23.6729 23.4999C23.8411 23.3108 24.0564 23.1163 24.2989 22.8983C24.738 22.5266 25.273 22.1913 25.8873 21.8959L25.8873 21.896L25.894 21.8927C26.0882 21.7957 26.3052 21.7151 26.5467 21.6524C26.5821 21.6476 26.6123 21.6407 26.6351 21.6344H26.6454L26.7079 21.618C27.1269 21.5079 27.5712 21.4409 28.0417 21.4186L28.0512 21.4181L28.0606 21.4173C28.8549 21.3493 29.6826 21.394 30.489 21.465L31.0329 21.5129V20.967V18.2164V18.2158V18.2153V18.2147V18.2141V18.2136V18.213V18.2124V18.2118V18.2113V18.2107V18.2101V18.2095V18.2089V18.2083V18.2077V18.2071V18.2065V18.2059V18.2053V18.2047V18.2041V18.2035V18.2029V18.2023V18.2017V18.2011V18.2005V18.1998V18.1992V18.1986V18.198V18.1973V18.1967V18.1961V18.1954V18.1948V18.1941V18.1935V18.1929V18.1922V18.1916V18.1909V18.1903V18.1896V18.1889V18.1883V18.1876V18.187V18.1863V18.1856V18.1849V18.1843V18.1836V18.1829V18.1822V18.1816V18.1809V18.1802V18.1795V18.1788V18.1781V18.1774V18.1767V18.176V18.1753V18.1746V18.1739V18.1732V18.1725V18.1718V18.1711V18.1703V18.1696V18.1689V18.1682V18.1675V18.1667V18.166V18.1653V18.1645V18.1638V18.1631V18.1623V18.1616V18.1608V18.1601V18.1593V18.1586V18.1578V18.1571V18.1563V18.1555V18.1548V18.154V18.1533V18.1525V18.1517V18.1509V18.1502V18.1494V18.1486V18.1478V18.147V18.1462V18.1455V18.1447V18.1439V18.1431V18.1423V18.1415V18.1407V18.1399V18.1391V18.1383V18.1374V18.1366V18.1358V18.135V18.1342V18.1334V18.1325V18.1317V18.1309V18.13V18.1292V18.1284V18.1275V18.1267V18.1259V18.125V18.1242V18.1233V18.1225V18.1216V18.1208V18.1199V18.119V18.1182V18.1173V18.1164V18.1156V18.1147V18.1138V18.113V18.1121V18.1112V18.1103V18.1094V18.1086V18.1077V18.1068V18.1059V18.105V18.1041V18.1032V18.1023V18.1014V18.1005V18.0996V18.0987V18.0978V18.0968V18.0959V18.095V18.0941V18.0932V18.0922V18.0913V18.0904V18.0894V18.0885V18.0876V18.0866V18.0857V18.0848V18.0838V18.0829V18.0819V18.081V18.08V18.0791V18.0781V18.0771V18.0762V18.0752V18.0742V18.0733V18.0723V18.0713V18.0704V18.0694V18.0684V18.0674V18.0664V18.0654V18.0645V18.0635V18.0625V18.0615V18.0605V18.0595V18.0585V18.0575V18.0565V18.0555V18.0544V18.0534V18.0524V18.0514V18.0504V18.0494V18.0483V18.0473V18.0463V18.0453V18.0442V18.0432V18.0421V18.0411V18.0401V18.039V18.038V18.0369V18.0359V18.0348V18.0338V18.0327V18.0317V18.0306V18.0295V18.0285V18.0274V18.0263V18.0253V18.0242V18.0231V18.022V18.021V18.0199V18.0188V18.0177V18.0166V18.0155V18.0144V18.0133V18.0122V18.0111V18.01V18.0089V18.0078V18.0067V18.0056V18.0045V18.0034V18.0022V18.0011V18V17.9989V17.9978V17.9966V17.9955V17.9944V17.9932V17.9921V17.9909V17.9898V17.9887V17.9875V17.9864V17.9852V17.9841V17.9829V17.9817V17.9806V17.9794V17.9783V17.9771V17.9759V17.9748V17.9736V17.9724V17.9712V17.9701V17.9689V17.9677V17.9665V17.9653V17.9641V17.9629V17.9617V17.9605V17.9593V17.9581V17.9569V17.9557V17.9545V17.9533V17.9521V17.9509V17.9497V17.9485V17.9472V17.946V17.9448V17.9436V17.9423V17.9411V17.9399V17.9386V17.9374V17.9361V17.9349V17.9337V17.9324V17.9312V17.9299V17.9287V17.9274V17.9261V17.9249V17.9236V17.9224V17.9211V17.9198V17.9186V17.9173V17.916V17.9147V17.9134V17.9122V17.9109V17.9096V17.9083V17.907V17.9057V17.9044V17.9031V17.9018V17.9005V17.8992V17.8979V17.8966V17.8953V17.894V17.8927V17.8914V17.89V17.8887V17.8874V17.8861V17.8847V17.8834V17.8821V17.8807V17.8794V17.8781V17.8767V17.8754V17.874V17.8727V17.8713V17.87V17.8686V17.8673V17.8659V17.8645V17.8632V17.8618V17.8605V17.8591V17.8577V17.8563V17.855V17.8536V17.8522V17.8508V17.8494V17.848V17.8467V17.8453V17.8439V17.8425V17.8411V17.8397V17.8383V17.8369V17.8355V17.8341V17.8326V17.8312V17.8298V17.8284V17.827V17.8256V17.8241V17.8227V17.8213V17.8198V17.8184V17.817V17.8155V17.8141V17.8127V17.8112V17.8098V17.8083V17.8069V17.8054V17.804V17.8025V17.801V17.7996V17.7981V17.7966V17.7952V17.7937V17.7922V17.7908V17.7893V17.7878V17.7863V17.7848V17.7834V17.7819V17.7804V17.7789V17.7774V17.7759V17.7744V17.7729V17.7714V17.7699V17.7684V17.7669V17.7654V17.7638V17.7623V17.7608V17.7593V17.7578V17.7562V17.7547V17.7532V17.7517V17.7501V17.7486V17.747V17.7455V17.744V17.7424V17.7409V17.7393V17.7378V17.7362V17.7347V17.7331V17.7315V17.73V17.7284V17.7268V17.7253V17.7237V17.7221V17.7206V17.719V17.7174V17.7158V17.7142V17.7126V17.7111V17.7095V17.7079V17.7063V17.7047V17.7031V17.7015V17.6999V17.6983V17.6967V17.695V17.6934V17.6918V17.6902V17.6886V17.687V17.6853V17.6837V17.6821V17.6805V17.6788V17.6772V17.6756V17.6739V17.6723V17.6706V17.669V17.6673V17.6657V17.664V17.6624V17.6607V17.6591V17.6574V17.6557V17.6541V17.6524V17.6507V17.6491V17.6474V17.6457V17.644V17.6424V17.4161L30.863 17.2668L30.2642 16.7406Z" fill="#FF86B4" stroke="#230819"/>
<path d="M37.9395 11.2886L37.9395 11.2887L37.952 11.2913C38.5173 11.4089 38.9755 11.5239 39.381 11.6589L39.3895 11.6617L39.398 11.6643C39.7934 11.7804 40.1411 11.907 40.4355 12.103L40.6894 12.272L40.9558 12.1236C42.218 11.4207 43.753 10.4356 44.9533 9.18708L44.9546 9.18564C45.2298 8.8971 45.4808 8.62833 45.7169 8.37545C46.0087 8.06299 46.2778 7.77479 46.542 7.50355C47.012 7.02092 47.4202 6.64126 47.8157 6.36572C48.2062 6.09368 48.5717 5.93234 48.9559 5.87385C49.3398 5.8154 49.7793 5.85406 50.3257 6.03773C50.8465 6.21278 51.1508 6.46163 51.3306 6.71857C51.5123 6.97837 51.5946 7.28644 51.6019 7.62269C51.617 8.31202 51.3139 9.03405 51.0777 9.39614C50.9344 9.60019 50.8028 9.90817 50.6831 10.1885C50.6714 10.2159 50.6598 10.243 50.6483 10.2698L50.3664 10.9266L51.0801 10.9662C51.5111 10.9901 51.943 11.0141 52.3989 11.038L52.412 11.0387H52.4251C52.4417 11.0387 52.4643 11.0409 52.5371 11.0482C52.5992 11.0544 52.686 11.0627 52.7844 11.0627H53.1563L53.2633 10.7065C54.0082 8.22695 53.7383 6.64896 53.1366 5.63458C52.8401 5.13464 52.4787 4.79972 52.1716 4.57344C52.0188 4.46082 51.8799 4.37543 51.7737 4.31236C51.7465 4.29622 51.7249 4.28359 51.706 4.27247C51.6838 4.25943 51.6651 4.24847 51.6449 4.23636C51.6196 4.22113 51.6089 4.21397 51.6066 4.21246L51.5991 4.20686C51.5271 4.15291 51.4446 4.11385 51.3852 4.08787C51.3176 4.05831 51.2398 4.02876 51.1568 3.99962C50.9904 3.94119 50.7804 3.87642 50.5439 3.80798C50.0697 3.6708 49.463 3.51145 48.8315 3.34857C48.6236 3.29495 48.4134 3.24104 48.2043 3.1874C47.128 2.9113 46.0796 2.64238 45.5147 2.45759L45.5147 2.45753L45.5073 2.45522C44.777 2.2289 43.3409 1.93148 41.9816 1.72682C41.2987 1.624 40.6227 1.54267 40.0531 1.50555C39.7685 1.48701 39.5038 1.47903 39.2744 1.48604C39.0543 1.49276 38.8328 1.51387 38.6512 1.56938C38.3352 1.66441 37.959 1.87837 37.5866 2.13668C37.2035 2.40245 36.7883 2.74077 36.3903 3.1163C35.6123 3.85054 34.8306 4.79286 34.5383 5.66684C34.3479 6.22459 34.2437 7.0716 34.181 7.91555C34.117 8.77626 34.0929 9.69063 34.0809 10.4108L34.0704 11.0397L34.6854 10.9081C34.9935 10.8422 35.2861 10.8012 35.5694 10.7996C35.8822 10.8227 36.2235 10.8671 36.5347 10.9498C36.9362 11.0591 37.3021 11.1425 37.6256 11.2163C37.7352 11.2413 37.8399 11.2652 37.9395 11.2886Z" fill="#FF86B4" stroke="#230819"/>
<path d="M57.5693 15.4632L57.5691 15.4617C57.4096 13.9348 56.7019 12.9401 55.6958 12.3221C54.7221 11.724 53.5059 11.5012 52.3473 11.4038L52.3473 11.4038L52.3452 11.4037C51.7805 11.3585 51.1959 11.3344 50.659 11.3122C50.6156 11.3104 50.5725 11.3086 50.5298 11.3068L50.5194 11.3064H50.509C50.4181 11.3064 50.3305 11.3014 50.2269 11.2953L50.2217 11.295C50.1258 11.2894 50.0153 11.2829 49.8967 11.2825C48.8908 11.2438 47.8096 11.7318 46.849 12.3408C45.8679 12.9629 44.9314 13.7642 44.2008 14.4573L43.8775 14.764L44.1451 15.1203C44.1803 15.1671 44.2175 15.2246 44.2605 15.2945V15.3065L44.3217 15.4185C44.4304 15.6176 44.5134 15.8925 44.6095 16.2756C44.719 16.759 44.7879 17.3433 44.8114 18.0808V18.2403V18.257L44.8125 18.2736L44.8353 18.6157C44.8353 18.7273 44.8354 18.8885 44.869 19.0561L44.9562 19.4914L45.3988 19.4563C46.9056 19.3369 48.9092 19.3255 50.231 19.8301C50.2796 19.8496 50.3245 19.8695 50.378 19.8932L50.3808 19.8945C50.4288 19.9158 50.4842 19.9404 50.5459 19.9654C51.293 20.3275 51.8306 20.6414 52.2046 20.9374C52.5783 21.2333 52.7585 21.4878 52.8371 21.7233L52.837 21.7233L52.84 21.7316C52.9295 21.9849 52.9172 22.31 52.746 22.7805C52.5416 23.3365 52.1461 23.6481 51.7028 23.8099C51.2444 23.9773 50.7522 23.9754 50.4333 23.9009C50.32 23.8732 50.0492 23.7625 49.6456 23.5659C49.2578 23.377 48.7887 23.1297 48.3032 22.8592C47.3251 22.3143 46.3155 21.6948 45.7828 21.2874L44.979 20.6726V21.6845C44.979 21.8403 44.9855 21.9941 44.9915 22.1334L44.9916 22.1367C44.9977 22.2785 45.003 22.4037 45.003 22.5217V22.7638L45.1929 22.9139C45.7692 23.3695 46.4294 23.8826 47.2141 24.397C49.3588 25.8447 51.0628 25.8858 52.2653 25.4867C52.8537 25.2914 53.2976 24.9985 53.5953 24.7536C53.7445 24.6309 53.8583 24.5192 53.9366 24.4358C53.9758 24.394 54.0063 24.3591 54.0281 24.3333C54.039 24.3204 54.0478 24.3097 54.0543 24.3016L54.0625 24.2912L54.0627 24.291L54.0635 24.2899L54.0728 24.2784L54.1066 24.2355C54.1358 24.1982 54.1779 24.1439 54.231 24.0738C54.3371 23.9338 54.4872 23.7308 54.6657 23.4758C55.0221 22.9663 55.4937 22.2463 55.9538 21.404C56.8611 19.743 57.777 17.5118 57.5693 15.4632Z" fill="#FF86B4" stroke="#230819"/>
<path d="M41.3465 14.0522C41.3158 13.8985 41.2599 13.7321 41.2079 13.6C41.0691 13.1655 40.8318 12.8333 40.4934 12.573C40.1655 12.3209 39.7601 12.1503 39.3136 12.0017L39.3136 12.0016L39.3085 12C38.9498 11.8849 38.5285 11.7849 38.0607 11.6778C37.9845 11.6603 37.9069 11.6426 37.8277 11.6246C37.4146 11.5305 36.9595 11.4269 36.4536 11.2982C35.7081 11.1054 35.0139 11.1607 34.4067 11.3534C33.9659 11.4911 33.5618 11.708 33.2187 11.9452L32.9274 12.1466L33.0207 12.4882C33.0863 12.7288 33.1309 12.9489 33.1782 13.1853C33.219 13.4475 33.2758 13.7258 33.3199 13.9425C33.329 13.987 33.3376 14.0289 33.3453 14.0676L33.3673 14.2211L33.4287 14.6503H33.8623H40.8563H41.4664L41.3465 14.0522Z" fill="#FF86B4" stroke="#230819"/>
<path d="M199.295 47.9095H198.795H193.337H192.837V47.4095V39.2401C191.719 38.9189 190.68 38.4414 189.722 37.8075L189.719 37.8059C188.672 37.1043 187.767 36.2684 187.009 35.2985L187.007 35.2959C186.249 34.3146 185.658 33.2337 185.234 32.0552L185.231 32.0488C184.818 30.8514 184.613 29.5961 184.613 28.2857V20.0952V19.5952H185.113H190.589H191.089V20.0952V28.2857C191.089 28.9689 191.216 29.6128 191.468 30.2216C191.737 30.8251 192.095 31.3495 192.545 31.7985L192.192 32.1524L192.545 31.7985C192.995 32.2475 193.521 32.6059 194.125 32.8736C194.736 33.1257 195.381 33.2524 196.066 33.2524C196.752 33.2524 197.391 33.1252 197.987 32.8736C198.606 32.6054 199.137 32.2468 199.586 31.7985C200.036 31.3498 200.388 30.8263 200.643 30.2239L200.645 30.2197C200.91 29.6109 201.042 28.9678 201.042 28.2857V20.0952V19.5952H201.542H207H207.5V20.0952V28.2857C207.5 29.5972 207.288 30.8534 206.861 32.0514M199.295 47.9095V38.8571V39.2401M199.295 47.9095V47.4095V39.2401M199.295 47.9095V39.2401M206.861 32.0514C206.861 32.0521 206.861 32.0528 206.86 32.0535L206.389 31.8857L206.861 32.0504C206.861 32.0508 206.861 32.0511 206.861 32.0514ZM206.861 32.0514C206.449 33.2315 205.864 34.3137 205.106 35.2959L205.104 35.2985C204.345 36.2684 203.441 37.1043 202.393 37.8059C201.445 38.4408 200.411 38.9187 199.295 39.2401M111.585 45.0289L111.761 44.8791V44.6476V33.8667V33.3667H111.261H105.976H105.476V33.8667V41.3227C105.006 41.5364 104.515 41.7086 104.001 41.8392C103.394 41.9938 102.767 42.0714 102.121 42.0714C100.991 42.0714 99.9334 41.8559 98.943 41.4273C97.9558 40.9945 97.0923 40.4074 96.3487 39.6652C95.6059 38.9237 95.0177 38.056 94.584 37.0579C94.1547 36.0699 93.9385 35.0079 93.9385 33.8667C93.9385 32.7388 94.1544 31.6903 94.5831 30.7156L94.584 30.7136C95.0174 29.7162 95.6048 28.8559 96.3459 28.1282L96.3459 28.1282L96.3487 28.1253C97.0923 27.3831 97.9559 26.7959 98.9431 26.3632C99.9335 25.9345 100.991 25.719 102.121 25.719C103.247 25.719 104.316 25.9458 105.333 26.3995L105.333 26.3995L105.337 26.4014C106.36 26.8459 107.261 27.4634 108.043 28.2559L108.496 28.7146L108.828 28.1624L111.69 23.4004L111.909 23.0364L111.585 22.7616C110.268 21.6445 108.799 20.7893 107.179 20.1976C105.558 19.5927 103.871 19.2905 102.121 19.2905C100.779 19.2905 99.4808 19.4677 98.227 19.8233C96.9912 20.1646 95.832 20.6509 94.751 21.2826C93.6711 21.9136 92.6835 22.6759 91.7889 23.5687C90.8927 24.4504 90.1279 25.4375 89.4953 26.5292C88.8633 27.6072 88.3702 28.7629 88.0156 29.9951L88.0156 29.9951L88.0143 29.9998C87.6709 31.2389 87.5 32.5284 87.5 33.8667C87.5 35.205 87.671 36.5003 88.0139 37.7513L88.0139 37.7513L88.0153 37.756C88.3697 39.0009 88.8627 40.1694 89.4947 41.2602L89.496 41.2625C90.1285 42.341 90.8927 43.3273 91.7876 44.2206L91.7903 44.2231C92.6838 45.102 93.6697 45.863 94.7471 46.5056L94.751 46.5079C95.832 47.1396 96.9912 47.6259 98.227 47.9672C99.4808 48.3228 100.779 48.5 102.121 48.5C103.871 48.5 105.557 48.2043 107.178 47.6125L107.178 47.6125L107.181 47.6113C108.8 47.0069 110.269 46.1457 111.585 45.0289ZM124.684 24.2848L124.684 24.2849L124.691 24.2777C125.054 23.9157 125.337 23.4954 125.54 23.0204C125.76 22.5348 125.869 22.015 125.869 21.4667C125.869 20.9299 125.76 20.4174 125.541 19.9344C125.339 19.4475 125.055 19.0241 124.688 18.6711C124.324 18.3089 123.897 18.0276 123.411 17.8267C122.925 17.6078 122.406 17.5 121.857 17.5C121.308 17.5 120.782 17.6086 120.285 17.8267C119.809 18.029 119.387 18.312 119.024 18.6747C118.67 19.0271 118.389 19.4482 118.175 19.9312L118.175 19.9312L118.172 19.9378C117.967 20.4206 117.865 20.9318 117.865 21.4667C117.865 22.0123 117.966 22.5301 118.172 23.0146L118.172 23.0147L118.178 23.0263C118.391 23.4944 118.67 23.9103 119.016 24.2704L119.023 24.2778L119.031 24.2848C119.392 24.6305 119.808 24.9093 120.277 25.122L120.285 25.1257L120.293 25.1291C120.788 25.3325 121.311 25.4333 121.857 25.4333C122.404 25.4333 122.922 25.3325 123.407 25.1271L123.407 25.1271L123.414 25.1243C123.896 24.912 124.321 24.6328 124.684 24.2848ZM124.472 47.9095H124.972V47.4095V27.0095V26.5095H124.472H119.224H118.724V27.0095V47.4095V47.9095H119.224H124.472ZM138.789 47.9095H139.289V47.4095V36.9952H146.994H147.494V36.4952V31.0286V30.5286H146.994H139.289V26.0619H152.471H152.971V25.5619V20.0952V19.5952H152.471H133.312H132.812V20.0952V47.4095V47.9095H133.312H138.789ZM171.082 47.9095H171.582V47.4095V26.0619H179.287H179.787V25.5619V20.0952V19.5952H179.287H157.4H156.9V20.0952V25.5619V26.0619H157.4H165.124V47.4095V47.9095H165.624H171.082Z" fill="#FF86B4" stroke="#230819"/>
</svg>
